<svg width="86" height="80" viewBox="0 0 86 80" fill="none" xmlns="http://www.w3.org/2000/svg">
<g id="speech-bubble-5">
<path id="speech-bubble-5_2" d="M57 78C53.8333 72.8334 50.2 61.9 61 59.5C63.6667 58.8334 69.8 58.6 73 63C73 58.8334 75.2 50.1 84 48.5C80.6667 44.8333 75.8 35.6 83 28C79.5 26.3333 73.6 20.6 78 11C72 14.1667 59.6 17.4 58 5C52 8.5 38.8 13 34 3C32 8.33333 25.5 16.9 15.5 8.5C15 14.5 11.6 26.4 2 26C4.16667 29.6667 7.4 38.7 3 45.5C6.83333 47.3333 13.2 53.3 8 62.5C12.1667 60.5 21.2 58.5 24 66.5C27 63.8333 34.9 59.2 42.5 62C44.1667 67.1667 49.4 77.6001 57 78Z" fill="white" stroke="black" stroke-width="2"/>
<path id="5" d="M40.3242 49.2676H43.2539C47.6484 49.2676 49.8457 47.0703 49.8457 42.6758V41.2109C49.8457 36.8164 47.6484 34.6191 43.2539 34.6191H40.3242C39.8359 34.6191 39.1035 34.6826 38.127 34.8096V31.6895H49.8457V27.2949H33.7324V40.4785H38.127C38.127 39.502 38.8594 39.0137 40.3242 39.0137H43.2539C44.7188 39.0137 45.4512 39.7461 45.4512 41.2109V42.6758C45.4512 44.1406 44.7188 44.873 43.2539 44.873H40.3242C38.8594 44.873 38.127 44.3848 38.127 43.4082H33.7324C33.7324 47.3145 35.9297 49.2676 40.3242 49.2676ZM43.9863 42.6758H42.5215C42.1797 42.6758 41.9551 42.9199 41.8477 43.4082H43.2539C43.7422 43.4082 43.9863 43.1641 43.9863 42.6758ZM53.5078 28.0273V35.3516H49.4648C52.1602 37.3047 53.5078 39.9902 53.5078 43.4082V44.873C53.5078 50.2441 50.8223 52.9297 45.4512 52.9297H42.5215C39.25 52.9297 36.7207 52.0508 34.9336 50.293C33.1562 48.5449 32.2676 45.7617 32.2676 41.9434V25.8301H51.3105L53.5078 28.0273Z" fill="black"/>
</g>
</svg>
