<svg width="86" height="80" viewBox="0 0 86 80" fill="none" xmlns="http://www.w3.org/2000/svg">
<g id="speech-bubble-4">
<path id="speech-bubble-4_2" d="M57 78C53.8333 72.8334 50.2 61.9 61 59.5C63.6667 58.8334 69.8 58.6 73 63C73 58.8334 75.2 50.1 84 48.5C80.6667 44.8333 75.8 35.6 83 28C79.5 26.3333 73.6 20.6 78 11C72 14.1667 59.6 17.4 58 5C52 8.5 38.8 13 34 3C32 8.33333 25.5 16.9 15.5 8.5C15 14.5 11.6 26.4 2 26C4.16667 29.6667 7.4 38.7 3 45.5C6.83333 47.3333 13.2 53.3 8 62.5C12.1667 60.5 21.2 58.5 24 66.5C27 63.8333 34.9 59.2 42.5 62C44.1667 67.1667 49.4 77.6001 57 78Z" fill="white" stroke="black" stroke-width="2"/>
<path id="4" d="M33.7324 27.2949V43.4082H43.9863V49.2676H48.3809V43.4082H49.8457V39.0137H48.3809V27.2949H43.9863V39.0137H38.127V27.2949H33.7324ZM32.2676 44.873V25.8301H39.5918L41.7891 28.0273V37.5488H42.5215V25.8301H49.8457L52.043 28.0273V38.2812L53.5078 39.7461V47.0703H52.043V52.9297H44.7188L42.5215 50.7324V47.0703H34.4648L32.2676 44.873Z" fill="black"/>
</g>
</svg>
