<svg width="86" height="80" viewBox="0 0 86 80" fill="none" xmlns="http://www.w3.org/2000/svg">
<g id="speech-bubble-1">
<path id="speech-bubble-1_2" d="M57 78C53.8333 72.8334 50.2 61.9 61 59.5C63.6667 58.8334 69.8 58.6 73 63C73 58.8334 75.2 50.1 84 48.5C80.6667 44.8333 75.8 35.6 83 28C79.5 26.3333 73.6 20.6 78 11C72 14.1667 59.6 17.4 58 5C52 8.5 38.8 13 34 3C32 8.33333 25.5 16.9 15.5 8.5C15 14.5 11.6 26.4 2 26C4.16667 29.6667 7.4 38.7 3 45.5C6.83333 47.3333 13.2 53.3 8 62.5C12.1667 60.5 21.2 58.5 24 66.5C27 63.8333 34.9 59.2 42.5 62C44.1667 67.1667 49.4 77.6001 57 78Z" fill="white" stroke="black" stroke-width="2"/>
<path id="1" d="M45.0566 49.2676V27.2949H37.7324V31.6895H40.6621V49.2676H45.0566ZM36.2676 33.1543V25.8301H46.5215L48.7188 28.0273V52.9297H41.3945L39.1973 50.7324V35.3516H38.4648L36.2676 33.1543Z" fill="black"/>
</g>
</svg>
