<svg width="86" height="80" viewBox="0 0 86 80" fill="none" xmlns="http://www.w3.org/2000/svg">
<g id="speech-bubble-2">
<path id="speech-bubble-2_2" d="M57 78C53.8333 72.8334 50.2 61.9 61 59.5C63.6667 58.8334 69.8 58.6 73 63C73 58.8334 75.2 50.1 84 48.5C80.6667 44.8333 75.8 35.6 83 28C79.5 26.3333 73.6 20.6 78 11C72 14.1667 59.6 17.4 58 5C52 8.5 38.8 13 34 3C32 8.33333 25.5 16.9 15.5 8.5C15 14.5 11.6 26.4 2 26C4.16667 29.6667 7.4 38.7 3 45.5C6.83333 47.3333 13.2 53.3 8 62.5C12.1667 60.5 21.2 58.5 24 66.5C27 63.8333 34.9 59.2 42.5 62C44.1667 67.1667 49.4 77.6001 57 78Z" fill="white" stroke="black" stroke-width="2"/>
<path id="2" d="M40.3242 31.6895H43.2539C44.7188 31.6895 45.4512 32.4219 45.4512 33.8867C45.4512 35.3516 44.7188 36.084 43.2539 36.084H40.3242C35.9297 36.084 33.7324 38.2812 33.7324 42.6758V49.2676H49.8457V44.873H38.127V42.6758C38.127 41.2109 38.8594 40.4785 40.3242 40.4785H43.2539C47.6484 40.4785 49.8457 38.2812 49.8457 33.8867C49.8457 29.4922 47.6484 27.2949 43.2539 27.2949H40.3242C35.9297 27.2949 33.7324 29.248 33.7324 33.1543H38.127C38.127 32.1777 38.8594 31.6895 40.3242 31.6895ZM32.2676 50.7324V42.6758C32.2676 39.873 33 37.7979 34.4648 36.4502L32.2676 34.6191C32.2676 28.7598 34.9531 25.8301 40.3242 25.8301H43.2539C46.6719 25.8301 49.2354 26.6846 50.9443 28.3936C52.6533 30.1025 53.5078 32.666 53.5078 36.084C53.5078 39.834 52.1992 42.2754 49.582 43.4082H51.3105L53.5078 45.6055V52.9297H34.4648L32.2676 50.7324Z" fill="black"/>
</g>
</svg>
