<svg width="86" height="80" viewBox="0 0 86 80" fill="none" xmlns="http://www.w3.org/2000/svg">
<g id="speech-bubble-3">
<path id="speech-bubble-3_2" d="M57 78C53.8333 72.8334 50.2 61.9 61 59.5C63.6667 58.8334 69.8 58.6 73 63C73 58.8334 75.2 50.1 84 48.5C80.6667 44.8333 75.8 35.6 83 28C79.5 26.3333 73.6 20.6 78 11C72 14.1667 59.6 17.4 58 5C52 8.5 38.8 13 34 3C32 8.33333 25.5 16.9 15.5 8.5C15 14.5 11.6 26.4 2 26C4.16667 29.6667 7.4 38.7 3 45.5C6.83333 47.3333 13.2 53.3 8 62.5C12.1667 60.5 21.2 58.5 24 66.5C27 63.8333 34.9 59.2 42.5 62C44.1667 67.1667 49.4 77.6001 57 78Z" fill="white" stroke="black" stroke-width="2"/>
<path id="3" d="M38.127 33.8867C38.127 32.4219 38.8594 31.6895 40.3242 31.6895H43.2539C44.7188 31.6895 45.4512 32.4219 45.4512 33.8867C45.4512 35.3516 44.7188 36.084 43.2539 36.084H41.0566V40.4785H43.2539C44.7188 40.4785 45.4512 41.2109 45.4512 42.6758C45.4512 44.1406 44.7188 44.873 43.2539 44.873H40.3242C38.8594 44.873 38.127 44.1406 38.127 42.6758V41.9434H33.7324V42.6758C33.7324 47.0703 35.9297 49.2676 40.3242 49.2676H43.2539C47.6484 49.2676 49.8457 47.0703 49.8457 42.6758C49.8457 41.0156 49.4746 39.5508 48.7324 38.2812C49.4746 37.0117 49.8457 35.5469 49.8457 33.8867C49.8457 29.4922 47.6484 27.2949 43.2539 27.2949H40.3242C35.9297 27.2949 33.7324 29.4922 33.7324 33.8867V34.6191H38.127V33.8867ZM50.9443 28.3936C52.6533 30.1025 53.5078 32.666 53.5078 36.084C53.5078 38.0176 53.2148 39.4824 52.6289 40.4785C53.2148 41.4746 53.5078 42.9395 53.5078 44.873C53.5078 50.2441 50.8223 52.9297 45.4512 52.9297H42.5215C39.1035 52.9297 36.54 52.0752 34.8311 50.3662C33.1221 48.6572 32.2676 46.0938 32.2676 42.6758V40.4785H39.5918V38.2812H34.4648L32.2676 36.084V33.8867C32.2676 28.5156 34.9531 25.8301 40.3242 25.8301H43.2539C46.6719 25.8301 49.2354 26.6846 50.9443 28.3936Z" fill="black"/>
</g>
</svg>
