<svg width="403" height="243" viewBox="0 0 403 243" fill="none" xmlns="http://www.w3.org/2000/svg">
<path d="M278.07 166.199L353.632 173.124L334.49 155.812L315.347 138.499L323.407 136.897L398.97 121.879L359.677 112.472L309.302 100.412L320.468 91.4095L361.692 58.1697L332.475 61.7991L278.07 68.5572L277.062 55.3997L274.04 15.9274L269.786 18.6974L216.612 53.3222L208.867 47.0898L175.305 20.0824L158.584 49.8598L153.14 59.5547L79.9465 37.3948L68.51 33.9323L88.1135 62.3247L96.72 74.7896L26.4469 78.9446L3.0225 80.3296L60.45 112.256L71.5325 118.417L42.5028 141.962L131.982 139.884L113.603 156.835L93.4289 184.204L88.66 190.673L177.32 155.119L195.455 216.642L219.635 177.279L230.717 158.582L287.75 189.052L278.07 166.199Z" fill="#F7F7F7"/>
<path d="M79.9465 37.3948L153.14 59.5547L158.584 49.8598L71.5325 23.5449L79.9465 37.3948Z" fill="black"/>
<path d="M96.72 74.7896L88.1135 62.3247L6.045 67.1722L26.4469 78.9446L96.72 74.7896Z" fill="black"/>
<path d="M71.5325 118.417L60.45 112.256L24.18 141.962H42.5028L71.5325 118.417Z" fill="black"/>
<path d="M113.848 156.504L102.765 156.835L79.5925 189.052L93.4289 184.204L113.603 156.835L113.848 156.504Z" fill="black"/>
<path d="M315.348 138.499L334.49 155.812H343.558L323.408 136.897L315.348 138.499Z" fill="black"/>
<path d="M309.302 100.412L359.677 112.472L383.857 107.337L320.468 91.4095L309.302 100.412Z" fill="black"/>
<path d="M278.07 68.5571L332.475 61.7991L350.61 47.0898L277.062 55.3997L278.07 68.5571Z" fill="black"/>
<path d="M216.613 53.3222L269.786 18.6974V2.76999L208.867 47.0898L216.613 53.3222Z" fill="black"/>
<path d="M42.5028 141.962L21.1575 159.274L102.765 156.835L113.847 156.504L113.603 156.835L131.982 139.884L42.5028 141.962Z" fill="black"/>
<path d="M162.208 175.202L181.35 239.604L195.455 216.642L177.32 155.119L88.66 190.673L75.5625 208.441L162.208 175.202Z" fill="black"/>
<path d="M219.635 177.279L301.243 220.906L287.75 189.052L230.718 158.582L219.635 177.279Z" fill="black"/>
<path d="M219.635 177.279L301.242 220.906L287.75 189.052M219.635 177.279L195.455 216.642M219.635 177.279L230.717 158.582L287.75 189.052M287.75 189.052L278.07 166.199L353.632 173.124L334.49 155.812M195.455 216.642L181.35 239.604L162.207 175.202L75.5625 208.441L88.66 190.673M195.455 216.642L177.32 155.119L88.66 190.673M334.49 155.812L315.347 138.499L323.407 136.897M334.49 155.812H343.557L323.407 136.897M323.407 136.897L398.97 121.879L359.677 112.472M359.677 112.472L309.302 100.412L320.468 91.4095M359.677 112.472L383.857 107.337L320.468 91.4095M320.468 91.4095L361.692 58.1697L332.475 61.7991M332.475 61.7991L278.07 68.5571L277.062 55.3997M332.475 61.7991L350.61 47.0898L277.062 55.3997M277.062 55.3997L274.04 15.9274L269.786 18.6974M269.786 18.6974L216.612 53.3222L208.867 47.0898M269.786 18.6974V2.76999L208.867 47.0898M208.867 47.0898L175.305 20.0824L158.584 49.8597M158.584 49.8597L153.14 59.5547L79.9465 37.3948M158.584 49.8597L71.5325 23.5449L79.9465 37.3948M79.9465 37.3948L68.51 33.9323L88.1135 62.3247M88.1135 62.3247L96.72 74.7896L26.4469 78.9446M88.1135 62.3247L6.045 67.1722L26.4469 78.9446M26.4469 78.9446L3.0225 80.3296L60.45 112.256M60.45 112.256L71.5325 118.417L42.5028 141.962M60.45 112.256L24.18 141.962H42.5028M42.5028 141.962L21.1575 159.274L102.765 156.835M42.5028 141.962L131.982 139.884L113.603 156.835M102.765 156.835L113.847 156.504L113.603 156.835M102.765 156.835L79.5925 189.052L93.4289 184.204M113.603 156.835L93.4289 184.204M93.4289 184.204L88.66 190.673" stroke="black"/>
<path d="M90.0938 94.8086V115.316H103.766V111.215H94.1953V94.8086H90.0938ZM88.7266 116.684V93.4414H95.5625L97.6133 95.4922V109.848H105.133L107.184 111.898V118.734H90.7773L88.7266 116.684ZM111.969 111.215V107.113H120.172V103.012H111.969V98.9102H121.539V94.8086H107.867V115.316H121.539V111.215H111.969ZM121.539 102.328L123.59 103.695V110.531L124.957 111.898V118.734H108.551L106.5 116.684V93.4414H122.906L124.957 95.4922V102.328H121.539ZM137.152 112.582L137.891 115.316H142.129L136.633 94.8086H131.055L125.559 115.316H129.797L130.535 112.582H137.152ZM136.059 108.48H131.629L133.844 100.223L136.059 108.48ZM136.852 116.684L136.674 116H133.625L132.887 118.734H125.832L123.781 116.684L130.016 93.4414H137.672L139.723 95.4922L145.957 118.734H138.902L136.852 116.684ZM146.148 94.8086V115.316H155.035C159.137 115.316 161.188 113.266 161.188 109.164V100.961C161.188 96.8594 159.137 94.8086 155.035 94.8086H146.148ZM153.668 102.328V109.848H155.035C155.491 109.848 155.719 109.62 155.719 109.164V103.012C155.719 102.556 155.491 102.328 155.035 102.328H153.668ZM150.25 98.9102H155.035C156.402 98.9102 157.086 99.5938 157.086 100.961V109.164C157.086 110.531 156.402 111.215 155.035 111.215H150.25V98.9102ZM144.781 116.684V93.4414H155.035C158.225 93.4414 160.618 94.2389 162.213 95.834C163.808 97.429 164.605 99.8216 164.605 103.012V111.215C164.605 116.228 162.099 118.734 157.086 118.734H146.832L144.781 116.684ZM169.391 111.215V107.113H177.594V103.012H169.391V98.9102H178.961V94.8086H165.289V115.316H178.961V111.215H169.391ZM178.961 102.328L181.012 103.695V110.531L182.379 111.898V118.734H165.973L163.922 116.684V93.4414H180.328L182.379 95.4922V102.328H178.961ZM183.062 94.8086V115.316H187.164V107.113H189.078L193.822 115.316H198.553L193.754 107.004C196.652 106.129 198.102 104.115 198.102 100.961C198.102 96.8594 196.051 94.8086 191.949 94.8086H183.062ZM187.164 98.9102H191.949C193.316 98.9102 194 99.5938 194 100.961C194 102.328 193.316 103.012 191.949 103.012H187.164V98.9102ZM199.127 95.834C200.722 97.429 201.52 99.8216 201.52 103.012C201.52 106.84 200.298 109.128 197.855 109.875L202.982 118.734H195.08L193.029 116.684L190.582 112.445V118.734H183.746L181.695 116.684V93.4414H191.949C195.139 93.4414 197.532 94.2389 199.127 95.834ZM202.203 94.8086V115.316H211.09C215.191 115.316 217.242 113.266 217.242 109.164C217.242 107.615 216.896 106.247 216.203 105.062C216.896 103.878 217.242 102.51 217.242 100.961C217.242 96.8594 215.191 94.8086 211.09 94.8086H202.203ZM206.305 103.012V98.9102H211.09C212.457 98.9102 213.141 99.5938 213.141 100.961C213.141 102.328 212.457 103.012 211.09 103.012H206.305ZM206.305 107.113H211.09C212.457 107.113 213.141 107.797 213.141 109.164C213.141 110.531 212.457 111.215 211.09 111.215H206.305V107.113ZM200.836 116.684V93.4414H211.09C214.28 93.4414 216.673 94.2389 218.268 95.834C219.863 97.429 220.66 99.8216 220.66 103.012C220.66 104.816 220.387 106.184 219.84 107.113C220.387 108.043 220.66 109.41 220.66 111.215C220.66 116.228 218.154 118.734 213.141 118.734H202.887L200.836 116.684ZM230.23 94.8086H227.496C223.395 94.8086 221.344 96.8594 221.344 100.961V109.164C221.344 113.266 223.395 115.316 227.496 115.316H230.23C234.332 115.316 236.383 113.266 236.383 109.164V100.961C236.383 96.8594 234.332 94.8086 230.23 94.8086ZM232.281 100.961V109.164C232.281 110.531 231.598 111.215 230.23 111.215H227.496C226.129 111.215 225.445 110.531 225.445 109.164V100.961C225.445 99.5938 226.129 98.9102 227.496 98.9102H230.23C231.598 98.9102 232.281 99.5938 232.281 100.961ZM228.863 109.848H230.23C230.686 109.848 230.914 109.62 230.914 109.164V102.328C229.547 102.328 228.863 103.012 228.863 104.379V109.848ZM222.369 116.342C220.774 114.747 219.977 112.354 219.977 109.164V100.961C219.977 95.9479 222.483 93.4414 227.496 93.4414H230.23C233.421 93.4414 235.813 94.2389 237.408 95.834C239.003 97.429 239.801 99.8216 239.801 103.012V111.215C239.801 116.228 237.294 118.734 232.281 118.734H229.547C226.357 118.734 223.964 117.937 222.369 116.342ZM251.996 112.582L252.734 115.316H256.973L251.477 94.8086H245.898L240.402 115.316H244.641L245.379 112.582H251.996ZM250.902 108.48H246.473L248.688 100.223L250.902 108.48ZM251.695 116.684L251.518 116H248.469L247.73 118.734H240.676L238.625 116.684L244.859 93.4414H252.516L254.566 95.4922L260.801 118.734H253.746L251.695 116.684ZM260.992 94.8086V115.316H265.094V107.113H267.008L271.752 115.316H276.482L271.684 107.004C274.582 106.129 276.031 104.115 276.031 100.961C276.031 96.8594 273.98 94.8086 269.879 94.8086H260.992ZM265.094 98.9102H269.879C271.246 98.9102 271.93 99.5938 271.93 100.961C271.93 102.328 271.246 103.012 269.879 103.012H265.094V98.9102ZM277.057 95.834C278.652 97.429 279.449 99.8216 279.449 103.012C279.449 106.84 278.228 109.128 275.785 109.875L280.912 118.734H273.01L270.959 116.684L268.512 112.445V118.734H261.676L259.625 116.684V93.4414H269.879C273.069 93.4414 275.462 94.2389 277.057 95.834ZM280.133 94.8086V115.316H289.02C293.121 115.316 295.172 113.266 295.172 109.164V100.961C295.172 96.8594 293.121 94.8086 289.02 94.8086H280.133ZM287.652 102.328V109.848H289.02C289.475 109.848 289.703 109.62 289.703 109.164V103.012C289.703 102.556 289.475 102.328 289.02 102.328H287.652ZM284.234 98.9102H289.02C290.387 98.9102 291.07 99.5938 291.07 100.961V109.164C291.07 110.531 290.387 111.215 289.02 111.215H284.234V98.9102ZM278.766 116.684V93.4414H289.02C292.21 93.4414 294.602 94.2389 296.197 95.834C297.792 97.429 298.59 99.8216 298.59 103.012V111.215C298.59 116.228 296.083 118.734 291.07 118.734H280.816L278.766 116.684Z" fill="black"/>
</svg>
