<svg width="344" height="156" viewBox="0 0 344 156" fill="none" xmlns="http://www.w3.org/2000/svg">
<path d="M77.6205 109.557L34.4 117.151L24.6974 125.038L64.3898 117.151V120.87L77.6205 109.557Z" fill="black"/>
<path d="M112.903 116.107L72.3282 126.671L64.3897 134.565L114.282 122.277L112.903 116.107Z" fill="black"/>
<path d="M157.887 118.489L123.055 145.282L125.251 154.214L168.472 123.685L157.887 118.489Z" fill="black"/>
<path d="M196.697 111.344V137.542L168.472 123.685L206.4 145.282V120.87L259.323 137.542L247.856 108.366L313.128 113.725L282.256 94.0763L329.005 86.9313L284.903 79.67L306.072 84.5496L267.262 89.9084L296.369 109.557L235.508 101.817L247.856 130.397L196.697 111.344Z" fill="black"/>
<path d="M269.908 76.2137L284.903 79.67L343.118 69.0687L317.538 67.4865L269.908 76.2137Z" fill="black"/>
<path d="M262.851 60.1374L277.846 61.1756L308.718 41.084L287.549 44.2235L262.851 60.1374Z" fill="black"/>
<path d="M235.508 42.8702L246.092 41.6317L261.087 16.0763L249.215 20.8397L235.508 42.8702Z" fill="black"/>
<path d="M31.7538 30.9618L64.3897 60.1374L13.2308 61.3282L58.2154 80.3817L4.41025 91.6947L48.5128 98.2443L13.2308 120.87L34.4 117.151L77.6205 109.557L64.3897 120.87L51.159 132.183L72.3282 126.671L112.903 116.107L114.282 122.277L119.959 147.664L123.055 145.282L157.887 118.489L168.472 123.685L196.697 137.542V111.344L247.856 130.397L235.508 101.817L296.369 109.557L267.262 89.9084L306.072 84.5496L284.903 79.67L269.908 76.2137L317.538 67.4866L331.651 64.9008L277.846 61.1756L262.851 60.1374L287.549 44.2235L301.662 35.1298L246.092 41.6318L235.508 42.8702L249.215 20.8397L254.031 13.0992L188.759 36.3206L171.118 1.78626L140.246 35.1298L97.9077 13.0992L104.082 46.4427L31.7538 30.9618Z" fill="#F7F7F7"/>
<path d="M34.4 117.151L13.2308 120.87L48.5128 98.2443L4.41025 91.6947L58.2154 80.3817L13.2308 61.3282L64.3897 60.1374L31.7538 30.9618L104.082 46.4427L97.9077 13.0992L140.246 35.1298L171.118 1.78626L188.759 36.3206L254.031 13.0992L249.215 20.8397M34.4 117.151L77.6205 109.557L64.3897 120.87M34.4 117.151L24.6974 125.038M249.215 20.8397L235.508 42.8702L246.092 41.6318M249.215 20.8397L261.087 16.0763L246.092 41.6318M64.3897 120.87V117.151M64.3897 120.87L51.159 132.183L72.3282 126.671M24.6974 125.038C40.1982 121.957 48.8889 120.231 64.3897 117.151M24.6974 125.038L64.3897 117.151M72.3282 126.671L112.903 116.107L114.282 122.277M72.3282 126.671L64.3897 134.565L114.282 122.277M114.282 122.277L119.959 147.664L123.055 145.282M123.055 145.282L157.887 118.489L168.472 123.685M123.055 145.282L125.251 154.214L168.472 123.685M168.472 123.685L196.697 137.542V111.344L247.856 130.397L235.508 101.817L296.369 109.557L267.262 89.9084L306.072 84.5496L284.903 79.67M168.472 123.685L206.4 145.282V120.87L259.323 137.542L247.856 108.366L313.128 113.725L282.256 94.0763L329.005 86.9313L284.903 79.67M284.903 79.67L269.908 76.2137L317.538 67.4865M284.903 79.67L343.118 69.0687L317.538 67.4865M317.538 67.4865L331.651 64.9008L277.846 61.1756M277.846 61.1756L262.851 60.1374L287.549 44.2235M277.846 61.1756L308.718 41.084L287.549 44.2235M287.549 44.2235L301.662 35.1298L246.092 41.6318" stroke="black"/>
<path d="M75.2656 77.1133H82.1016V85.3164H86.2031V64.8086H82.1016V73.0117H75.2656V64.8086H71.1641V85.3164H75.2656V77.1133ZM80.7344 86.6836V80.5312H78.6836V88.7344H71.8477L69.7969 86.6836V63.4414H76.6328L78.6836 65.4922V71.6445H80.7344V63.4414H87.5703L89.6211 65.4922V88.7344H82.7852L80.7344 86.6836ZM101.816 82.582L102.555 85.3164H106.793L101.297 64.8086H95.7188L90.2227 85.3164H94.4609L95.1992 82.582H101.816ZM100.723 78.4805H96.293L98.5078 70.2227L100.723 78.4805ZM101.516 86.6836L101.338 86H98.2891L97.5508 88.7344H90.4961L88.4453 86.6836L94.6797 63.4414H102.336L104.387 65.4922L110.621 88.7344H103.566L101.516 86.6836ZM125.852 70.9609C125.852 66.8594 123.801 64.8086 119.699 64.8086H116.965C112.863 64.8086 110.812 66.8594 110.812 70.9609V79.1641C110.812 83.2656 112.863 85.3164 116.965 85.3164H119.699C123.801 85.3164 125.852 83.2656 125.852 79.1641V78.4805H121.75V79.1641C121.75 80.5312 121.066 81.2148 119.699 81.2148H116.965C115.598 81.2148 114.914 80.5312 114.914 79.1641V70.9609C114.914 69.5938 115.598 68.9102 116.965 68.9102H119.699C121.066 68.9102 121.75 69.5938 121.75 70.9609V71.6445H125.852V70.9609ZM111.838 86.3418C110.243 84.7467 109.445 82.3542 109.445 79.1641V70.9609C109.445 65.9479 111.952 63.4414 116.965 63.4414H119.699C122.889 63.4414 125.282 64.2389 126.877 65.834C128.472 67.429 129.27 69.8216 129.27 73.0117V75.0625H122.434L120.383 73.0117V72.3281H119.016C118.56 72.3281 118.332 72.556 118.332 73.0117V79.8477H119.699C120.155 79.8477 120.383 79.6198 120.383 79.1641V77.1133H127.219L129.27 79.1641V81.2148C129.27 86.2279 126.763 88.7344 121.75 88.7344H119.016C115.826 88.7344 113.433 87.9368 111.838 86.3418ZM137.473 66.2441L138.908 63.4414H146.592L148.643 65.4922L142.682 77.1133L148.643 88.7344H140.959L138.908 86.6836L137.473 83.8809V88.7344H130.637L128.586 86.6836V63.4414H135.422L137.473 65.4922V66.2441ZM134.055 77.1133H135.545L139.756 85.3164H144.35L139.1 75.0625L144.35 64.8086H139.756L135.545 73.0117H134.055V64.8086H129.953V85.3164H134.055V77.1133ZM151.828 81.2148V77.1133H160.031V73.0117H151.828V68.9102H161.398V64.8086H147.727V85.3164H161.398V81.2148H151.828ZM161.398 72.3281L163.449 73.6953V80.5312L164.816 81.8984V88.7344H148.41L146.359 86.6836V63.4414H162.766L164.816 65.4922V72.3281H161.398ZM165.5 64.8086V85.3164H169.602V77.1133H171.516L176.26 85.3164H180.99L176.191 77.0039C179.09 76.1289 180.539 74.1146 180.539 70.9609C180.539 66.8594 178.488 64.8086 174.387 64.8086H165.5ZM169.602 68.9102H174.387C175.754 68.9102 176.438 69.5938 176.438 70.9609C176.438 72.3281 175.754 73.0117 174.387 73.0117H169.602V68.9102ZM181.564 65.834C183.16 67.429 183.957 69.8216 183.957 73.0117C183.957 76.8398 182.736 79.1276 180.293 79.875L185.42 88.7344H177.518L175.467 86.6836L173.02 82.4453V88.7344H166.184L164.133 86.6836V63.4414H174.387C177.577 63.4414 179.969 64.2389 181.564 65.834ZM193.527 64.8086H190.793C186.691 64.8086 184.641 66.8594 184.641 70.9609V79.1641C184.641 83.2656 186.691 85.3164 190.793 85.3164H193.527C197.629 85.3164 199.68 83.2656 199.68 79.1641V70.9609C199.68 66.8594 197.629 64.8086 193.527 64.8086ZM195.578 70.9609V79.1641C195.578 80.5312 194.895 81.2148 193.527 81.2148H190.793C189.426 81.2148 188.742 80.5312 188.742 79.1641V70.9609C188.742 69.5938 189.426 68.9102 190.793 68.9102H193.527C194.895 68.9102 195.578 69.5938 195.578 70.9609ZM192.16 79.8477H193.527C193.983 79.8477 194.211 79.6198 194.211 79.1641V72.3281C192.844 72.3281 192.16 73.0117 192.16 74.3789V79.8477ZM185.666 86.3418C184.071 84.7467 183.273 82.3542 183.273 79.1641V70.9609C183.273 65.9479 185.78 63.4414 190.793 63.4414H193.527C196.717 63.4414 199.11 64.2389 200.705 65.834C202.3 67.429 203.098 69.8216 203.098 73.0117V81.2148C203.098 86.2279 200.591 88.7344 195.578 88.7344H192.844C189.654 88.7344 187.261 87.9368 185.666 86.3418ZM212.668 64.8086H209.934C205.832 64.8086 203.781 66.8594 203.781 70.9609V79.1641C203.781 83.2656 205.832 85.3164 209.934 85.3164H212.668C216.77 85.3164 218.82 83.2656 218.82 79.1641V70.9609C218.82 66.8594 216.77 64.8086 212.668 64.8086ZM214.719 70.9609V79.1641C214.719 80.5312 214.035 81.2148 212.668 81.2148H209.934C208.566 81.2148 207.883 80.5312 207.883 79.1641V70.9609C207.883 69.5938 208.566 68.9102 209.934 68.9102H212.668C214.035 68.9102 214.719 69.5938 214.719 70.9609ZM211.301 79.8477H212.668C213.124 79.8477 213.352 79.6198 213.352 79.1641V72.3281C211.984 72.3281 211.301 73.0117 211.301 74.3789V79.8477ZM204.807 86.3418C203.212 84.7467 202.414 82.3542 202.414 79.1641V70.9609C202.414 65.9479 204.921 63.4414 209.934 63.4414H212.668C215.858 63.4414 218.251 64.2389 219.846 65.834C221.441 67.429 222.238 69.8216 222.238 73.0117V81.2148C222.238 86.2279 219.732 88.7344 214.719 88.7344H211.984C208.794 88.7344 206.402 87.9368 204.807 86.3418ZM227.023 72.957L233.504 85.3164H237.961V64.8086H233.859V77.168L227.379 64.8086H222.922V85.3164H227.023V72.957ZM232.684 86.6836L230.441 82.418V88.7344H223.605L221.555 86.6836V63.4414H228.199L230.25 65.4922L232.492 69.7578V63.4414H239.328L241.379 65.4922V88.7344H234.734L232.684 86.6836ZM250.949 64.8086H248.215C244.113 64.8086 242.062 66.8594 242.062 70.9609C242.062 75.0625 244.113 77.1133 248.215 77.1133H250.949C252.316 77.1133 253 77.7969 253 79.1641C253 80.5312 252.316 81.2148 250.949 81.2148H248.215C246.848 81.2148 246.164 80.7591 246.164 79.8477H242.062C242.062 83.4935 244.113 85.3164 248.215 85.3164H250.949C255.051 85.3164 257.102 83.2656 257.102 79.1641C257.102 75.0625 255.051 73.0117 250.949 73.0117H248.215C246.848 73.0117 246.164 72.3281 246.164 70.9609C246.164 69.5938 246.848 68.9102 248.215 68.9102H250.949C252.316 68.9102 253 69.3659 253 70.2773H257.102C257.102 66.6315 255.051 64.8086 250.949 64.8086ZM243.744 77.4824C241.712 76.3249 240.695 74.151 240.695 70.9609C240.695 65.9479 243.202 63.4414 248.215 63.4414H250.949C254.003 63.4414 256.359 64.2617 258.018 65.9023C259.686 67.5339 260.52 70.1315 260.52 73.6953H256.746C258.35 74.6068 259.38 75.7461 259.836 77.1133C260.292 78.4805 260.52 79.8477 260.52 81.2148C260.52 86.2279 258.013 88.7344 253 88.7344H250.266C247.212 88.7344 244.852 87.9141 243.184 86.2734C241.525 84.6419 240.695 82.0443 240.695 78.4805H244.469C244.195 78.1797 243.954 77.847 243.744 77.4824Z" fill="black"/>
</svg>
