<svg width="229" height="138" viewBox="0 0 229 138" fill="none" xmlns="http://www.w3.org/2000/svg">
<g clip-path="url(#clip0_6_11)">
<path d="M158.01 94.6286L200.948 98.5714L190.07 88.7143L179.193 78.8571L183.773 77.9451L226.71 69.3943L204.383 64.0382L175.758 57.1714L182.102 52.0457L205.528 33.12L188.925 35.1865L158.01 39.0343L157.438 31.5429L155.72 9.06857L153.303 10.6457L123.088 30.36L118.686 26.8114L99.615 11.4343L90.1136 28.3886L87.02 33.9086L45.4287 21.2914L38.93 19.32L50.0695 35.4857L54.96 42.5829L15.0282 44.9486L1.71753 45.7371L34.35 63.9149L40.6475 67.4229L24.1517 80.8286L74.9975 79.6457L64.5538 89.297L53.0899 104.88L50.38 108.563L100.76 88.32L111.065 123.349L124.805 100.937L131.103 90.2914L163.511 107.64L158.01 94.6286Z" fill="#F7F7F7"/>
<path d="M45.4287 21.2914L87.02 33.9086L90.1136 28.3886L40.6475 13.4057L45.4287 21.2914Z" fill="black"/>
<path d="M54.96 42.5829L50.0695 35.4857L3.435 38.2457L15.0281 44.9486L54.96 42.5829Z" fill="black"/>
<path d="M40.6475 67.4229L34.35 63.9149L13.74 80.8286H24.1517L40.6475 67.4229Z" fill="black"/>
<path d="M64.6925 89.1086L58.395 89.297L45.2275 107.64L53.0898 104.88L64.5537 89.297L64.6925 89.1086Z" fill="black"/>
<path d="M179.193 78.8571L190.07 88.7143H195.223L183.773 77.9451L179.193 78.8571Z" fill="black"/>
<path d="M175.757 57.1714L204.382 64.0382L218.122 61.1143L182.102 52.0457L175.757 57.1714Z" fill="black"/>
<path d="M158.01 39.0343L188.925 35.1865L199.23 26.8114L157.438 31.5429L158.01 39.0343Z" fill="black"/>
<path d="M123.087 30.36L153.303 10.6457V1.57715L118.686 26.8114L123.087 30.36Z" fill="black"/>
<path d="M24.1517 80.8286L12.0225 90.6857L58.395 89.297L64.6925 89.1086L64.5537 89.297L74.9975 79.6457L24.1517 80.8286Z" fill="black"/>
<path d="M92.1725 99.7543L103.05 136.423L111.065 123.349L100.76 88.32L50.38 108.563L42.9375 118.68L92.1725 99.7543Z" fill="black"/>
<path d="M124.805 100.937L171.177 125.777L163.511 107.64L131.102 90.2914L124.805 100.937Z" fill="black"/>
<path d="M124.805 100.937L171.178 125.777L163.511 107.64M124.805 100.937L111.065 123.349M124.805 100.937L131.103 90.2914L163.511 107.64M163.511 107.64L158.01 94.6286L200.948 98.5714L190.07 88.7143M111.065 123.349L103.05 136.423L92.1725 99.7543L42.9375 118.68L50.38 108.563M111.065 123.349L100.76 88.32L50.38 108.563M190.07 88.7143L179.193 78.8572L183.773 77.9451M190.07 88.7143H195.223L183.773 77.9451M183.773 77.9451L226.71 69.3943L204.383 64.0382M204.383 64.0382L175.758 57.1714L182.102 52.0457M204.383 64.0382L218.123 61.1143L182.102 52.0457M182.102 52.0457L205.528 33.12L188.925 35.1865M188.925 35.1865L158.01 39.0343L157.438 31.5429M188.925 35.1865L199.23 26.8114L157.438 31.5429M157.438 31.5429L155.72 9.06858L153.303 10.6457M153.303 10.6457L123.088 30.36L118.686 26.8114M153.303 10.6457V1.57715L118.686 26.8114M118.686 26.8114L99.615 11.4343L90.1136 28.3886M90.1136 28.3886L87.02 33.9086L45.4287 21.2914M90.1136 28.3886L40.6475 13.4057L45.4287 21.2914M45.4287 21.2914L38.93 19.32L50.0695 35.4857M50.0695 35.4857L54.96 42.5829L15.0282 44.9486M50.0695 35.4857L3.43503 38.2457L15.0282 44.9486M15.0282 44.9486L1.71753 45.7372L34.35 63.9149M34.35 63.9149L40.6475 67.4229L24.1517 80.8286M34.35 63.9149L13.74 80.8286H24.1517M24.1517 80.8286L12.0225 90.6857L58.395 89.297M24.1517 80.8286L74.9975 79.6457L64.5538 89.297M58.395 89.297L64.6925 89.1086L64.5538 89.297M58.395 89.297L45.2275 107.64L53.0899 104.88M64.5538 89.297L53.0899 104.88M53.0899 104.88L50.38 108.563" stroke="black"/>
<path d="M59.6875 56.8906H58.125C55.7812 56.8906 54.6094 58.0625 54.6094 60.4062V65.0938C54.6094 67.4375 55.7812 68.6094 58.125 68.6094H59.6875C62.0312 68.6094 63.2031 67.4375 63.2031 65.0938C63.2031 62.75 62.0312 61.5781 59.6875 61.5781H58.125C57.8646 61.5781 57.474 61.612 56.9531 61.6797V60.4062C56.9531 59.625 57.3438 59.2344 58.125 59.2344H59.6875C60.4688 59.2344 60.8594 59.4948 60.8594 60.0156H63.2031C63.2031 57.9323 62.0312 56.8906 59.6875 56.8906ZM59.6875 66.2656H58.125C57.3438 66.2656 56.9531 65.875 56.9531 65.0938C56.9531 64.3125 57.3438 63.9219 58.125 63.9219H59.6875C60.4688 63.9219 60.8594 64.3125 60.8594 65.0938C60.8594 65.875 60.4688 66.2656 59.6875 66.2656ZM55.1953 69.1953C54.2839 68.2839 53.8281 66.9167 53.8281 65.0938V60.4062C53.8281 57.5417 55.2604 56.1094 58.125 56.1094H59.6875C61.4323 56.1094 62.7786 56.5781 63.7266 57.5156C64.6797 58.4479 65.1562 59.9323 65.1562 61.9688H63C64.4375 63.0104 65.1562 64.4427 65.1562 66.2656C65.1562 69.1302 63.724 70.5625 60.8594 70.5625H59.2969C57.474 70.5625 56.1068 70.1068 55.1953 69.1953ZM69.0625 68.6094H70.625C72.9688 68.6094 74.1406 67.4375 74.1406 65.0938V64.3125C74.1406 61.9688 72.9688 60.7969 70.625 60.7969H69.0625C68.8021 60.7969 68.4115 60.8307 67.8906 60.8984V59.2344H74.1406V56.8906H65.5469V63.9219H67.8906C67.8906 63.401 68.2812 63.1406 69.0625 63.1406H70.625C71.4062 63.1406 71.7969 63.5312 71.7969 64.3125V65.0938C71.7969 65.875 71.4062 66.2656 70.625 66.2656H69.0625C68.2812 66.2656 67.8906 66.0052 67.8906 65.4844H65.5469C65.5469 67.5677 66.7188 68.6094 69.0625 68.6094ZM71.0156 65.0938H70.2344C70.0521 65.0938 69.9323 65.224 69.875 65.4844H70.625C70.8854 65.4844 71.0156 65.3542 71.0156 65.0938ZM76.0938 57.2812V61.1875H73.9375C75.375 62.2292 76.0938 63.6615 76.0938 65.4844V66.2656C76.0938 69.1302 74.6615 70.5625 71.7969 70.5625H70.2344C68.4896 70.5625 67.1406 70.0938 66.1875 69.1562C65.2396 68.224 64.7656 66.7396 64.7656 64.7031V56.1094H74.9219L76.0938 57.2812ZM80.4531 56.8906V68.6094H82.7969V63.9219H85.5312C87.875 63.9219 89.0469 62.75 89.0469 60.4062C89.0469 58.0625 87.875 56.8906 85.5312 56.8906H80.4531ZM82.7969 59.2344H85.5312C86.3125 59.2344 86.7031 59.625 86.7031 60.4062C86.7031 61.1875 86.3125 61.5781 85.5312 61.5781H82.7969V59.2344ZM79.6719 69.3906V56.1094H85.5312C87.3542 56.1094 88.7214 56.5651 89.6328 57.4766C90.5443 58.388 91 59.7552 91 61.5781C91 64.4427 89.5677 65.875 86.7031 65.875H84.75V70.5625H80.8438L79.6719 69.3906ZM91.3906 56.8906V68.6094H93.7344V63.9219H94.8281L97.5391 68.6094H100.242L97.5 63.8594C99.1562 63.3594 99.9844 62.2083 99.9844 60.4062C99.9844 58.0625 98.8125 56.8906 96.4688 56.8906H91.3906ZM93.7344 59.2344H96.4688C97.25 59.2344 97.6406 59.625 97.6406 60.4062C97.6406 61.1875 97.25 61.5781 96.4688 61.5781H93.7344V59.2344ZM100.57 57.4766C101.482 58.388 101.938 59.7552 101.938 61.5781C101.938 63.7656 101.24 65.0729 99.8438 65.5L102.773 70.5625H98.2578L97.0859 69.3906L95.6875 66.9688V70.5625H91.7812L90.6094 69.3906V56.1094H96.4688C98.2917 56.1094 99.6589 56.5651 100.57 57.4766ZM107.406 56.8906H105.844C103.5 56.8906 102.328 58.0625 102.328 60.4062V65.0938C102.328 67.4375 103.5 68.6094 105.844 68.6094H107.406C109.75 68.6094 110.922 67.4375 110.922 65.0938V60.4062C110.922 58.0625 109.75 56.8906 107.406 56.8906ZM108.578 60.4062V65.0938C108.578 65.875 108.188 66.2656 107.406 66.2656H105.844C105.062 66.2656 104.672 65.875 104.672 65.0938V60.4062C104.672 59.625 105.062 59.2344 105.844 59.2344H107.406C108.188 59.2344 108.578 59.625 108.578 60.4062ZM106.625 65.4844H107.406C107.667 65.4844 107.797 65.3542 107.797 65.0938V61.1875C107.016 61.1875 106.625 61.5781 106.625 62.3594V65.4844ZM102.914 69.1953C102.003 68.2839 101.547 66.9167 101.547 65.0938V60.4062C101.547 57.5417 102.979 56.1094 105.844 56.1094H107.406C109.229 56.1094 110.596 56.5651 111.508 57.4766C112.419 58.388 112.875 59.7552 112.875 61.5781V66.2656C112.875 69.1302 111.443 70.5625 108.578 70.5625H107.016C105.193 70.5625 103.826 70.1068 102.914 69.1953ZM119.516 65.0938C119.516 65.875 119.125 66.2656 118.344 66.2656H116.781C116 66.2656 115.609 65.875 115.609 65.0938V64.7031H113.266V65.0938C113.266 67.4375 114.438 68.6094 116.781 68.6094H118.344C120.688 68.6094 121.859 67.4375 121.859 65.0938V56.8906H119.516V65.0938ZM117.562 65.4844H118.344C118.604 65.4844 118.734 65.3542 118.734 65.0938V56.1094H122.641L123.812 57.2812V66.2656C123.812 69.1302 122.38 70.5625 119.516 70.5625H117.953C116.13 70.5625 114.763 70.1068 113.852 69.1953C112.94 68.2839 112.484 66.9167 112.484 65.0938V63.9219H116.391L117.562 65.0938V65.4844ZM126.547 66.2656V63.9219H131.234V61.5781H126.547V59.2344H132.016V56.8906H124.203V68.6094H132.016V66.2656H126.547ZM132.016 61.1875L133.188 61.9688V65.875L133.969 66.6562V70.5625H124.594L123.422 69.3906V56.1094H132.797L133.969 57.2812V61.1875H132.016ZM142.953 60.4062C142.953 58.0625 141.781 56.8906 139.438 56.8906H137.875C135.531 56.8906 134.359 58.0625 134.359 60.4062V65.0938C134.359 67.4375 135.531 68.6094 137.875 68.6094H139.438C141.781 68.6094 142.953 67.4375 142.953 65.0938V64.7031H140.609V65.0938C140.609 65.875 140.219 66.2656 139.438 66.2656H137.875C137.094 66.2656 136.703 65.875 136.703 65.0938V60.4062C136.703 59.625 137.094 59.2344 137.875 59.2344H139.438C140.219 59.2344 140.609 59.625 140.609 60.4062V60.7969H142.953V60.4062ZM134.945 69.1953C134.034 68.2839 133.578 66.9167 133.578 65.0938V60.4062C133.578 57.5417 135.01 56.1094 137.875 56.1094H139.438C141.26 56.1094 142.628 56.5651 143.539 57.4766C144.451 58.388 144.906 59.7552 144.906 61.5781V62.75H141L139.828 61.5781V61.1875H139.047C138.786 61.1875 138.656 61.3177 138.656 61.5781V65.4844H139.438C139.698 65.4844 139.828 65.3542 139.828 65.0938V63.9219H143.734L144.906 65.0938V66.2656C144.906 69.1302 143.474 70.5625 140.609 70.5625H139.047C137.224 70.5625 135.857 70.1068 134.945 69.1953ZM150.766 59.2344H153.891V56.8906H145.297V59.2344H148.422V68.6094H150.766V59.2344ZM144.516 60.0156V56.1094H154.672L155.844 57.2812V61.1875H152.719V70.5625H148.812L147.641 69.3906V61.1875H145.688L144.516 60.0156ZM161.312 56.8906H159.75C157.406 56.8906 156.234 58.0625 156.234 60.4062C156.234 62.75 157.406 63.9219 159.75 63.9219H161.312C162.094 63.9219 162.484 64.3125 162.484 65.0938C162.484 65.875 162.094 66.2656 161.312 66.2656H159.75C158.969 66.2656 158.578 66.0052 158.578 65.4844H156.234C156.234 67.5677 157.406 68.6094 159.75 68.6094H161.312C163.656 68.6094 164.828 67.4375 164.828 65.0938C164.828 62.75 163.656 61.5781 161.312 61.5781H159.75C158.969 61.5781 158.578 61.1875 158.578 60.4062C158.578 59.625 158.969 59.2344 159.75 59.2344H161.312C162.094 59.2344 162.484 59.4948 162.484 60.0156H164.828C164.828 57.9323 163.656 56.8906 161.312 56.8906ZM157.195 64.1328C156.034 63.4714 155.453 62.2292 155.453 60.4062C155.453 57.5417 156.885 56.1094 159.75 56.1094H161.312C163.057 56.1094 164.404 56.5781 165.352 57.5156C166.305 58.4479 166.781 59.9323 166.781 61.9688H164.625C165.542 62.4896 166.13 63.1406 166.391 63.9219C166.651 64.7031 166.781 65.4844 166.781 66.2656C166.781 69.1302 165.349 70.5625 162.484 70.5625H160.922C159.177 70.5625 157.828 70.0938 156.875 69.1562C155.927 68.224 155.453 66.7396 155.453 64.7031H157.609C157.453 64.5312 157.315 64.3411 157.195 64.1328Z" fill="black"/>
</g>
<defs>
<clipPath id="clip0_6_11">
<rect width="229" height="138" fill="white"/>
</clipPath>
</defs>
</svg>
