<svg width="415" height="155" viewBox="0 0 415 155" fill="none" xmlns="http://www.w3.org/2000/svg">
<path d="M40.1616 139.847C-27.5367 112.665 7.66156 85.5604 33.7229 75.406C22.6852 50.2154 36.4823 38.4988 76.9541 26.7822C109.332 17.409 140.115 25.6106 151.459 30.883C168.384 6.51258 219.832 0.810528 243.44 1.00581C307.459 0.537147 329.596 28.5397 332.662 42.5996C351.794 34.6323 377.733 39.0846 392.45 44.3571C423.356 57.9483 409.007 72.8674 397.969 79.5068C419.309 92.1607 414.832 107.822 409.927 114.071C393.738 136.566 332.662 134.379 304.148 130.474C295.257 137.699 266.62 152.501 223.204 153.907C179.789 155.313 149.926 140.433 140.421 132.817C108.044 148.283 58.5579 146.291 40.1616 139.847Z" fill="#F7F7F7" stroke="black" stroke-width="2"/>
<path d="M60.8984 71.1641C60.8984 72.5312 60.2148 73.2148 58.8477 73.2148H56.1133C54.7461 73.2148 54.0625 72.5312 54.0625 71.1641V56.8086H49.9609V71.1641C49.9609 75.2656 52.0117 77.3164 56.1133 77.3164H58.8477C62.9492 77.3164 65 75.2656 65 71.1641V56.8086H60.8984V71.1641ZM57.4805 71.8477H58.8477C59.3034 71.8477 59.5312 71.6198 59.5312 71.1641V55.4414H66.3672L68.418 57.4922V73.2148C68.418 78.2279 65.9115 80.7344 60.8984 80.7344H58.1641C54.974 80.7344 52.5814 79.9368 50.9863 78.3418C49.3913 76.7467 48.5938 74.3542 48.5938 71.1641V55.4414H55.4297L57.4805 57.4922V71.8477ZM83.457 64.752L86.8203 77.3164H92.3984L97.8945 56.8086H93.6562L89.6094 71.9023L85.5625 56.8086H81.3516L77.3047 71.9023L73.2578 56.8086H69.0195L74.5156 77.3164H80.0938L83.457 64.752ZM85.7812 78.6836L84.7559 74.8691L83.1836 80.7344H75.5273L73.4766 78.6836L67.2422 55.4414H74.2969L76.3477 57.4922L78.0566 63.8359L80.3125 55.4414H86.6016L88.6523 57.4922L90.3613 63.8359L92.6172 55.4414H99.6719L101.723 57.4922L95.4883 80.7344H87.832L85.7812 78.6836ZM101.914 56.8086V77.3164H110.801C114.902 77.3164 116.953 75.2656 116.953 71.1641C116.953 69.6146 116.607 68.2474 115.914 67.0625C116.607 65.8776 116.953 64.5104 116.953 62.9609C116.953 58.8594 114.902 56.8086 110.801 56.8086H101.914ZM106.016 65.0117V60.9102H110.801C112.168 60.9102 112.852 61.5938 112.852 62.9609C112.852 64.3281 112.168 65.0117 110.801 65.0117H106.016ZM106.016 69.1133H110.801C112.168 69.1133 112.852 69.7969 112.852 71.1641C112.852 72.5312 112.168 73.2148 110.801 73.2148H106.016V69.1133ZM100.547 78.6836V55.4414H110.801C113.991 55.4414 116.383 56.2389 117.979 57.834C119.574 59.429 120.371 61.8216 120.371 65.0117C120.371 66.8164 120.098 68.1836 119.551 69.1133C120.098 70.043 120.371 71.4102 120.371 73.2148C120.371 78.2279 117.865 80.7344 112.852 80.7344H102.598L100.547 78.6836ZM139.512 74.582L140.25 77.3164H144.488L138.992 56.8086H133.414L127.918 77.3164H132.156L132.895 74.582H139.512ZM138.418 70.4805H133.988L136.203 62.2227L138.418 70.4805ZM139.211 78.6836L139.033 78H135.984L135.246 80.7344H128.191L126.141 78.6836L132.375 55.4414H140.031L142.082 57.4922L148.316 80.7344H141.262L139.211 78.6836ZM157.395 56.8086H154.66C150.559 56.8086 148.508 58.8594 148.508 62.9609C148.508 67.0625 150.559 69.1133 154.66 69.1133H157.395C158.762 69.1133 159.445 69.7969 159.445 71.1641C159.445 72.5312 158.762 73.2148 157.395 73.2148H154.66C153.293 73.2148 152.609 72.7591 152.609 71.8477H148.508C148.508 75.4935 150.559 77.3164 154.66 77.3164H157.395C161.496 77.3164 163.547 75.2656 163.547 71.1641C163.547 67.0625 161.496 65.0117 157.395 65.0117H154.66C153.293 65.0117 152.609 64.3281 152.609 62.9609C152.609 61.5938 153.293 60.9102 154.66 60.9102H157.395C158.762 60.9102 159.445 61.3659 159.445 62.2773H163.547C163.547 58.6315 161.496 56.8086 157.395 56.8086ZM150.189 69.4824C148.157 68.3249 147.141 66.151 147.141 62.9609C147.141 57.9479 149.647 55.4414 154.66 55.4414H157.395C160.448 55.4414 162.804 56.2617 164.463 57.9023C166.131 59.5339 166.965 62.1315 166.965 65.6953H163.191C164.796 66.6068 165.826 67.7461 166.281 69.1133C166.737 70.4805 166.965 71.8477 166.965 73.2148C166.965 78.2279 164.458 80.7344 159.445 80.7344H156.711C153.658 80.7344 151.297 79.9141 149.629 78.2734C147.97 76.6419 147.141 74.0443 147.141 70.4805H150.914C150.641 70.1797 150.399 69.847 150.189 69.4824ZM176.535 56.8086H173.801C169.699 56.8086 167.648 58.8594 167.648 62.9609C167.648 67.0625 169.699 69.1133 173.801 69.1133H176.535C177.902 69.1133 178.586 69.7969 178.586 71.1641C178.586 72.5312 177.902 73.2148 176.535 73.2148H173.801C172.434 73.2148 171.75 72.7591 171.75 71.8477H167.648C167.648 75.4935 169.699 77.3164 173.801 77.3164H176.535C180.637 77.3164 182.688 75.2656 182.688 71.1641C182.688 67.0625 180.637 65.0117 176.535 65.0117H173.801C172.434 65.0117 171.75 64.3281 171.75 62.9609C171.75 61.5938 172.434 60.9102 173.801 60.9102H176.535C177.902 60.9102 178.586 61.3659 178.586 62.2773H182.688C182.688 58.6315 180.637 56.8086 176.535 56.8086ZM169.33 69.4824C167.298 68.3249 166.281 66.151 166.281 62.9609C166.281 57.9479 168.788 55.4414 173.801 55.4414H176.535C179.589 55.4414 181.945 56.2617 183.604 57.9023C185.271 59.5339 186.105 62.1315 186.105 65.6953H182.332C183.936 66.6068 184.966 67.7461 185.422 69.1133C185.878 70.4805 186.105 71.8477 186.105 73.2148C186.105 78.2279 183.599 80.7344 178.586 80.7344H175.852C172.798 80.7344 170.438 79.9141 168.77 78.2734C167.111 76.6419 166.281 74.0443 166.281 70.4805H170.055C169.781 70.1797 169.54 69.847 169.33 69.4824ZM195.676 56.8086H192.941C188.84 56.8086 186.789 58.8594 186.789 62.9609V71.1641C186.789 75.2656 188.84 77.3164 192.941 77.3164H195.676C199.777 77.3164 201.828 75.2656 201.828 71.1641V62.9609C201.828 58.8594 199.777 56.8086 195.676 56.8086ZM197.727 62.9609V71.1641C197.727 72.5312 197.043 73.2148 195.676 73.2148H192.941C191.574 73.2148 190.891 72.5312 190.891 71.1641V62.9609C190.891 61.5938 191.574 60.9102 192.941 60.9102H195.676C197.043 60.9102 197.727 61.5938 197.727 62.9609ZM194.309 71.8477H195.676C196.132 71.8477 196.359 71.6198 196.359 71.1641V64.3281C194.992 64.3281 194.309 65.0117 194.309 66.3789V71.8477ZM187.814 78.3418C186.219 76.7467 185.422 74.3542 185.422 71.1641V62.9609C185.422 57.9479 187.928 55.4414 192.941 55.4414H195.676C198.866 55.4414 201.258 56.2389 202.854 57.834C204.449 59.429 205.246 61.8216 205.246 65.0117V73.2148C205.246 78.2279 202.74 80.7344 197.727 80.7344H194.992C191.802 80.7344 189.41 79.9368 187.814 78.3418ZM220.969 62.9609C220.969 58.8594 218.918 56.8086 214.816 56.8086H212.082C207.98 56.8086 205.93 58.8594 205.93 62.9609V71.1641C205.93 75.2656 207.98 77.3164 212.082 77.3164H214.816C218.918 77.3164 220.969 75.2656 220.969 71.1641V70.4805H216.867V71.1641C216.867 72.5312 216.184 73.2148 214.816 73.2148H212.082C210.715 73.2148 210.031 72.5312 210.031 71.1641V62.9609C210.031 61.5938 210.715 60.9102 212.082 60.9102H214.816C216.184 60.9102 216.867 61.5938 216.867 62.9609V63.6445H220.969V62.9609ZM206.955 78.3418C205.36 76.7467 204.562 74.3542 204.562 71.1641V62.9609C204.562 57.9479 207.069 55.4414 212.082 55.4414H214.816C218.007 55.4414 220.399 56.2389 221.994 57.834C223.589 59.429 224.387 61.8216 224.387 65.0117V67.0625H217.551L215.5 65.0117V64.3281H214.133C213.677 64.3281 213.449 64.556 213.449 65.0117V71.8477H214.816C215.272 71.8477 215.5 71.6198 215.5 71.1641V69.1133H222.336L224.387 71.1641V73.2148C224.387 78.2279 221.88 80.7344 216.867 80.7344H214.133C210.943 80.7344 208.55 79.9368 206.955 78.3418ZM229.172 77.3164V56.8086H225.07V77.3164H229.172ZM223.703 78.6836V55.4414H230.539L232.59 57.4922V80.7344H225.754L223.703 78.6836ZM244.785 74.582L245.523 77.3164H249.762L244.266 56.8086H238.688L233.191 77.3164H237.43L238.168 74.582H244.785ZM243.691 70.4805H239.262L241.477 62.2227L243.691 70.4805ZM244.484 78.6836L244.307 78H241.258L240.52 80.7344H233.465L231.414 78.6836L237.648 55.4414H245.305L247.355 57.4922L253.59 80.7344H246.535L244.484 78.6836ZM263.352 60.9102H268.82V56.8086H253.781V60.9102H259.25V77.3164H263.352V60.9102ZM252.414 62.2773V55.4414H270.188L272.238 57.4922V64.3281H266.77V80.7344H259.934L257.883 78.6836V64.3281H254.465L252.414 62.2773ZM277.023 77.3164V56.8086H272.922V77.3164H277.023ZM271.555 78.6836V55.4414H278.391L280.441 57.4922V80.7344H273.605L271.555 78.6836ZM290.012 56.8086H287.277C283.176 56.8086 281.125 58.8594 281.125 62.9609V71.1641C281.125 75.2656 283.176 77.3164 287.277 77.3164H290.012C294.113 77.3164 296.164 75.2656 296.164 71.1641V62.9609C296.164 58.8594 294.113 56.8086 290.012 56.8086ZM292.062 62.9609V71.1641C292.062 72.5312 291.379 73.2148 290.012 73.2148H287.277C285.91 73.2148 285.227 72.5312 285.227 71.1641V62.9609C285.227 61.5938 285.91 60.9102 287.277 60.9102H290.012C291.379 60.9102 292.062 61.5938 292.062 62.9609ZM288.645 71.8477H290.012C290.467 71.8477 290.695 71.6198 290.695 71.1641V64.3281C289.328 64.3281 288.645 65.0117 288.645 66.3789V71.8477ZM282.15 78.3418C280.555 76.7467 279.758 74.3542 279.758 71.1641V62.9609C279.758 57.9479 282.264 55.4414 287.277 55.4414H290.012C293.202 55.4414 295.594 56.2389 297.189 57.834C298.785 59.429 299.582 61.8216 299.582 65.0117V73.2148C299.582 78.2279 297.076 80.7344 292.062 80.7344H289.328C286.138 80.7344 283.745 79.9368 282.15 78.3418ZM304.367 64.957L310.848 77.3164H315.305V56.8086H311.203V69.168L304.723 56.8086H300.266V77.3164H304.367V64.957ZM310.027 78.6836L307.785 74.418V80.7344H300.949L298.898 78.6836V55.4414H305.543L307.594 57.4922L309.836 61.7578V55.4414H316.672L318.723 57.4922V80.7344H312.078L310.027 78.6836ZM340.023 56.8086H326.352V77.3164H330.453V69.1133H338.656V65.0117H330.453V60.9102H340.023V56.8086ZM324.984 78.6836V55.4414H341.391L343.441 57.4922V64.3281H340.023L342.074 65.6953V72.5312H333.871V80.7344H327.035L324.984 78.6836ZM353.012 56.8086H350.277C346.176 56.8086 344.125 58.8594 344.125 62.9609V71.1641C344.125 75.2656 346.176 77.3164 350.277 77.3164H353.012C357.113 77.3164 359.164 75.2656 359.164 71.1641V62.9609C359.164 58.8594 357.113 56.8086 353.012 56.8086ZM355.062 62.9609V71.1641C355.062 72.5312 354.379 73.2148 353.012 73.2148H350.277C348.91 73.2148 348.227 72.5312 348.227 71.1641V62.9609C348.227 61.5938 348.91 60.9102 350.277 60.9102H353.012C354.379 60.9102 355.062 61.5938 355.062 62.9609ZM351.645 71.8477H353.012C353.467 71.8477 353.695 71.6198 353.695 71.1641V64.3281C352.328 64.3281 351.645 65.0117 351.645 66.3789V71.8477ZM345.15 78.3418C343.555 76.7467 342.758 74.3542 342.758 71.1641V62.9609C342.758 57.9479 345.264 55.4414 350.277 55.4414H353.012C356.202 55.4414 358.594 56.2389 360.189 57.834C361.785 59.429 362.582 61.8216 362.582 65.0117V73.2148C362.582 78.2279 360.076 80.7344 355.062 80.7344H352.328C349.138 80.7344 346.745 79.9368 345.15 78.3418ZM363.266 56.8086V77.3164H367.367V69.1133H369.281L374.025 77.3164H378.756L373.957 69.0039C376.855 68.1289 378.305 66.1146 378.305 62.9609C378.305 58.8594 376.254 56.8086 372.152 56.8086H363.266ZM367.367 60.9102H372.152C373.52 60.9102 374.203 61.5938 374.203 62.9609C374.203 64.3281 373.52 65.0117 372.152 65.0117H367.367V60.9102ZM379.33 57.834C380.925 59.429 381.723 61.8216 381.723 65.0117C381.723 68.8398 380.501 71.1276 378.059 71.875L383.186 80.7344H375.283L373.232 78.6836L370.785 74.4453V80.7344H363.949L361.898 78.6836V55.4414H372.152C375.342 55.4414 377.735 56.2389 379.33 57.834ZM64.3711 94.9609C64.3711 90.8594 62.3203 88.8086 58.2188 88.8086H55.4844C51.3828 88.8086 49.332 90.8594 49.332 94.9609V103.164C49.332 107.266 51.3828 109.316 55.4844 109.316H58.2188C62.3203 109.316 64.3711 107.266 64.3711 103.164V102.48H60.2695V103.164C60.2695 104.531 59.5859 105.215 58.2188 105.215H55.4844C54.1172 105.215 53.4336 104.531 53.4336 103.164V94.9609C53.4336 93.5938 54.1172 92.9102 55.4844 92.9102H58.2188C59.5859 92.9102 60.2695 93.5938 60.2695 94.9609V95.6445H64.3711V94.9609ZM50.3574 110.342C48.7624 108.747 47.9648 106.354 47.9648 103.164V94.9609C47.9648 89.9479 50.4714 87.4414 55.4844 87.4414H58.2188C61.4089 87.4414 63.8014 88.2389 65.3965 89.834C66.9915 91.429 67.7891 93.8216 67.7891 97.0117V99.0625H60.9531L58.9023 97.0117V96.3281H57.5352C57.0794 96.3281 56.8516 96.556 56.8516 97.0117V103.848H58.2188C58.6745 103.848 58.9023 103.62 58.9023 103.164V101.113H65.7383L67.7891 103.164V105.215C67.7891 110.228 65.2826 112.734 60.2695 112.734H57.5352C54.3451 112.734 51.9525 111.937 50.3574 110.342ZM77.3594 88.8086H74.625C70.5234 88.8086 68.4727 90.8594 68.4727 94.9609V103.164C68.4727 107.266 70.5234 109.316 74.625 109.316H77.3594C81.4609 109.316 83.5117 107.266 83.5117 103.164V94.9609C83.5117 90.8594 81.4609 88.8086 77.3594 88.8086ZM79.4102 94.9609V103.164C79.4102 104.531 78.7266 105.215 77.3594 105.215H74.625C73.2578 105.215 72.5742 104.531 72.5742 103.164V94.9609C72.5742 93.5938 73.2578 92.9102 74.625 92.9102H77.3594C78.7266 92.9102 79.4102 93.5938 79.4102 94.9609ZM75.9922 103.848H77.3594C77.8151 103.848 78.043 103.62 78.043 103.164V96.3281C76.6758 96.3281 75.9922 97.0117 75.9922 98.3789V103.848ZM69.498 110.342C67.903 108.747 67.1055 106.354 67.1055 103.164V94.9609C67.1055 89.9479 69.612 87.4414 74.625 87.4414H77.3594C80.5495 87.4414 82.9421 88.2389 84.5371 89.834C86.1322 91.429 86.9297 93.8216 86.9297 97.0117V105.215C86.9297 110.228 84.4232 112.734 79.4102 112.734H76.6758C73.4857 112.734 71.0931 111.937 69.498 110.342ZM91.7148 96.957L96.5 106.076L101.285 96.957V109.316H105.387V88.8086H100.93L96.5 97.2578L92.0703 88.8086H87.6133V109.316H91.7148V96.957ZM96.5 109.029L95.1328 106.418V112.734H88.2969L86.2461 110.684V87.4414H92.8906L94.9414 89.4922L96.9922 93.375L100.109 87.4414H106.754L108.805 89.4922V112.734H101.969L99.918 110.684V108.469L98.5508 111.08L96.5 109.029ZM109.488 88.8086V109.316H113.59V101.113H118.375C122.477 101.113 124.527 99.0625 124.527 94.9609C124.527 90.8594 122.477 88.8086 118.375 88.8086H109.488ZM113.59 92.9102H118.375C119.742 92.9102 120.426 93.5938 120.426 94.9609C120.426 96.3281 119.742 97.0117 118.375 97.0117H113.59V92.9102ZM108.121 110.684V87.4414H118.375C121.565 87.4414 123.958 88.2389 125.553 89.834C127.148 91.429 127.945 93.8216 127.945 97.0117C127.945 102.025 125.439 104.531 120.426 104.531H117.008V112.734H110.172L108.121 110.684ZM139.566 103.164C139.566 104.531 138.883 105.215 137.516 105.215H134.781C133.414 105.215 132.73 104.531 132.73 103.164V88.8086H128.629V103.164C128.629 107.266 130.68 109.316 134.781 109.316H137.516C141.617 109.316 143.668 107.266 143.668 103.164V88.8086H139.566V103.164ZM136.148 103.848H137.516C137.971 103.848 138.199 103.62 138.199 103.164V87.4414H145.035L147.086 89.4922V105.215C147.086 110.228 144.579 112.734 139.566 112.734H136.832C133.642 112.734 131.249 111.937 129.654 110.342C128.059 108.747 127.262 106.354 127.262 103.164V87.4414H134.098L136.148 89.4922V103.848ZM157.34 92.9102H162.809V88.8086H147.77V92.9102H153.238V109.316H157.34V92.9102ZM146.402 94.2773V87.4414H164.176L166.227 89.4922V96.3281H160.758V112.734H153.922L151.871 110.684V96.3281H148.453L146.402 94.2773ZM171.012 109.316V88.8086H166.91V109.316H171.012ZM165.543 110.684V87.4414H172.379L174.43 89.4922V112.734H167.594L165.543 110.684ZM179.215 96.957L185.695 109.316H190.152V88.8086H186.051V101.168L179.57 88.8086H175.113V109.316H179.215V96.957ZM184.875 110.684L182.633 106.418V112.734H175.797L173.746 110.684V87.4414H180.391L182.441 89.4922L184.684 93.7578V87.4414H191.52L193.57 89.4922V112.734H186.926L184.875 110.684ZM203.141 88.8086H200.406C196.305 88.8086 194.254 90.8594 194.254 94.9609V103.164C194.254 107.266 196.305 109.316 200.406 109.316H203.141C207.242 109.316 209.293 107.266 209.293 103.164V97.0117H202.457V101.113H205.191V103.164C205.191 104.531 204.508 105.215 203.141 105.215H200.406C199.039 105.215 198.355 104.531 198.355 103.164V94.9609C198.355 93.5938 199.039 92.9102 200.406 92.9102H203.141C204.508 92.9102 205.191 93.3659 205.191 94.2773H209.293C209.293 90.6315 207.242 88.8086 203.141 88.8086ZM202.457 103.848L201.09 102.48V103.848H202.457ZM209.703 89.7383C211.253 91.2604 212.027 93.6849 212.027 97.0117V104.531C212.027 109.544 209.521 112.051 204.508 112.051H201.773C198.811 112.051 196.587 111.312 195.102 109.836C193.625 108.35 192.887 106.126 192.887 103.164V94.9609C192.887 89.9479 195.393 87.4414 200.406 87.4414H203.141C205.975 87.4414 208.163 88.207 209.703 89.7383ZM224.441 96.957L229.227 106.076L234.012 96.957V109.316H238.113V88.8086H233.656L229.227 97.2578L224.797 88.8086H220.34V109.316H224.441V96.957ZM229.227 109.029L227.859 106.418V112.734H221.023L218.973 110.684V87.4414H225.617L227.668 89.4922L229.719 93.375L232.836 87.4414H239.48L241.531 89.4922V112.734H234.695L232.645 110.684V108.469L231.277 111.08L229.227 109.029ZM253.727 106.582L254.465 109.316H258.703L253.207 88.8086H247.629L242.133 109.316H246.371L247.109 106.582H253.727ZM252.633 102.48H248.203L250.418 94.2227L252.633 102.48ZM253.426 110.684L253.248 110H250.199L249.461 112.734H242.406L240.355 110.684L246.59 87.4414H254.246L256.297 89.4922L262.531 112.734H255.477L253.426 110.684ZM277.762 94.9609C277.762 90.8594 275.711 88.8086 271.609 88.8086H268.875C264.773 88.8086 262.723 90.8594 262.723 94.9609V103.164C262.723 107.266 264.773 109.316 268.875 109.316H271.609C275.711 109.316 277.762 107.266 277.762 103.164V102.48H273.66V103.164C273.66 104.531 272.977 105.215 271.609 105.215H268.875C267.508 105.215 266.824 104.531 266.824 103.164V94.9609C266.824 93.5938 267.508 92.9102 268.875 92.9102H271.609C272.977 92.9102 273.66 93.5938 273.66 94.9609V95.6445H277.762V94.9609ZM263.748 110.342C262.153 108.747 261.355 106.354 261.355 103.164V94.9609C261.355 89.9479 263.862 87.4414 268.875 87.4414H271.609C274.799 87.4414 277.192 88.2389 278.787 89.834C280.382 91.429 281.18 93.8216 281.18 97.0117V99.0625H274.344L272.293 97.0117V96.3281H270.926C270.47 96.3281 270.242 96.556 270.242 97.0117V103.848H271.609C272.065 103.848 272.293 103.62 272.293 103.164V101.113H279.129L281.18 103.164V105.215C281.18 110.228 278.673 112.734 273.66 112.734H270.926C267.736 112.734 265.343 111.937 263.748 110.342ZM285.965 101.113H292.801V109.316H296.902V88.8086H292.801V97.0117H285.965V88.8086H281.863V109.316H285.965V101.113ZM291.434 110.684V104.531H289.383V112.734H282.547L280.496 110.684V87.4414H287.332L289.383 89.4922V95.6445H291.434V87.4414H298.27L300.32 89.4922V112.734H293.484L291.434 110.684ZM305.105 109.316V88.8086H301.004V109.316H305.105ZM299.637 110.684V87.4414H306.473L308.523 89.4922V112.734H301.688L299.637 110.684ZM313.309 96.957L319.789 109.316H324.246V88.8086H320.145V101.168L313.664 88.8086H309.207V109.316H313.309V96.957ZM318.969 110.684L316.727 106.418V112.734H309.891L307.84 110.684V87.4414H314.484L316.535 89.4922L318.777 93.7578V87.4414H325.613L327.664 89.4922V112.734H321.02L318.969 110.684ZM332.449 105.215V101.113H340.652V97.0117H332.449V92.9102H342.02V88.8086H328.348V109.316H342.02V105.215H332.449ZM342.02 96.3281L344.07 97.6953V104.531L345.438 105.898V112.734H329.031L326.98 110.684V87.4414H343.387L345.438 89.4922V96.3281H342.02ZM346.121 88.8086V109.316H350.223V101.113H352.137L356.881 109.316H361.611L356.812 101.004C359.711 100.129 361.16 98.1146 361.16 94.9609C361.16 90.8594 359.109 88.8086 355.008 88.8086H346.121ZM350.223 92.9102H355.008C356.375 92.9102 357.059 93.5938 357.059 94.9609C357.059 96.3281 356.375 97.0117 355.008 97.0117H350.223V92.9102ZM362.186 89.834C363.781 91.429 364.578 93.8216 364.578 97.0117C364.578 100.84 363.357 103.128 360.914 103.875L366.041 112.734H358.139L356.088 110.684L353.641 106.445V112.734H346.805L344.754 110.684V87.4414H355.008C358.198 87.4414 360.59 88.2389 362.186 89.834ZM372.098 94.5645L369.131 88.8086H364.537L370.047 99.541V109.316H374.148V99.5684L379.658 88.8086H375.064L372.098 94.5645ZM368.68 110.684V99.8691L362.295 87.4414H369.979L372.029 89.4922L372.604 90.5996L374.217 87.4414H381.9L383.951 89.4922L377.566 101.947V112.734H370.73L368.68 110.684Z" fill="black"/>
</svg>
