<svg width="229" height="186" viewBox="0 0 229 186" fill="none" xmlns="http://www.w3.org/2000/svg">
<g clip-path="url(#clip0_6_2)">
<path d="M37.7107 136.963C38.813 107.884 22.8752 92.3893 14.7686 88.2768C53.708 76.5668 56.5762 54.8034 53.143 45.3855C71.3312 60.4648 111.611 43.2676 129.478 32.7839C126.612 61.8906 173.525 67.9095 197.34 67.2805C175.294 97.5151 189.739 114.884 199.717 119.789C161.522 119.344 150.756 140.961 150.147 151.826C130.471 134.486 107.409 147.905 98.3382 156.782C83.1537 121.416 51.593 128.834 37.7107 136.963Z" fill="#F7F7F7"/>
<path d="M16.9401 70.5571C27.4695 69.226 47.4467 62.0917 43.1201 44.2025M13.2199 98.1201C19.5926 101.957 31.4012 112.758 27.6534 125.272M53.489 143.294C62.8357 140.987 82.6659 141.051 87.213 159.767M116.7 154.12C122.533 151.089 135.997 147.204 143.19 155.915M159.277 147.751C161.872 139.494 173.462 124.151 199.064 128.84M198.34 99.1404C194.114 94.3624 190.803 81.6643 211.361 69.0977M197.996 52.1791C194.643 56.2098 184.017 62.438 168.336 55.1043M155.384 48.0397C148.862 48.4868 136.204 45.8462 137.747 31.7063M93.4478 35.7669C85.8349 41.1179 67.4538 49.1184 54.8322 38.3121M15.5278 88.0942C23.6344 92.2067 39.5721 107.701 38.4699 136.781C52.3522 128.651 83.9129 121.233 99.0973 156.599C108.169 147.723 131.23 134.304 150.906 151.643C151.515 140.778 162.281 119.161 200.476 119.607C190.498 114.702 176.053 97.3325 198.099 67.0978C174.284 67.7269 127.372 61.708 130.238 32.6013C112.371 43.085 72.0904 60.2822 53.9022 45.2029C57.3354 54.6208 54.4671 76.3841 15.5278 88.0942Z" stroke="black"/>
<path d="M43.0938 90.8906V90.1094H40.75V90.8906C38.6667 91.1354 37.625 92.3073 37.625 94.4062C37.625 96.75 38.7969 97.9219 41.1406 97.9219H42.7031C43.4844 97.9219 43.875 98.3125 43.875 99.0938C43.875 99.875 43.4844 100.266 42.7031 100.266H41.1406C40.3594 100.266 39.9688 100.005 39.9688 99.4844H37.625C37.625 101.323 38.6667 102.365 40.75 102.609V103.391H43.0938V102.609C45.1771 102.365 46.2188 101.193 46.2188 99.0938C46.2188 96.75 45.0469 95.5781 42.7031 95.5781H41.1406C40.3594 95.5781 39.9688 95.1875 39.9688 94.4062C39.9688 93.625 40.3594 93.2344 41.1406 93.2344H42.7031C43.4844 93.2344 43.875 93.4948 43.875 94.0156H46.2188C46.2188 92.1771 45.1771 91.1354 43.0938 90.8906ZM38.5859 98.1328C37.4245 97.4714 36.8438 96.2292 36.8438 94.4062C36.8438 91.849 37.8854 90.4479 39.9688 90.2031V89.3281H43.875V90.2031C44.2865 90.25 44.6589 90.349 44.9922 90.5H45.0469V90.5234C45.6094 90.7943 46.2057 91.2109 46.8359 91.7734C47.7266 92.4297 48.1719 93.8281 48.1719 95.9688H46.0156C46.1406 96.1042 46.3307 96.2422 46.5859 96.3828C47.6432 97.1484 48.1719 98.4427 48.1719 100.266C48.1719 102.823 47.1302 104.224 45.0469 104.469V105.344H41.1406V104.469C40.7292 104.422 40.3568 104.323 40.0234 104.172H39.9688V104.148C39.4062 103.878 38.862 103.565 38.3359 103.211C37.3411 102.346 36.8438 100.844 36.8438 98.7031H39C38.8438 98.5312 38.7057 98.3411 38.5859 98.1328ZM53.6406 90.8906H52.0781C49.7344 90.8906 48.5625 92.0625 48.5625 94.4062C48.5625 95.2917 48.7604 96.0729 49.1562 96.75C48.7604 97.4271 48.5625 98.2083 48.5625 99.0938C48.5625 101.438 49.7344 102.609 52.0781 102.609H53.6406C55.9844 102.609 57.1562 101.438 57.1562 99.0938C57.1562 98.2083 56.9583 97.4271 56.5625 96.75C56.9583 96.0729 57.1562 95.2917 57.1562 94.4062C57.1562 92.0625 55.9844 90.8906 53.6406 90.8906ZM53.6406 97.9219C54.4219 97.9219 54.8125 98.3125 54.8125 99.0938C54.8125 99.875 54.4219 100.266 53.6406 100.266H52.0781C51.2969 100.266 50.9062 99.875 50.9062 99.0938C50.9062 98.3125 51.2969 97.9219 52.0781 97.9219H53.6406ZM54.8125 94.4062C54.8125 95.1875 54.4219 95.5781 53.6406 95.5781H52.0781C51.2969 95.5781 50.9062 95.1875 50.9062 94.4062C50.9062 93.625 51.2969 93.2344 52.0781 93.2344H53.6406C54.4219 93.2344 54.8125 93.625 54.8125 94.4062ZM49.1484 103.195C48.237 102.284 47.7812 100.917 47.7812 99.0938C47.7812 98.0625 47.9375 97.2812 48.25 96.75C47.9375 96.2188 47.7812 95.4375 47.7812 94.4062C47.7812 91.5417 49.2135 90.1094 52.0781 90.1094H53.6406C55.4635 90.1094 56.8307 90.5651 57.7422 91.4766C58.6536 92.388 59.1094 93.7552 59.1094 95.5781C59.1094 96.6094 58.9531 97.3906 58.6406 97.9219C58.9531 98.4531 59.1094 99.2344 59.1094 100.266C59.1094 103.13 57.6771 104.562 54.8125 104.562H53.25C51.4271 104.562 50.0599 104.107 49.1484 103.195ZM61.8438 104.953V100.266H59.5V104.953H61.8438ZM58.7188 105.734V99.4844H62.625L63.7969 100.656V106.906H59.8906L58.7188 105.734ZM69.2656 90.8906H67.7031C65.3594 90.8906 64.1875 92.0625 64.1875 94.4062C64.1875 95.2917 64.3854 96.0729 64.7812 96.75C64.3854 97.4271 64.1875 98.2083 64.1875 99.0938C64.1875 101.438 65.3594 102.609 67.7031 102.609H69.2656C71.6094 102.609 72.7812 101.438 72.7812 99.0938C72.7812 98.2083 72.5833 97.4271 72.1875 96.75C72.5833 96.0729 72.7812 95.2917 72.7812 94.4062C72.7812 92.0625 71.6094 90.8906 69.2656 90.8906ZM69.2656 97.9219C70.0469 97.9219 70.4375 98.3125 70.4375 99.0938C70.4375 99.875 70.0469 100.266 69.2656 100.266H67.7031C66.9219 100.266 66.5312 99.875 66.5312 99.0938C66.5312 98.3125 66.9219 97.9219 67.7031 97.9219H69.2656ZM70.4375 94.4062C70.4375 95.1875 70.0469 95.5781 69.2656 95.5781H67.7031C66.9219 95.5781 66.5312 95.1875 66.5312 94.4062C66.5312 93.625 66.9219 93.2344 67.7031 93.2344H69.2656C70.0469 93.2344 70.4375 93.625 70.4375 94.4062ZM64.7734 103.195C63.862 102.284 63.4062 100.917 63.4062 99.0938C63.4062 98.0625 63.5625 97.2812 63.875 96.75C63.5625 96.2188 63.4062 95.4375 63.4062 94.4062C63.4062 91.5417 64.8385 90.1094 67.7031 90.1094H69.2656C71.0885 90.1094 72.4557 90.5651 73.3672 91.4766C74.2786 92.388 74.7344 93.7552 74.7344 95.5781C74.7344 96.6094 74.5781 97.3906 74.2656 97.9219C74.5781 98.4531 74.7344 99.2344 74.7344 100.266C74.7344 103.13 73.3021 104.562 70.4375 104.562H68.875C67.0521 104.562 65.6849 104.107 64.7734 103.195ZM80.2031 90.8906H78.6406C76.2969 90.8906 75.125 92.0625 75.125 94.4062V99.0938C75.125 101.438 76.2969 102.609 78.6406 102.609H80.2031C82.5469 102.609 83.7188 101.438 83.7188 99.0938V94.4062C83.7188 92.0625 82.5469 90.8906 80.2031 90.8906ZM81.375 94.4062V99.0938C81.375 99.875 80.9844 100.266 80.2031 100.266H78.6406C77.8594 100.266 77.4688 99.875 77.4688 99.0938V94.4062C77.4688 93.625 77.8594 93.2344 78.6406 93.2344H80.2031C80.9844 93.2344 81.375 93.625 81.375 94.4062ZM79.4219 99.4844H80.2031C80.4635 99.4844 80.5938 99.3542 80.5938 99.0938V95.1875C79.8125 95.1875 79.4219 95.5781 79.4219 96.3594V99.4844ZM75.7109 103.195C74.7995 102.284 74.3438 100.917 74.3438 99.0938V94.4062C74.3438 91.5417 75.776 90.1094 78.6406 90.1094H80.2031C82.026 90.1094 83.3932 90.5651 84.3047 91.4766C85.2161 92.388 85.6719 93.7552 85.6719 95.5781V100.266C85.6719 103.13 84.2396 104.562 81.375 104.562H79.8125C77.9896 104.562 76.6224 104.107 75.7109 103.195ZM91.1406 90.8906H89.5781C87.2344 90.8906 86.0625 92.0625 86.0625 94.4062V99.0938C86.0625 101.438 87.2344 102.609 89.5781 102.609H91.1406C93.4844 102.609 94.6562 101.438 94.6562 99.0938V94.4062C94.6562 92.0625 93.4844 90.8906 91.1406 90.8906ZM92.3125 94.4062V99.0938C92.3125 99.875 91.9219 100.266 91.1406 100.266H89.5781C88.7969 100.266 88.4062 99.875 88.4062 99.0938V94.4062C88.4062 93.625 88.7969 93.2344 89.5781 93.2344H91.1406C91.9219 93.2344 92.3125 93.625 92.3125 94.4062ZM90.3594 99.4844H91.1406C91.401 99.4844 91.5312 99.3542 91.5312 99.0938V95.1875C90.75 95.1875 90.3594 95.5781 90.3594 96.3594V99.4844ZM86.6484 103.195C85.737 102.284 85.2812 100.917 85.2812 99.0938V94.4062C85.2812 91.5417 86.7135 90.1094 89.5781 90.1094H91.1406C92.9635 90.1094 94.3307 90.5651 95.2422 91.4766C96.1536 92.388 96.6094 93.7552 96.6094 95.5781V100.266C96.6094 103.13 95.1771 104.562 92.3125 104.562H90.75C88.9271 104.562 87.5599 104.107 86.6484 103.195ZM103.312 102.609V90.8906H100.969V102.609H103.312ZM100.188 103.391V90.1094H104.094L105.266 91.2812V104.562H101.359L100.188 103.391ZM108 95.5469L111.703 102.609H114.25V90.8906H111.906V97.9531L108.203 90.8906H105.656V102.609H108V95.5469ZM111.234 103.391L109.953 100.953V104.562H106.047L104.875 103.391V90.1094H108.672L109.844 91.2812L111.125 93.7188V90.1094H115.031L116.203 91.2812V104.562H112.406L111.234 103.391ZM120.562 90.8906V102.609H122.906V97.9219H125.641C127.984 97.9219 129.156 96.75 129.156 94.4062C129.156 92.0625 127.984 90.8906 125.641 90.8906H120.562ZM122.906 93.2344H125.641C126.422 93.2344 126.812 93.625 126.812 94.4062C126.812 95.1875 126.422 95.5781 125.641 95.5781H122.906V93.2344ZM119.781 103.391V90.1094H125.641C127.464 90.1094 128.831 90.5651 129.742 91.4766C130.654 92.388 131.109 93.7552 131.109 95.5781C131.109 98.4427 129.677 99.875 126.812 99.875H124.859V104.562H120.953L119.781 103.391ZM131.5 90.8906V102.609H133.844V97.9219H134.938L137.648 102.609H140.352L137.609 97.8594C139.266 97.3594 140.094 96.2083 140.094 94.4062C140.094 92.0625 138.922 90.8906 136.578 90.8906H131.5ZM133.844 93.2344H136.578C137.359 93.2344 137.75 93.625 137.75 94.4062C137.75 95.1875 137.359 95.5781 136.578 95.5781H133.844V93.2344ZM140.68 91.4766C141.591 92.388 142.047 93.7552 142.047 95.5781C142.047 97.7656 141.349 99.0729 139.953 99.5L142.883 104.562H138.367L137.195 103.391L135.797 100.969V104.562H131.891L130.719 103.391V90.1094H136.578C138.401 90.1094 139.768 90.5651 140.68 91.4766ZM144.781 102.609V90.8906H142.438V102.609H144.781ZM141.656 103.391V90.1094H145.562L146.734 91.2812V104.562H142.828L141.656 103.391ZM151.914 93.2344L147.102 102.609H155.328V100.266H150.93L155.742 90.8906H147.516V93.2344H151.914ZM145.82 103.391L150.031 95.1875H147.906L146.734 94.0156V90.1094H157.023L158.195 91.2812L153.984 99.4844H156.109L157.281 100.656V104.562H146.992L145.82 103.391ZM160.406 100.266V97.9219H165.094V95.5781H160.406V93.2344H165.875V90.8906H158.062V102.609H165.875V100.266H160.406ZM165.875 95.1875L167.047 95.9688V99.875L167.828 100.656V104.562H158.453L157.281 103.391V90.1094H166.656L167.828 91.2812V95.1875H165.875ZM173.297 90.8906H171.734C169.391 90.8906 168.219 92.0625 168.219 94.4062C168.219 96.75 169.391 97.9219 171.734 97.9219H173.297C174.078 97.9219 174.469 98.3125 174.469 99.0938C174.469 99.875 174.078 100.266 173.297 100.266H171.734C170.953 100.266 170.562 100.005 170.562 99.4844H168.219C168.219 101.568 169.391 102.609 171.734 102.609H173.297C175.641 102.609 176.812 101.438 176.812 99.0938C176.812 96.75 175.641 95.5781 173.297 95.5781H171.734C170.953 95.5781 170.562 95.1875 170.562 94.4062C170.562 93.625 170.953 93.2344 171.734 93.2344H173.297C174.078 93.2344 174.469 93.4948 174.469 94.0156H176.812C176.812 91.9323 175.641 90.8906 173.297 90.8906ZM169.18 98.1328C168.018 97.4714 167.438 96.2292 167.438 94.4062C167.438 91.5417 168.87 90.1094 171.734 90.1094H173.297C175.042 90.1094 176.388 90.5781 177.336 91.5156C178.289 92.4479 178.766 93.9323 178.766 95.9688H176.609C177.526 96.4896 178.115 97.1406 178.375 97.9219C178.635 98.7031 178.766 99.4844 178.766 100.266C178.766 103.13 177.333 104.562 174.469 104.562H172.906C171.161 104.562 169.812 104.094 168.859 103.156C167.911 102.224 167.438 100.74 167.438 98.7031H169.594C169.438 98.5312 169.299 98.3411 169.18 98.1328Z" fill="black"/>
</g>
<defs>
<clipPath id="clip0_6_2">
<rect width="200" height="138" fill="white" transform="translate(0 52) rotate(-14.9282)"/>
</clipPath>
</defs>
</svg>
