<svg width="192" height="138" viewBox="0 0 192 138" fill="none" xmlns="http://www.w3.org/2000/svg">
<g clip-path="url(#clip0_6_5)">
<path fill-rule="evenodd" clip-rule="evenodd" d="M16.4145 11.4173C32.6632 26.3094 52.228 55.7957 0.497437 54.6043C22.2176 61.2231 54.5161 84.5871 9.94821 125.094C29.6788 114.669 62.4746 102.06 35.8135 135.022C53.5544 121.453 92.2197 100.472 104.953 125.094C103.627 115 112.713 103.45 159.668 138C147.067 121.785 135.793 91.0403 191.503 97.7914C170.445 88.1942 139.175 60.164 182.549 24.8201C162.819 33.9209 130.321 44.6763 158.176 14.8921C143.42 26.1439 116.891 38.918 128.829 0C117.389 15.3885 88.141 38.6201 62.6736 8.43885C68.8084 22.1726 68.1451 41.9957 16.4145 11.4173ZM14.4249 57.5827C47.8508 56.3914 40.9534 35.2446 33.3265 24.8201C63.9669 39.5137 68.9741 26.3094 67.6477 17.8705C87.1509 37.3343 108.949 26.1009 119.876 15.9414C120.988 14.9075 121.987 13.8847 122.86 12.9065C120.075 34.7482 135.627 31.9353 143.751 27.7986C137.384 43.6835 155.026 40.0431 164.643 36.2374C143.154 63.6389 163.648 85.7122 176.58 93.3237C142.359 92.9266 143.42 113.676 148.228 124.101C147.029 123.226 145.859 122.4 144.719 121.619C143.536 120.81 142.385 120.049 141.264 119.335C115.455 102.906 105.639 111.284 103.959 118.144C90.0311 100.273 62.0104 112.021 49.741 120.129C54.1182 103.053 35.3161 108.712 25.3679 113.676C48.4477 84.6863 27.6891 64.2015 14.4249 57.5827Z" fill="#6A6A6A"/>
<path d="M33.3264 24.8201C40.9534 35.2446 47.8508 56.3914 14.4249 57.5827C33.1606 60.3956 64.2653 58.7741 38.7979 29.7842C51.2332 37.8921 74.6114 47.7539 68.6425 22.3381C78.7565 32.6348 103.163 45.7708 119.876 15.9414C108.949 26.1009 87.1509 37.3343 67.6477 17.8705C68.9741 26.3093 63.9668 39.5137 33.3264 24.8201Z" fill="#DDDDDD"/>
<path d="M148.228 124.101C143.42 113.676 142.359 92.9266 176.58 93.3237C159.484 90.0144 129.178 91.0403 144.719 121.619C145.859 122.4 147.029 123.226 148.228 124.101Z" fill="#DDDDDD"/>
<path d="M103.959 118.144C105.639 111.284 115.455 102.906 141.264 119.335C115.001 90.5038 105.451 106.528 103.959 118.144Z" fill="#DDDDDD"/>
<path d="M14.4249 57.5827C27.6891 64.2015 48.4477 84.6863 25.3679 113.676C35.3161 108.712 54.1181 103.053 49.7409 120.129C62.0103 112.021 90.0311 100.273 103.959 118.144C105.451 106.528 115.001 90.5038 141.264 119.335C142.385 120.049 143.536 120.81 144.719 121.619C129.178 91.0403 159.484 90.0144 176.58 93.3237C163.648 85.7122 143.154 63.6389 164.642 36.2374C155.026 40.0431 137.384 43.6835 143.751 27.7986C135.627 31.9353 120.075 34.7482 122.86 12.9065C121.987 13.8847 120.988 14.9075 119.876 15.9414C103.163 45.7708 78.7565 32.6348 68.6425 22.3381C74.6114 47.754 51.2332 37.8921 38.7979 29.7842C64.2653 58.7741 33.1606 60.3957 14.4249 57.5827Z" fill="#F7F7F7"/>
<path d="M73.5508 53.2578C73.5508 52.2812 74.0391 51.793 75.0156 51.793H76.9688C77.9453 51.793 78.4336 52.2812 78.4336 53.2578C78.4336 54.2344 77.9453 54.7227 76.9688 54.7227H75.5039V57.6523H76.9688C77.9453 57.6523 78.4336 58.1406 78.4336 59.1172C78.4336 60.0938 77.9453 60.582 76.9688 60.582H75.0156C74.0391 60.582 73.5508 60.0938 73.5508 59.1172V58.6289H70.6211V59.1172C70.6211 62.0469 72.0859 63.5117 75.0156 63.5117H76.9688C79.8984 63.5117 81.3633 62.0469 81.3633 59.1172C81.3633 58.0104 81.1159 57.0339 80.6211 56.1875C81.1159 55.3411 81.3633 54.3646 81.3633 53.2578C81.3633 50.3281 79.8984 48.8633 76.9688 48.8633H75.0156C72.0859 48.8633 70.6211 50.3281 70.6211 53.2578V53.7461H73.5508V53.2578ZM82.0957 49.5957C83.235 50.735 83.8047 52.444 83.8047 54.7227C83.8047 56.0117 83.6094 56.9883 83.2188 57.6523C83.6094 58.3164 83.8047 59.293 83.8047 60.582C83.8047 64.1628 82.0143 65.9531 78.4336 65.9531H76.4805C74.2018 65.9531 72.4928 65.3835 71.3535 64.2441C70.2142 63.1048 69.6445 61.3958 69.6445 59.1172V57.6523H74.5273V56.1875H71.1094L69.6445 54.7227V53.2578C69.6445 49.6771 71.4349 47.8867 75.0156 47.8867H76.9688C79.2474 47.8867 80.9564 48.4564 82.0957 49.5957ZM88.6875 63.5117H90.6406C93.5703 63.5117 95.0352 62.0469 95.0352 59.1172V58.1406C95.0352 55.2109 93.5703 53.7461 90.6406 53.7461H88.6875C88.362 53.7461 87.8737 53.7884 87.2227 53.873V51.793H95.0352V48.8633H84.293V57.6523H87.2227C87.2227 57.0013 87.7109 56.6758 88.6875 56.6758H90.6406C91.6172 56.6758 92.1055 57.1641 92.1055 58.1406V59.1172C92.1055 60.0938 91.6172 60.582 90.6406 60.582H88.6875C87.7109 60.582 87.2227 60.2565 87.2227 59.6055H84.293C84.293 62.2096 85.7578 63.5117 88.6875 63.5117ZM91.1289 59.1172H90.1523C89.9245 59.1172 89.7747 59.2799 89.7031 59.6055H90.6406C90.9661 59.6055 91.1289 59.4427 91.1289 59.1172ZM97.4766 49.3516V54.2344H94.7812C96.5781 55.5365 97.4766 57.3268 97.4766 59.6055V60.582C97.4766 64.1628 95.6862 65.9531 92.1055 65.9531H90.1523C87.9714 65.9531 86.2852 65.3672 85.0938 64.1953C83.9089 63.0299 83.3164 61.1745 83.3164 58.6289V47.8867H96.0117L97.4766 49.3516ZM104.312 48.8633H102.359C99.4297 48.8633 97.9648 50.3281 97.9648 53.2578V59.1172C97.9648 62.0469 99.4297 63.5117 102.359 63.5117H104.312C107.242 63.5117 108.707 62.0469 108.707 59.1172V53.2578C108.707 50.3281 107.242 48.8633 104.312 48.8633ZM105.777 53.2578V59.1172C105.777 60.0938 105.289 60.582 104.312 60.582H102.359C101.383 60.582 100.895 60.0938 100.895 59.1172V53.2578C100.895 52.2812 101.383 51.793 102.359 51.793H104.312C105.289 51.793 105.777 52.2812 105.777 53.2578ZM103.336 59.6055H104.312C104.638 59.6055 104.801 59.4427 104.801 59.1172V54.2344C103.824 54.2344 103.336 54.7227 103.336 55.6992V59.6055ZM98.6973 64.2441C97.5579 63.1048 96.9883 61.3958 96.9883 59.1172V53.2578C96.9883 49.6771 98.7786 47.8867 102.359 47.8867H104.312C106.591 47.8867 108.3 48.4564 109.439 49.5957C110.579 50.735 111.148 52.444 111.148 54.7227V60.582C111.148 64.1628 109.358 65.9531 105.777 65.9531H103.824C101.546 65.9531 99.8366 65.3835 98.6973 64.2441ZM117.496 54.7227V51.793H114.566V54.7227H111.637V57.6523H114.566V60.582H117.496V57.6523H120.426V54.7227H117.496ZM110.66 58.6289V53.7461H113.59V50.8164H118.473L119.938 52.2812V53.7461H121.402L122.867 55.2109V60.0938H119.938V63.0234H115.055L113.59 61.5586V60.0938H112.125L110.66 58.6289ZM52.5547 80.6523H57.4375V86.5117H60.3672V71.8633H57.4375V77.7227H52.5547V71.8633H49.625V86.5117H52.5547V80.6523ZM56.4609 87.4883V83.0938H54.9961V88.9531H50.1133L48.6484 87.4883V70.8867H53.5312L54.9961 72.3516V76.7461H56.4609V70.8867H61.3438L62.8086 72.3516V88.9531H57.9258L56.4609 87.4883ZM71.5195 84.5586L72.0469 86.5117H75.0742L71.1484 71.8633H67.1641L63.2383 86.5117H66.2656L66.793 84.5586H71.5195ZM70.7383 81.6289H67.5742L69.1562 75.7305L70.7383 81.6289ZM71.3047 87.4883L71.1777 87H69L68.4727 88.9531H63.4336L61.9688 87.4883L66.4219 70.8867H71.8906L73.3555 72.3516L77.8086 88.9531H72.7695L71.3047 87.4883ZM88.6875 76.2578C88.6875 73.3281 87.2227 71.8633 84.293 71.8633H82.3398C79.4102 71.8633 77.9453 73.3281 77.9453 76.2578V82.1172C77.9453 85.0469 79.4102 86.5117 82.3398 86.5117H84.293C87.2227 86.5117 88.6875 85.0469 88.6875 82.1172V81.6289H85.7578V82.1172C85.7578 83.0938 85.2695 83.582 84.293 83.582H82.3398C81.3633 83.582 80.875 83.0938 80.875 82.1172V76.2578C80.875 75.2812 81.3633 74.793 82.3398 74.793H84.293C85.2695 74.793 85.7578 75.2812 85.7578 76.2578V76.7461H88.6875V76.2578ZM78.6777 87.2441C77.5384 86.1048 76.9688 84.3958 76.9688 82.1172V76.2578C76.9688 72.6771 78.7591 70.8867 82.3398 70.8867H84.293C86.5716 70.8867 88.2806 71.4564 89.4199 72.5957C90.5592 73.735 91.1289 75.444 91.1289 77.7227V79.1875H86.2461L84.7812 77.7227V77.2344H83.8047C83.4792 77.2344 83.3164 77.3971 83.3164 77.7227V82.6055H84.293C84.6185 82.6055 84.7812 82.4427 84.7812 82.1172V80.6523H89.6641L91.1289 82.1172V83.582C91.1289 87.1628 89.3385 88.9531 85.7578 88.9531H83.8047C81.526 88.9531 79.8171 88.3835 78.6777 87.2441ZM96.9883 72.8887L98.0137 70.8867H103.502L104.967 72.3516L100.709 80.6523L104.967 88.9531H99.4785L98.0137 87.4883L96.9883 85.4863V88.9531H92.1055L90.6406 87.4883V70.8867H95.5234L96.9883 72.3516V72.8887ZM94.5469 80.6523H95.6113L98.6191 86.5117H101.9L98.1504 79.1875L101.9 71.8633H98.6191L95.6113 77.7227H94.5469V71.8633H91.6172V86.5117H94.5469V80.6523ZM107.242 83.582V80.6523H113.102V77.7227H107.242V74.793H114.078V71.8633H104.312V86.5117H114.078V83.582H107.242ZM114.078 77.2344L115.543 78.2109V83.0938L116.52 84.0703V88.9531H104.801L103.336 87.4883V70.8867H115.055L116.52 72.3516V77.2344H114.078ZM117.008 71.8633V86.5117H119.938V80.6523H121.305L124.693 86.5117H128.072L124.645 80.5742C126.715 79.9492 127.75 78.5104 127.75 76.2578C127.75 73.3281 126.285 71.8633 123.355 71.8633H117.008ZM119.938 74.793H123.355C124.332 74.793 124.82 75.2812 124.82 76.2578C124.82 77.2344 124.332 77.7227 123.355 77.7227H119.938V74.793ZM128.482 72.5957C129.622 73.735 130.191 75.444 130.191 77.7227C130.191 80.457 129.319 82.0911 127.574 82.625L131.236 88.9531H125.592L124.127 87.4883L122.379 84.4609V88.9531H117.496L116.031 87.4883V70.8867H123.355C125.634 70.8867 127.343 71.4564 128.482 72.5957ZM137.027 71.8633H135.074C132.145 71.8633 130.68 73.3281 130.68 76.2578C130.68 79.1875 132.145 80.6523 135.074 80.6523H137.027C138.004 80.6523 138.492 81.1406 138.492 82.1172C138.492 83.0938 138.004 83.582 137.027 83.582H135.074C134.098 83.582 133.609 83.2565 133.609 82.6055H130.68C130.68 85.2096 132.145 86.5117 135.074 86.5117H137.027C139.957 86.5117 141.422 85.0469 141.422 82.1172C141.422 79.1875 139.957 77.7227 137.027 77.7227H135.074C134.098 77.7227 133.609 77.2344 133.609 76.2578C133.609 75.2812 134.098 74.793 135.074 74.793H137.027C138.004 74.793 138.492 75.1185 138.492 75.7695H141.422C141.422 73.1654 139.957 71.8633 137.027 71.8633ZM131.881 80.916C130.429 80.0892 129.703 78.5365 129.703 76.2578C129.703 72.6771 131.493 70.8867 135.074 70.8867H137.027C139.208 70.8867 140.891 71.4727 142.076 72.6445C143.268 73.8099 143.863 75.6654 143.863 78.2109H141.168C142.314 78.862 143.049 79.6758 143.375 80.6523C143.701 81.6289 143.863 82.6055 143.863 83.582C143.863 87.1628 142.073 88.9531 138.492 88.9531H136.539C134.358 88.9531 132.672 88.3672 131.48 87.1953C130.296 86.0299 129.703 84.1745 129.703 81.6289H132.398C132.203 81.4141 132.031 81.1764 131.881 80.916Z" fill="black"/>
</g>
<defs>
<clipPath id="clip0_6_5">
<rect width="192" height="138" fill="white"/>
</clipPath>
</defs>
</svg>
