<svg width="293" height="211" viewBox="0 0 293 211" fill="none" xmlns="http://www.w3.org/2000/svg">
<g clip-path="url(#clip0_6_5)">
<path fill-rule="evenodd" clip-rule="evenodd" d="M25.0492 17.4568C49.8454 40.2266 79.7021 85.3108 0.759094 83.4892C33.905 93.6092 83.1938 129.332 15.1814 191.266C45.291 175.327 95.3389 156.049 54.6529 206.446C81.7262 185.7 140.731 153.62 160.163 191.266C158.14 175.833 172.005 158.174 243.661 211C224.43 186.207 207.225 139.199 292.241 149.522C260.107 134.848 212.387 91.9899 278.578 37.9496C248.469 51.8646 198.876 68.3094 241.383 22.7698C218.865 39.9736 178.381 59.505 196.598 0C179.14 23.5288 134.507 59.0496 95.6425 12.9029C105.004 33.9016 103.992 64.2108 25.0492 17.4568ZM22.013 88.0432C73.0223 86.2216 62.4966 53.8885 50.8575 37.9496C97.6161 60.4158 105.257 40.2266 103.233 27.3237C132.996 57.0835 166.26 39.9078 182.935 24.3741C184.633 22.7933 186.157 21.2295 187.49 19.7338C183.239 53.1295 206.972 48.8286 219.37 42.5036C209.654 66.7914 236.576 61.2254 251.251 55.4065C218.46 97.3029 249.733 131.053 269.469 142.691C217.245 142.083 218.865 173.809 226.202 189.748C224.373 188.411 222.587 187.148 220.848 185.953C219.043 184.716 217.286 183.553 215.575 182.462C176.189 157.342 161.209 170.151 158.645 180.64C137.391 153.317 94.6304 171.279 75.9068 183.676C82.5866 157.567 53.8938 166.219 38.7125 173.809C73.9332 129.484 42.2547 98.1631 22.013 88.0432Z" fill="#6A6A6A"/>
<path d="M50.8575 37.9496C62.4966 53.8885 73.0223 86.2216 22.0129 88.0432C50.6044 92.3441 98.0715 89.8648 59.2072 45.5396C78.1839 57.9365 113.86 73.0151 104.751 34.1547C120.186 49.8982 157.431 69.9829 182.935 24.3741C166.26 39.9078 132.996 57.0835 103.233 27.3237C105.257 40.2266 97.616 60.4158 50.8575 37.9496Z" fill="#DDDDDD"/>
<path d="M226.202 189.748C218.865 173.809 217.245 142.083 269.469 142.691C243.38 137.631 197.131 139.199 220.848 185.953C222.587 187.148 224.373 188.411 226.202 189.748Z" fill="#DDDDDD"/>
<path d="M158.645 180.64C161.209 170.151 176.189 157.342 215.575 182.462C175.496 138.379 160.922 162.88 158.645 180.64Z" fill="#DDDDDD"/>
<path d="M22.0129 88.0432C42.2547 98.1631 73.9331 129.484 38.7124 173.809C53.8938 166.219 82.5865 157.567 75.9067 183.676C94.6303 171.279 137.391 153.317 158.645 180.64C160.922 162.88 175.496 138.379 215.575 182.462C217.286 183.553 219.043 184.716 220.848 185.953C197.131 139.199 243.38 137.631 269.469 142.691C249.733 131.053 218.46 97.3029 251.251 55.4065C236.575 61.2254 209.654 66.7914 219.37 42.5036C206.972 48.8286 183.239 53.1295 187.49 19.7338C186.157 21.2295 184.632 22.7933 182.935 24.3741C157.431 69.9829 120.186 49.8982 104.751 34.1547C113.86 73.0151 78.1839 57.9365 59.2072 45.5396C98.0715 89.8647 50.6044 92.3441 22.0129 88.0432Z" fill="#F7F7F7"/>
<path d="M80.1367 88.957L84.9219 98.0762L89.707 88.957V101.316H93.8086V80.8086H89.3516L84.9219 89.2578L80.4922 80.8086H76.0352V101.316H80.1367V88.957ZM84.9219 101.029L83.5547 98.418V104.734H76.7188L74.668 102.684V79.4414H81.3125L83.3633 81.4922L85.4141 85.375L88.5312 79.4414H95.1758L97.2266 81.4922V104.734H90.3906L88.3398 102.684V100.469L86.9727 103.08L84.9219 101.029ZM106.797 80.8086H104.062C99.9609 80.8086 97.9102 82.8594 97.9102 86.9609V95.1641C97.9102 99.2656 99.9609 101.316 104.062 101.316H106.797C110.898 101.316 112.949 99.2656 112.949 95.1641V86.9609C112.949 82.8594 110.898 80.8086 106.797 80.8086ZM108.848 86.9609V95.1641C108.848 96.5312 108.164 97.2148 106.797 97.2148H104.062C102.695 97.2148 102.012 96.5312 102.012 95.1641V86.9609C102.012 85.5938 102.695 84.9102 104.062 84.9102H106.797C108.164 84.9102 108.848 85.5938 108.848 86.9609ZM105.43 95.8477H106.797C107.253 95.8477 107.48 95.6198 107.48 95.1641V88.3281C106.113 88.3281 105.43 89.0117 105.43 90.3789V95.8477ZM98.9355 102.342C97.3405 100.747 96.543 98.3542 96.543 95.1641V86.9609C96.543 81.9479 99.0495 79.4414 104.062 79.4414H106.797C109.987 79.4414 112.38 80.2389 113.975 81.834C115.57 83.429 116.367 85.8216 116.367 89.0117V97.2148C116.367 102.228 113.861 104.734 108.848 104.734H106.113C102.923 104.734 100.531 103.937 98.9355 102.342ZM121.152 88.957L127.633 101.316H132.09V80.8086H127.988V93.168L121.508 80.8086H117.051V101.316H121.152V88.957ZM126.812 102.684L124.57 98.418V104.734H117.734L115.684 102.684V79.4414H122.328L124.379 81.4922L126.621 85.7578V79.4414H133.457L135.508 81.4922V104.734H128.863L126.812 102.684ZM145.762 84.9102H151.23V80.8086H136.191V84.9102H141.66V101.316H145.762V84.9102ZM134.824 86.2773V79.4414H152.598L154.648 81.4922V88.3281H149.18V104.734H142.344L140.293 102.684V88.3281H136.875L134.824 86.2773ZM159.434 93.1133H166.27V101.316H170.371V80.8086H166.27V89.0117H159.434V80.8086H155.332V101.316H159.434V93.1133ZM164.902 102.684V96.5312H162.852V104.734H156.016L153.965 102.684V79.4414H160.801L162.852 81.4922V87.6445H164.902V79.4414H171.738L173.789 81.4922V104.734H166.953L164.902 102.684ZM190.305 80.8086H187.57C183.469 80.8086 181.418 82.8594 181.418 86.9609V95.1641C181.418 99.2656 183.469 101.316 187.57 101.316H190.305C194.406 101.316 196.457 99.2656 196.457 95.1641V86.9609C196.457 82.8594 194.406 80.8086 190.305 80.8086ZM192.355 86.9609V95.1641C192.355 96.5312 191.672 97.2148 190.305 97.2148H187.57C186.203 97.2148 185.52 96.5312 185.52 95.1641V86.9609C185.52 85.5938 186.203 84.9102 187.57 84.9102H190.305C191.672 84.9102 192.355 85.5938 192.355 86.9609ZM188.938 95.8477H190.305C190.76 95.8477 190.988 95.6198 190.988 95.1641V88.3281C189.621 88.3281 188.938 89.0117 188.938 90.3789V95.8477ZM182.443 102.342C180.848 100.747 180.051 98.3542 180.051 95.1641V86.9609C180.051 81.9479 182.557 79.4414 187.57 79.4414H190.305C193.495 79.4414 195.887 80.2389 197.482 81.834C199.077 83.429 199.875 85.8216 199.875 89.0117V97.2148C199.875 102.228 197.368 104.734 192.355 104.734H189.621C186.431 104.734 184.038 103.937 182.443 102.342ZM214.23 80.8086H200.559V101.316H204.66V93.1133H212.863V89.0117H204.66V84.9102H214.23V80.8086ZM199.191 102.684V79.4414H215.598L217.648 81.4922V88.3281H214.23L216.281 89.6953V96.5312H208.078V104.734H201.242L199.191 102.684ZM89.7617 125.113H96.5977V133.316H100.699V112.809H96.5977V121.012H89.7617V112.809H85.6602V133.316H89.7617V125.113ZM95.2305 134.684V128.531H93.1797V136.734H86.3438L84.293 134.684V111.441H91.1289L93.1797 113.492V119.645H95.2305V111.441H102.066L104.117 113.492V136.734H97.2812L95.2305 134.684ZM116.312 130.582L117.051 133.316H121.289L115.793 112.809H110.215L104.719 133.316H108.957L109.695 130.582H116.312ZM115.219 126.48H110.789L113.004 118.223L115.219 126.48ZM116.012 134.684L115.834 134H112.785L112.047 136.734H104.992L102.941 134.684L109.176 111.441H116.832L118.883 113.492L125.117 136.734H118.062L116.012 134.684ZM140.348 118.961C140.348 114.859 138.297 112.809 134.195 112.809H131.461C127.359 112.809 125.309 114.859 125.309 118.961V127.164C125.309 131.266 127.359 133.316 131.461 133.316H134.195C138.297 133.316 140.348 131.266 140.348 127.164V126.48H136.246V127.164C136.246 128.531 135.562 129.215 134.195 129.215H131.461C130.094 129.215 129.41 128.531 129.41 127.164V118.961C129.41 117.594 130.094 116.91 131.461 116.91H134.195C135.562 116.91 136.246 117.594 136.246 118.961V119.645H140.348V118.961ZM126.334 134.342C124.739 132.747 123.941 130.354 123.941 127.164V118.961C123.941 113.948 126.448 111.441 131.461 111.441H134.195C137.385 111.441 139.778 112.239 141.373 113.834C142.968 115.429 143.766 117.822 143.766 121.012V123.062H136.93L134.879 121.012V120.328H133.512C133.056 120.328 132.828 120.556 132.828 121.012V127.848H134.195C134.651 127.848 134.879 127.62 134.879 127.164V125.113H141.715L143.766 127.164V129.215C143.766 134.228 141.259 136.734 136.246 136.734H133.512C130.322 136.734 127.929 135.937 126.334 134.342ZM151.969 114.244L153.404 111.441H161.088L163.139 113.492L157.178 125.113L163.139 136.734H155.455L153.404 134.684L151.969 131.881V136.734H145.133L143.082 134.684V111.441H149.918L151.969 113.492V114.244ZM148.551 125.113H150.041L154.252 133.316H158.846L153.596 123.062L158.846 112.809H154.252L150.041 121.012H148.551V112.809H144.449V133.316H148.551V125.113ZM166.324 133.316V112.809H162.223V133.316H166.324ZM160.855 134.684V111.441H167.691L169.742 113.492V136.734H162.906L160.855 134.684ZM174.527 120.957L181.008 133.316H185.465V112.809H181.363V125.168L174.883 112.809H170.426V133.316H174.527V120.957ZM180.188 134.684L177.945 130.418V136.734H171.109L169.059 134.684V111.441H175.703L177.754 113.492L179.996 117.758V111.441H186.832L188.883 113.492V136.734H182.238L180.188 134.684ZM198.453 112.809H195.719C191.617 112.809 189.566 114.859 189.566 118.961V127.164C189.566 131.266 191.617 133.316 195.719 133.316H198.453C202.555 133.316 204.605 131.266 204.605 127.164V121.012H197.77V125.113H200.504V127.164C200.504 128.531 199.82 129.215 198.453 129.215H195.719C194.352 129.215 193.668 128.531 193.668 127.164V118.961C193.668 117.594 194.352 116.91 195.719 116.91H198.453C199.82 116.91 200.504 117.366 200.504 118.277H204.605C204.605 114.632 202.555 112.809 198.453 112.809ZM197.77 127.848L196.402 126.48V127.848H197.77ZM205.016 113.738C206.565 115.26 207.34 117.685 207.34 121.012V128.531C207.34 133.544 204.833 136.051 199.82 136.051H197.086C194.124 136.051 191.9 135.312 190.414 133.836C188.938 132.35 188.199 130.126 188.199 127.164V118.961C188.199 113.948 190.706 111.441 195.719 111.441H198.453C201.288 111.441 203.475 112.207 205.016 113.738Z" fill="black"/>
</g>
<defs>
<clipPath id="clip0_6_5">
<rect width="293" height="211" fill="white"/>
</clipPath>
</defs>
</svg>
