<svg width="272" height="216" viewBox="0 0 272 216" fill="none" xmlns="http://www.w3.org/2000/svg">
<g clip-path="url(#clip0_6_2)">
<path d="M41.564 157.292C44.2066 122.334 25.717 102.962 16.1419 97.6457C63.5583 85.305 67.9963 59.2346 64.2884 47.742C85.5067 66.7156 134.786 47.8296 156.774 36.0147C152.006 70.9254 208.221 80.2872 236.925 80.6041C209.011 116.008 225.619 137.569 237.412 143.924C191.441 141.665 177.5 167.203 176.276 180.256C153.368 158.494 124.993 173.608 113.669 183.884C96.985 140.625 58.6473 148.131 41.564 157.292Z" fill="#F7F7F7"/>
<path d="M19.5581 76.4118C32.2967 75.2843 56.6739 67.5967 52.2735 45.8657M13.8318 109.426C21.3316 114.332 35.0617 127.868 29.9829 142.763M60.2762 165.625C71.6349 163.269 95.5095 164.241 100.138 186.977M135.899 181.509C143.059 178.123 159.447 174.053 167.714 184.864M187.453 175.762C190.951 165.939 205.602 147.991 236.216 154.79M236.688 119.004C231.816 113.061 228.403 97.6252 253.726 83.4242M238.398 62.4539C234.178 67.1551 221.102 74.1736 202.553 64.6377M187.277 55.5488C179.403 55.7929 164.281 52.043 166.779 35.0904M113.254 37.9806C103.846 44.079 81.3511 52.8814 66.6424 39.3029M17.0643 97.4601C26.6394 102.777 45.129 122.149 42.4864 157.106C59.5697 147.945 97.9074 140.439 114.591 183.699C125.915 173.422 154.29 158.308 177.198 180.07C178.423 167.018 192.363 141.479 238.334 143.738C226.542 137.383 209.934 115.822 237.847 80.4185C209.143 80.1015 152.928 70.7398 157.696 35.829C135.708 47.6439 86.4291 66.5299 65.2108 47.5564C68.9187 59.0489 64.4806 85.1193 17.0643 97.4601Z" stroke="black"/>
<path d="M79.4219 120.425L80.4766 124.331L86.5313 124.331L78.6797 95.0344L70.7109 95.0344L62.8594 124.331L68.9141 124.331L69.9688 120.425L79.4219 120.425ZM77.8594 114.566L71.5313 114.566L74.6953 102.769L77.8594 114.566ZM78.9922 126.284L78.7383 125.308L74.3828 125.308L73.3281 129.214L63.25 129.214L60.3203 126.284L69.2266 93.0813L80.1641 93.0813L83.0938 96.011L92 129.214L81.9219 129.214L78.9922 126.284ZM92.2734 95.0344L92.2734 124.331L104.969 124.331C110.828 124.331 113.758 121.402 113.758 115.542C113.758 113.329 113.263 111.376 112.273 109.683C113.263 107.99 113.758 106.037 113.758 103.823C113.758 97.9641 110.828 95.0344 104.969 95.0344L92.2734 95.0344ZM98.1328 106.753L98.1328 100.894L104.969 100.894C106.922 100.894 107.898 101.87 107.898 103.823C107.898 105.777 106.922 106.753 104.969 106.753L98.1328 106.753ZM98.1328 112.613L104.969 112.613C106.922 112.613 107.898 113.589 107.898 115.542C107.898 117.495 106.922 118.472 104.969 118.472L98.1328 118.472L98.1328 112.613ZM90.3203 126.284L90.3203 93.0813L104.969 93.0813C109.526 93.0813 112.944 94.2206 115.223 96.4993C117.501 98.7779 118.641 102.196 118.641 106.753C118.641 109.331 118.25 111.284 117.469 112.613C118.25 113.941 118.641 115.894 118.641 118.472C118.641 125.633 115.06 129.214 107.898 129.214L93.25 129.214L90.3203 126.284ZM132.313 95.0344L128.406 95.0344C122.547 95.0344 119.617 97.9641 119.617 103.823L119.617 115.542C119.617 121.402 122.547 124.331 128.406 124.331L132.313 124.331C138.172 124.331 141.102 121.402 141.102 115.542L141.102 103.823C141.102 97.9641 138.172 95.0344 132.313 95.0344ZM135.242 103.823L135.242 115.542C135.242 117.495 134.266 118.472 132.313 118.472L128.406 118.472C126.453 118.472 125.477 117.495 125.477 115.542L125.477 103.823C125.477 101.87 126.453 100.894 128.406 100.894L132.313 100.894C134.266 100.894 135.242 101.87 135.242 103.823ZM130.359 116.519L132.313 116.519C132.964 116.519 133.289 116.193 133.289 115.542L133.289 105.777C131.336 105.777 130.359 106.753 130.359 108.706L130.359 116.519ZM121.082 125.796C118.803 123.517 117.664 120.1 117.664 115.542L117.664 103.823C117.664 96.662 121.245 93.0813 128.406 93.0813L132.313 93.0813C136.87 93.0813 140.288 94.2206 142.566 96.4993C144.845 98.7779 145.984 102.196 145.984 106.753L145.984 118.472C145.984 125.633 142.404 129.214 135.242 129.214L131.336 129.214C126.779 129.214 123.361 128.075 121.082 125.796ZM162.586 115.542C162.586 117.495 161.609 118.472 159.656 118.472L155.75 118.472C153.797 118.472 152.82 117.495 152.82 115.542L152.82 95.0344L146.961 95.0344L146.961 115.542C146.961 121.402 149.891 124.331 155.75 124.331L159.656 124.331C165.516 124.331 168.445 121.402 168.445 115.542L168.445 95.0344L162.586 95.0344L162.586 115.542ZM157.703 116.519L159.656 116.519C160.307 116.519 160.633 116.193 160.633 115.542L160.633 93.0813L170.398 93.0813L173.328 96.011L173.328 118.472C173.328 125.633 169.747 129.214 162.586 129.214L158.68 129.214C154.122 129.214 150.704 128.075 148.426 125.796C146.147 123.517 145.008 120.1 145.008 115.542L145.008 93.0813L154.773 93.0813L157.703 96.011L157.703 116.519ZM187.977 100.894L195.789 100.894L195.789 95.0344L174.305 95.0344L174.305 100.894L182.117 100.894L182.117 124.331L187.977 124.331L187.977 100.894ZM172.352 102.847L172.352 93.0813L197.742 93.0813L200.672 96.011L200.672 105.777L192.859 105.777L192.859 129.214L183.094 129.214L180.164 126.284L180.164 105.777L175.281 105.777L172.352 102.847Z" fill="black"/>
</g>
<defs>
<clipPath id="clip0_6_2">
<rect width="240.992" height="166.246" fill="white" transform="translate(0 53.3079) rotate(-12.7796)"/>
</clipPath>
</defs>
</svg>
