<svg width="330" height="204" viewBox="0 0 330 204" fill="none" xmlns="http://www.w3.org/2000/svg">
<path d="M74.4616 143.267L33 153.197L23.6923 163.511L61.7692 153.197V158.061L74.4616 143.267Z" fill="black"/>
<path d="M108.308 151.832L69.3846 165.646L61.7692 175.969L109.631 159.9L108.308 151.832Z" fill="black"/>
<path d="M151.462 154.947L118.047 189.985L120.154 201.664L161.615 161.742L151.462 154.947Z" fill="black"/>
<path d="M188.692 145.603V179.863L161.615 161.742L198 189.985V158.061L248.769 179.863L237.769 141.71L300.385 148.718L270.769 123.023L315.615 113.679L273.308 104.184L293.615 110.565L256.385 117.573L284.308 143.267L225.923 133.145L237.769 170.519L188.692 145.603Z" fill="black"/>
<path d="M258.923 99.6641L273.308 104.184L329.154 90.3206L304.615 88.2516L258.923 99.6641Z" fill="black"/>
<path d="M252.154 78.6412L266.538 79.9988L296.154 53.7252L275.846 57.8307L252.154 78.6412Z" fill="black"/>
<path d="M225.923 56.0611L236.077 54.4415L250.462 21.0229L239.072 27.2519L225.923 56.0611Z" fill="black"/>
<path d="M30.4615 40.4885L61.7692 78.6412L12.6923 80.1985L55.8462 105.115L4.23077 119.908L46.5385 128.473L12.6923 158.061L33 153.197L74.4615 143.267L61.7692 158.061L49.0769 172.855L69.3846 165.646L108.308 151.832L109.631 159.9L115.077 193.099L118.047 189.985L151.462 154.947L161.615 161.742L188.692 179.863V145.603L237.769 170.519L225.923 133.145L284.308 143.267L256.385 117.573L293.615 110.565L273.308 104.184L258.923 99.6641L304.615 88.2516L318.154 84.8702L266.538 79.9988L252.154 78.6412L275.846 57.8307L289.385 45.9389L236.077 54.4415L225.923 56.0611L239.072 27.2519L243.692 17.1298L181.077 47.4962L164.154 2.33588L134.538 45.9389L93.9231 17.1298L99.8462 60.7328L30.4615 40.4885Z" fill="#F7F7F7"/>
<path d="M33 153.197L12.6923 158.061L46.5385 128.473L4.23077 119.908L55.8462 105.114L12.6923 80.1985L61.7692 78.6412L30.4615 40.4885L99.8462 60.7328L93.9231 17.1298L134.538 45.9389L164.154 2.33588L181.077 47.4962L243.692 17.1298L239.072 27.2519M33 153.197L74.4615 143.267L61.7692 158.061M33 153.197L23.6923 163.511M239.072 27.2519L225.923 56.0611L236.077 54.4415M239.072 27.2519L250.462 21.0229L236.077 54.4415M61.7692 158.061V153.197M61.7692 158.061L49.0769 172.855L69.3846 165.646M23.6923 163.511C38.5623 159.483 46.8993 157.225 61.7692 153.197M23.6923 163.511L61.7692 153.197M69.3846 165.646L108.308 151.832L109.631 159.9M69.3846 165.646L61.7692 175.969L109.631 159.9M109.631 159.9L115.077 193.099L118.047 189.985M118.047 189.985L151.462 154.947L161.615 161.742M118.047 189.985L120.154 201.664L161.615 161.742M161.615 161.742L188.692 179.863V145.603L237.769 170.519L225.923 133.145L284.308 143.267L256.385 117.573L293.615 110.565L273.308 104.184M161.615 161.742L198 189.985V158.061L248.769 179.863L237.769 141.71L300.385 148.718L270.769 123.023L315.615 113.679L273.308 104.184M273.308 104.184L258.923 99.6641L304.615 88.2516M273.308 104.184L329.154 90.3206L304.615 88.2516M304.615 88.2516L318.154 84.8702L266.538 79.9988M266.538 79.9988L252.154 78.6412L275.846 57.8307M266.538 79.9988L296.154 53.7252L275.846 57.8307M275.846 57.8307L289.385 45.9389L236.077 54.4415" stroke="black"/>
<path d="M105.895 88.2747L104.996 75.1218L100.612 75.4213L100.792 78.0519L102.545 77.9321L103.264 88.4544L105.895 88.2747ZM99.9746 78.9886L99.6751 74.6043L105.813 74.185L107.218 75.4105L108.237 90.3172L103.852 90.6166L102.447 89.3912L101.818 80.1841L101.38 80.2141L99.9746 78.9886ZM112.91 87.7956L112.011 74.6426L107.627 74.9421L107.806 77.5727L109.56 77.4529L110.279 87.9753L112.91 87.7956ZM106.989 78.5095L106.69 74.1252L112.828 73.7059L114.233 74.9313L115.251 89.838L110.867 90.1375L109.462 88.912L108.833 79.705L108.395 79.7349L106.989 78.5095ZM124.796 73.7694L123.042 73.8892C120.411 74.0689 119.186 75.474 119.366 78.1046C119.545 80.7352 120.95 81.9606 123.581 81.7809L125.335 81.6612C126.212 81.6013 126.68 82.0097 126.74 82.8866C126.8 83.7635 126.391 84.2318 125.514 84.2917L123.761 84.4115C122.884 84.4714 122.426 84.2091 122.386 83.6245L119.755 83.8042C119.915 86.1425 121.31 87.2218 123.94 87.0421L125.694 86.9223C128.325 86.7426 129.55 85.3375 129.371 82.7069C129.191 80.0763 127.786 78.8509 125.155 79.0306L123.401 79.1504C122.525 79.2102 122.056 78.8018 121.996 77.9249C121.936 77.048 122.345 76.5797 123.222 76.5198L124.975 76.4C125.852 76.3401 126.311 76.6024 126.351 77.187L128.981 77.0073C128.822 74.669 127.426 73.5897 124.796 73.7694ZM120.73 82.2135C119.376 81.5602 118.629 80.2105 118.489 78.1645C118.269 74.9493 119.767 73.2319 122.982 73.0123L124.736 72.8925C126.694 72.7588 128.241 73.1817 129.377 74.1612C130.518 75.1345 131.167 76.764 131.323 79.0497L128.903 79.215C129.972 79.7293 130.682 80.4149 131.034 81.2718C131.387 82.1287 131.593 82.9956 131.653 83.8725C131.872 87.0876 130.374 88.805 127.159 89.0246L125.405 89.1444C123.447 89.2782 121.897 88.8555 120.756 87.8763C119.62 86.9026 118.974 85.2729 118.818 82.9872L121.238 82.8219C121.05 82.641 120.88 82.4382 120.73 82.2135ZM141.287 76.6072C141.108 73.9766 139.702 72.7512 137.072 72.9309L135.318 73.0506C132.688 73.2303 131.462 74.6355 131.642 77.2661L132.001 82.5272C132.181 85.1578 133.586 86.3833 136.217 86.2036L137.97 86.0838C140.601 85.9041 141.826 84.499 141.647 81.8684L141.617 81.43L138.986 81.6096L139.016 82.0481C139.076 82.9249 138.667 83.3933 137.791 83.4532L136.037 83.573C135.16 83.6329 134.692 83.2244 134.632 82.3476L134.272 77.0864C134.212 76.2095 134.621 75.7411 135.498 75.6812L137.252 75.5614C138.128 75.5016 138.597 75.91 138.657 76.7869L138.687 77.2253L141.317 77.0456L141.287 76.6072ZM132.973 87.0858C131.88 86.1327 131.264 84.6331 131.124 82.5871L130.765 77.326C130.545 74.1108 132.043 72.3934 135.258 72.1738L137.012 72.054C139.058 71.9142 140.627 72.3209 141.72 73.2741C142.813 74.2272 143.429 75.7268 143.569 77.7728L143.659 79.0881L139.275 79.3875L137.87 78.1621L137.84 77.7237L136.963 77.7836C136.671 77.8035 136.534 77.9596 136.554 78.2519L136.854 82.6362L137.731 82.5764C138.023 82.5564 138.159 82.4003 138.139 82.108L138.049 80.7927L142.434 80.4932L143.839 81.7187L143.929 83.034C144.148 86.2491 142.65 87.9665 139.435 88.1861L137.682 88.3059C135.636 88.4457 134.066 88.039 132.973 87.0858ZM146.818 80.1937L151.202 79.8943L151.562 85.1554L154.192 84.9758L153.294 71.8228L150.663 72.0025L151.023 77.2637L146.638 77.5631L146.279 72.302L143.648 72.4817L144.547 85.6346L147.177 85.4549L146.818 80.1937ZM150.745 86.0922L150.475 82.1463L149.16 82.2362L149.519 87.4973L145.135 87.7968L143.73 86.5714L142.712 71.6647L147.096 71.3652L148.501 72.5907L148.771 76.5365L150.086 76.4467L149.726 71.1855L154.111 70.8861L155.516 72.1115L156.534 87.0182L152.15 87.3176L150.745 86.0922ZM161.624 71.2538L159.87 71.3736C157.24 71.5533 156.014 72.9584 156.194 75.589L156.553 80.8502C156.733 83.4808 158.138 84.7062 160.769 84.5265L162.522 84.4068C165.153 84.2271 166.378 82.8219 166.199 80.1913L165.839 74.9302C165.66 72.2996 164.255 71.0741 161.624 71.2538ZM163.209 75.1099L163.568 80.371C163.628 81.2479 163.22 81.7163 162.343 81.7762L160.589 81.896C159.712 81.9559 159.244 81.5474 159.184 80.6705L158.825 75.4093C158.765 74.5325 159.173 74.0641 160.05 74.0042L161.804 73.8844C162.681 73.8245 163.149 74.233 163.209 75.1099ZM161.406 80.9592L162.283 80.8993C162.575 80.8793 162.711 80.7232 162.691 80.4309L162.392 76.0466C161.515 76.1065 161.107 76.5749 161.166 77.4517L161.406 80.9592ZM157.525 85.4088C156.433 84.4557 155.816 82.9561 155.676 80.9101L155.317 75.6489C155.097 72.4337 156.595 70.7164 159.81 70.4967L161.564 70.3769C163.61 70.2372 165.18 70.6439 166.272 71.597C167.365 72.5501 167.982 74.0497 168.121 76.0957L168.481 81.3569C168.7 84.5721 167.203 86.2895 163.987 86.5091L162.234 86.6289C160.188 86.7686 158.618 86.3619 157.525 85.4088ZM173.9 70.4153L172.146 70.5351C169.516 70.7148 168.29 72.1199 168.47 74.7505L168.829 80.0117C169.009 82.6423 170.414 83.8677 173.045 83.688L174.799 83.5682C177.429 83.3885 178.655 81.9834 178.475 79.3528L178.116 74.0916C177.936 71.4611 176.531 70.2356 173.9 70.4153ZM175.485 74.2713L175.844 79.5325C175.904 80.4094 175.496 80.8777 174.619 80.9376L172.865 81.0574C171.988 81.1173 171.52 80.7088 171.46 79.832L171.101 74.5708C171.041 73.6939 171.449 73.2256 172.326 73.1657L174.08 73.0459C174.957 72.986 175.425 73.3945 175.485 74.2713ZM173.682 80.1207L174.559 80.0608C174.851 80.0408 174.987 79.8847 174.967 79.5924L174.668 75.2081C173.791 75.268 173.383 75.7364 173.442 76.6132L173.682 80.1207ZM169.801 84.5703C168.709 83.6171 168.092 82.1176 167.953 80.0716L167.593 74.8104C167.374 71.5952 168.871 69.8778 172.086 69.6582L173.84 69.5384C175.886 69.3987 177.456 69.8054 178.549 70.7585C179.641 71.7116 180.258 73.2112 180.398 75.2572L180.757 80.5184C180.976 83.7335 179.479 85.4509 176.264 85.6705L174.51 85.7903C172.464 85.9301 170.894 85.5234 169.801 84.5703ZM180.477 69.9661L181.375 83.119L190.144 82.5201L189.964 79.8895L183.826 80.3088L183.107 69.7864L180.477 69.9661ZM180.558 84.0558L179.54 69.1491L183.924 68.8496L185.329 70.0751L185.958 79.2822L190.781 78.9527L192.186 80.1782L192.486 84.5625L181.963 85.2812L180.558 84.0558ZM197.575 68.7981L195.822 68.9179C193.191 69.0976 191.966 70.5027 192.145 73.1333C192.325 75.7639 193.73 76.9894 196.361 76.8097L198.114 76.6899C198.991 76.63 199.46 77.0385 199.52 77.9154C199.579 78.7922 199.171 79.2606 198.294 79.3205L196.54 79.4403C195.664 79.5002 195.205 79.2378 195.165 78.6533L192.535 78.8329C192.694 81.1712 194.089 82.2506 196.72 82.0709L198.474 81.9511C201.104 81.7714 202.33 80.3663 202.15 77.7357C201.97 75.1051 200.565 73.8796 197.935 74.0593L196.181 74.1791C195.304 74.239 194.836 73.8305 194.776 72.9536C194.716 72.0768 195.124 71.6084 196.001 71.5485L197.755 71.4287C198.632 71.3688 199.09 71.6312 199.13 72.2157L201.761 72.0361C201.601 69.6978 200.206 68.6184 197.575 68.7981ZM193.51 77.2423C192.155 76.5889 191.408 75.2392 191.268 73.1932C191.049 69.9781 192.547 68.2607 195.762 68.0411L197.515 67.9213C199.474 67.7875 201.021 68.2104 202.157 69.19C203.298 70.1633 203.947 71.7928 204.103 74.0785L201.683 74.2438C202.751 74.7581 203.462 75.4437 203.814 76.3006C204.166 77.1575 204.372 78.0244 204.432 78.9012C204.652 82.1164 203.154 83.8338 199.939 84.0534L198.185 84.1732C196.227 84.3069 194.677 83.8842 193.535 82.9051C192.4 81.9314 191.754 80.3017 191.598 78.016L194.018 77.8507C193.829 77.6697 193.66 77.4669 193.51 77.2423Z" fill="black"/>
<path d="M101.408 93.5321L204.948 86.4598L205.065 88.1658L101.525 95.2382L101.408 93.5321Z" fill="black"/>
<path d="M66.6721 111.243C66.722 111.974 66.3816 112.364 65.6509 112.414L64.1894 112.514C63.4587 112.564 63.0684 112.224 63.0185 111.493L62.4944 103.82L60.3022 103.97L60.8263 111.643C60.9761 113.835 62.147 114.856 64.3392 114.706L65.8006 114.607C67.9928 114.457 69.014 113.286 68.8642 111.094L68.3402 103.421L66.148 103.571L66.6721 111.243ZM64.8702 111.734L65.601 111.684C65.8445 111.667 65.958 111.537 65.9414 111.293L65.3674 102.89L69.021 102.641L70.1919 103.662L70.7659 112.065C70.9489 114.744 69.7008 116.175 67.0215 116.358L65.56 116.458C63.855 116.575 62.5471 116.236 61.6364 115.442C60.7257 114.647 60.2121 113.398 60.0956 111.693L59.5216 103.289L63.1752 103.04L64.3462 104.061L64.8702 111.734ZM73.022 107.477L76.9368 113.846L79.3189 113.683L78.5702 102.722L76.3781 102.872L76.8293 109.478L72.9145 103.109L70.5323 103.271L71.281 114.232L73.4732 114.082L73.022 107.477ZM76.5482 114.607L75.1941 112.409L75.4247 115.784L71.7711 116.034L70.6002 115.013L69.7517 102.591L73.303 102.348L74.4739 103.369L75.828 105.567L75.5974 102.191L79.251 101.942L80.422 102.963L81.2705 115.385L77.7192 115.628L76.5482 114.607ZM83.7032 113.384L82.9545 102.423L80.7624 102.573L81.5111 113.533L83.7032 113.384ZM80.8303 114.314L79.9818 101.892L83.6354 101.642L84.8063 102.663L85.6548 115.086L82.0012 115.335L80.8303 114.314ZM91.6939 101.826L90.082 110.041L87.3681 102.121L85.1029 102.276L88.789 113.036L91.7704 112.833L93.9592 101.671L91.6939 101.826ZM90.1895 105.702L91.0887 101.133L94.8592 100.876L96.0301 101.897L93.5466 114.547L89.4545 114.826L88.2836 113.805L84.103 101.61L87.8735 101.353L89.0445 102.374L90.1895 105.702ZM98.8986 110.143L98.7489 107.951L103.133 107.652L102.983 105.46L98.5991 105.759L98.4494 103.567L103.564 103.218L103.415 101.025L96.1075 101.525L96.8562 112.485L104.163 111.986L104.014 109.794L98.8986 110.143ZM103.689 105.044L104.835 105.7L105.085 109.354L105.865 110.035L106.115 113.688L97.3463 114.287L96.1754 113.266L95.3269 100.844L104.095 100.245L105.266 101.266L105.516 104.92L103.689 105.044ZM105.607 100.876L106.356 111.836L108.548 111.687L108.248 107.302L109.271 107.233L112.106 111.444L114.635 111.271L111.766 107.003C113.283 106.43 113.984 105.3 113.869 103.615C113.72 101.423 112.549 100.401 110.357 100.551L105.607 100.876ZM107.949 102.918L110.506 102.743C111.237 102.693 111.627 103.034 111.677 103.765C111.727 104.495 111.387 104.886 110.656 104.936L108.098 105.11L107.949 102.918ZM114.23 100.837C115.141 101.631 115.655 102.881 115.771 104.586C115.911 106.632 115.342 107.899 114.063 108.388L117.127 112.936L112.903 113.225L111.732 112.203L110.27 110.027L110.499 113.389L106.846 113.638L105.675 112.617L104.826 100.195L110.307 99.8205C112.012 99.704 113.319 100.043 114.23 100.837ZM120.587 99.8524L119.125 99.9523C116.933 100.102 115.912 101.273 116.062 103.465C116.211 105.657 117.382 106.678 119.574 106.529L121.036 106.429C121.767 106.379 122.157 106.719 122.207 107.45C122.257 108.181 121.916 108.571 121.186 108.621L119.724 108.721C118.993 108.771 118.611 108.552 118.578 108.065L116.386 108.215C116.519 110.163 117.682 111.063 119.874 110.913L121.335 110.813C123.527 110.663 124.549 109.493 124.399 107.3C124.249 105.108 123.078 104.087 120.886 104.237L119.425 104.337C118.694 104.386 118.304 104.046 118.254 103.315C118.204 102.585 118.544 102.194 119.275 102.144L120.736 102.045C121.467 101.995 121.849 102.213 121.882 102.7L124.074 102.551C123.941 100.602 122.779 99.7027 120.587 99.8524ZM117.198 106.889C116.07 106.345 115.447 105.22 115.331 103.515C115.148 100.836 116.396 99.4046 119.075 99.2215L120.537 99.1217C122.169 99.0103 123.458 99.3627 124.404 100.179C125.355 100.99 125.896 102.348 126.026 104.253L124.009 104.39C124.9 104.819 125.492 105.39 125.785 106.104C126.079 106.819 126.251 107.541 126.301 108.272C126.484 110.951 125.235 112.382 122.556 112.565L121.095 112.665C119.463 112.776 118.171 112.424 117.22 111.608C116.274 110.797 115.735 109.439 115.605 107.534L117.622 107.396C117.465 107.245 117.324 107.076 117.198 106.889ZM129.008 110.289L128.259 99.3284L126.067 99.4781L126.816 110.439L129.008 110.289ZM126.135 111.22L125.286 98.7973L128.94 98.5477L130.111 99.5689L130.959 111.991L127.306 112.241L126.135 111.22ZM135.716 101.021L138.639 100.822L138.489 98.6296L130.451 99.1786L130.601 101.371L133.524 101.171L134.123 109.94L136.315 109.79L135.716 101.021ZM129.92 102.151L129.671 98.4978L139.17 97.849L140.341 98.8702L140.591 102.524L137.668 102.723L138.267 111.492L134.613 111.742L133.442 110.72L132.918 103.048L131.091 103.173L129.92 102.151ZM143.622 109.291L142.874 98.3301L140.681 98.4799L141.43 109.441L143.622 109.291ZM140.749 110.221L139.901 97.7991L143.554 97.5495L144.725 98.5707L145.574 110.993L141.92 111.242L140.749 110.221ZM147.857 106.799L147.707 104.607L152.091 104.308L151.942 102.115L147.557 102.415L147.408 100.223L152.523 99.8734L152.373 97.6813L145.066 98.1804L145.814 109.141L153.122 108.642L152.972 106.45L147.857 106.799ZM152.647 101.7L153.793 102.356L154.043 106.01L154.824 106.69L155.073 110.344L146.304 110.943L145.134 109.922L144.285 97.4996L153.054 96.9006L154.225 97.9218L154.474 101.575L152.647 101.7ZM159.315 97.2071L157.853 97.3069C155.661 97.4567 154.64 98.6276 154.79 100.82C154.939 103.012 156.11 104.033 158.302 103.883L159.764 103.784C160.495 103.734 160.885 104.074 160.935 104.805C160.985 105.536 160.644 105.926 159.914 105.976L158.452 106.076C157.721 106.125 157.339 105.907 157.306 105.42L155.114 105.569C155.247 107.518 156.41 108.417 158.602 108.268L160.063 108.168C162.256 108.018 163.277 106.847 163.127 104.655C162.977 102.463 161.806 101.442 159.614 101.591L158.153 101.691C157.422 101.741 157.032 101.401 156.982 100.67C156.932 99.9393 157.272 99.549 158.003 99.4991L159.464 99.3993C160.195 99.3493 160.577 99.568 160.61 100.055L162.803 99.9054C162.669 97.9568 161.507 97.0574 159.315 97.2071ZM155.926 104.244C154.798 103.699 154.175 102.575 154.059 100.87C153.876 98.1904 155.124 96.7592 157.803 96.5762L159.265 96.4764C160.897 96.3649 162.186 96.7173 163.132 97.5336C164.083 98.3447 164.624 99.7026 164.754 101.607L162.737 101.745C163.628 102.174 164.22 102.745 164.514 103.459C164.807 104.173 164.979 104.896 165.029 105.626C165.212 108.306 163.964 109.737 161.284 109.92L159.823 110.02C158.191 110.131 156.899 109.779 155.948 108.963C155.002 108.151 154.464 106.793 154.333 104.889L156.35 104.751C156.193 104.6 156.052 104.431 155.926 104.244ZM167.886 109.836L167.586 105.452L165.394 105.601L165.694 109.986L167.886 109.836ZM165.013 110.766L164.613 104.921L168.267 104.671L169.438 105.692L169.837 111.538L166.184 111.788L165.013 110.766ZM181.154 99.0189C181.004 96.8268 179.833 95.8056 177.641 95.9553L176.18 96.0551C173.988 96.2049 172.966 97.3758 173.116 99.568L173.416 103.952C173.565 106.144 174.736 107.166 176.928 107.016L178.39 106.916C180.582 106.766 181.603 105.595 181.453 103.403L181.428 103.038L179.236 103.188L179.261 103.553C179.311 104.284 178.971 104.674 178.24 104.724L176.779 104.824C176.048 104.874 175.658 104.533 175.608 103.803L175.308 99.4182C175.258 98.6875 175.599 98.2972 176.329 98.2473L177.791 98.1475C178.522 98.0975 178.912 98.438 178.962 99.1687L178.987 99.534L181.179 99.3843L181.154 99.0189ZM174.226 107.751C173.315 106.957 172.801 105.707 172.685 104.002L172.385 99.6179C172.202 96.9386 173.45 95.5074 176.13 95.3244L177.591 95.2246C179.296 95.1081 180.604 95.447 181.515 96.2413C182.426 97.0356 182.939 98.2852 183.056 99.9902L183.131 101.086L179.477 101.336L178.306 100.315L178.281 99.9493L177.55 99.9992C177.307 100.016 177.193 100.146 177.21 100.39L177.459 104.043L178.19 103.993C178.434 103.977 178.547 103.846 178.531 103.603L178.456 102.507L182.109 102.257L183.28 103.278L183.355 104.375C183.538 107.054 182.29 108.485 179.611 108.668L178.149 108.768C176.444 108.884 175.136 108.545 174.226 107.751ZM187.871 95.2565L186.41 95.3564C184.218 95.5061 183.196 96.677 183.346 98.8692L183.646 103.254C183.795 105.446 184.966 106.467 187.158 106.317L188.62 106.217C190.812 106.068 191.833 104.897 191.684 102.704L191.384 98.3202C191.234 96.128 190.063 95.1068 187.871 95.2565ZM189.192 98.4699L189.491 102.854C189.541 103.585 189.201 103.975 188.47 104.025L187.009 104.125C186.278 104.175 185.888 103.834 185.838 103.104L185.538 98.7195C185.488 97.9887 185.829 97.5984 186.56 97.5485L188.021 97.4487C188.752 97.3988 189.142 97.7392 189.192 98.4699ZM187.69 103.344L188.42 103.294C188.664 103.278 188.777 103.148 188.761 102.904L188.511 99.2505C187.78 99.3004 187.44 99.6908 187.49 100.421L187.69 103.344ZM184.456 107.052C183.545 106.258 183.031 105.008 182.915 103.303L182.615 98.9191C182.432 96.2398 183.681 94.8086 186.36 94.6256L187.821 94.5258C189.526 94.4094 190.834 94.7483 191.745 95.5425C192.656 96.3368 193.169 97.5865 193.286 99.2915L193.585 103.676C193.768 106.355 192.52 107.786 189.841 107.969L188.379 108.069C186.674 108.186 185.366 107.847 184.456 107.052ZM193.352 94.8822L194.1 105.843L201.407 105.344L201.258 103.152L196.143 103.501L195.544 94.7325L193.352 94.8822ZM193.419 106.624L192.571 94.2014L196.225 93.9518L197.396 94.973L197.92 102.646L201.939 102.371L203.109 103.392L203.359 107.046L194.59 107.645L193.419 106.624ZM202.851 94.2333L203.6 105.194L210.907 104.695L210.757 102.503L205.642 102.852L205.043 94.0836L202.851 94.2333ZM202.919 105.975L202.07 93.5525L205.724 93.303L206.895 94.3242L207.419 101.997L211.438 101.722L212.609 102.743L212.858 106.397L204.09 106.996L202.919 105.975ZM215.141 102.203L214.992 100.011L219.376 99.7117L219.226 97.5196L214.842 97.8191L214.692 95.6269L219.807 95.2775L219.657 93.0854L212.35 93.5845L213.099 104.545L220.406 104.046L220.256 101.854L215.141 102.203ZM219.932 97.1043L221.078 97.7602L221.328 101.414L222.108 102.095L222.358 105.748L213.589 106.347L212.418 105.326L211.57 92.9037L220.338 92.3047L221.509 93.3259L221.759 96.9795L219.932 97.1043ZM226.599 92.6112L225.138 92.711C222.946 92.8607 221.925 94.0317 222.074 96.2239L222.374 100.608C222.523 102.8 223.694 103.822 225.887 103.672L227.348 103.572C229.54 103.422 230.561 102.251 230.412 100.059L230.187 96.7709L226.533 97.0205L226.683 99.2126L228.145 99.1128L228.219 100.209C228.269 100.94 227.929 101.33 227.198 101.38L225.737 101.48C225.006 101.53 224.616 101.189 224.566 100.458L224.266 96.0741C224.217 95.3434 224.557 94.9531 225.288 94.9032L226.749 94.8033C227.48 94.7534 227.862 94.9721 227.895 95.4592L230.087 95.3095C229.954 93.3609 228.791 92.4615 226.599 92.6112ZM226.783 100.674L226.002 99.9932L226.052 100.724L226.783 100.674ZM230.141 92.8685C231.024 93.6255 231.527 94.893 231.648 96.6711L231.923 100.69C232.106 103.369 230.858 104.8 228.179 104.984L226.717 105.083C225.134 105.191 223.918 104.878 223.07 104.143C222.227 103.403 221.751 102.241 221.643 100.658L221.344 96.2738C221.161 93.5945 222.409 92.1633 225.088 91.9803L226.549 91.8805C228.064 91.777 229.262 92.1063 230.141 92.8685ZM234.871 100.856L234.721 98.6636L239.105 98.3641L238.956 96.172L234.571 96.4714L234.422 94.2793L239.537 93.9299L239.387 91.7377L232.08 92.2368L232.828 103.198L240.136 102.699L239.986 100.506L234.871 100.856ZM239.661 95.7567L240.807 96.4125L241.057 100.066L241.838 100.747L242.087 104.401L233.319 104.999L232.148 103.978L231.299 91.556L240.068 90.9571L241.239 91.9783L241.488 95.6319L239.661 95.7567ZM246.329 91.2636L244.867 91.3634C242.675 91.5131 241.654 92.6841 241.804 94.8762C241.953 97.0684 243.124 98.0896 245.317 97.9399L246.778 97.84C247.509 97.7901 247.899 98.1305 247.949 98.8612C247.999 99.592 247.658 99.9823 246.928 100.032L245.466 100.132C244.736 100.182 244.354 99.9633 244.32 99.4762L242.128 99.6259C242.261 101.574 243.424 102.474 245.616 102.324L247.077 102.224C249.27 102.075 250.291 100.904 250.141 98.7115C249.991 96.5193 248.82 95.4981 246.628 95.6479L245.167 95.7477C244.436 95.7976 244.046 95.4572 243.996 94.7265C243.946 93.9958 244.286 93.6055 245.017 93.5555L246.478 93.4557C247.209 93.4058 247.591 93.6244 247.624 94.1116L249.817 93.9618C249.684 92.0132 248.521 91.1138 246.329 91.2636ZM242.941 98.3004C241.812 97.7559 241.189 96.6311 241.073 94.9261C240.89 92.2468 242.138 90.8157 244.817 90.6327L246.279 90.5328C247.911 90.4214 249.2 90.7738 250.146 91.5901C251.098 92.4012 251.638 93.7591 251.768 95.6638L249.751 95.8016C250.642 96.2302 251.234 96.8015 251.528 97.5156C251.821 98.2297 251.993 98.9521 252.043 99.6828C252.226 102.362 250.978 103.793 248.298 103.976L246.837 104.076C245.205 104.188 243.913 103.835 242.962 103.019C242.016 102.208 241.478 100.85 241.347 98.9451L243.364 98.8073C243.207 98.6566 243.066 98.4876 242.941 98.3004ZM254.9 103.892L254.6 99.5081L252.408 99.6578L252.708 104.042L254.9 103.892ZM252.027 104.823L251.627 98.977L255.281 98.7275L256.452 99.7487L256.851 105.594L253.198 105.844L252.027 104.823ZM106.38 128.316C107.039 128.643 107.66 128.787 108.245 128.747L108.095 126.555C107.608 126.588 107.339 126.239 107.289 125.509L107.215 124.413L107.945 124.363L107.796 122.171L107.065 122.22L107.015 121.49L104.823 121.639L104.873 122.37L103.046 122.495C102.315 122.545 101.925 122.204 101.875 121.474C101.825 120.743 102.165 120.353 102.896 120.303L103.992 120.228L103.842 118.036L102.746 118.111C100.554 118.26 99.533 119.431 99.6827 121.623C99.7393 122.452 99.9743 123.17 100.388 123.778C100.061 124.436 99.9257 125.18 99.9822 126.008C100.132 128.2 101.303 129.221 103.495 129.071L104.226 129.022C105.054 128.965 105.772 128.73 106.38 128.316ZM104.076 126.829L103.345 126.879C102.615 126.929 102.224 126.589 102.174 125.858C102.124 125.127 102.465 124.737 103.196 124.687L105.022 124.562L105.097 125.658C105.147 126.389 104.807 126.779 104.076 126.829ZM105.694 118.276L105.869 120.834L107.696 120.709L108.476 121.39L108.501 121.755L108.867 121.73L109.647 122.411L109.897 126.065L109.166 126.115L109.191 126.48C109.208 126.724 109.46 126.829 109.947 126.795L110.196 130.449C108.988 130.532 108.126 130.444 107.609 130.185C107.132 130.512 106.411 130.708 105.447 130.773L104.716 130.823C103.011 130.94 101.703 130.601 100.792 129.807C99.8816 129.012 99.368 127.763 99.2515 126.058C99.1856 125.093 99.2818 124.352 99.5402 123.836C99.214 123.359 99.0179 122.638 98.952 121.673C98.769 118.994 100.017 117.563 102.696 117.38L104.523 117.255L105.694 118.276ZM116.042 123.81L119.695 123.56L119.995 127.944L122.187 127.795L121.438 116.834L119.246 116.984L119.545 121.368L115.892 121.617L115.592 117.233L113.4 117.383L114.149 128.344L116.341 128.194L116.042 123.81ZM119.314 128.725L119.089 125.437L117.993 125.512L118.293 129.896L114.639 130.146L113.468 129.124L112.62 116.702L116.273 116.453L117.444 117.474L117.669 120.762L118.765 120.687L118.465 116.303L122.119 116.053L123.29 117.074L124.138 129.497L120.485 129.746L119.314 128.725ZM126.571 127.495L125.822 116.534L123.63 116.684L124.379 127.645L126.571 127.495ZM123.698 128.426L122.85 116.003L126.503 115.754L127.674 116.775L128.523 129.197L124.869 129.447L123.698 128.426ZM132.764 116.06L131.303 116.16C129.111 116.31 128.09 117.481 128.239 119.673L128.539 124.057C128.688 126.249 129.859 127.271 132.052 127.121L133.513 127.021C135.705 126.871 136.726 125.7 136.577 123.508L136.352 120.22L132.698 120.47L132.848 122.662L134.31 122.562L134.384 123.658C134.434 124.389 134.094 124.779 133.363 124.829L131.902 124.929C131.171 124.979 130.781 124.638 130.731 123.907L130.431 119.523C130.381 118.792 130.722 118.402 131.453 118.352L132.914 118.252C133.645 118.202 134.027 118.421 134.06 118.908L136.252 118.759C136.119 116.81 134.956 115.911 132.764 116.06ZM132.948 124.123L132.167 123.442L132.217 124.173L132.948 124.123ZM136.306 116.318C137.189 117.075 137.692 118.342 137.813 120.12L138.088 124.139C138.271 126.818 137.023 128.25 134.344 128.433L132.882 128.532C131.299 128.641 130.083 128.327 129.235 127.592C128.392 126.852 127.916 125.69 127.808 124.107L127.509 119.723C127.326 117.044 128.574 115.612 131.253 115.429L132.714 115.33C134.229 115.226 135.427 115.555 136.306 116.318ZM140.886 122.113L144.54 121.863L144.839 126.247L147.031 126.098L146.283 115.137L144.09 115.287L144.39 119.671L140.736 119.92L140.437 115.536L138.245 115.686L138.993 126.647L141.186 126.497L140.886 122.113ZM144.158 127.028L143.934 123.74L142.838 123.815L143.137 128.199L139.484 128.449L138.313 127.427L137.464 115.005L141.118 114.756L142.289 115.777L142.513 119.065L143.609 118.99L143.31 114.606L146.963 114.356L148.134 115.377L148.983 127.8L145.329 128.049L144.158 127.028ZM153.224 114.663L151.763 114.763C149.571 114.912 148.55 116.083 148.699 118.275C148.849 120.468 150.02 121.489 152.212 121.339L153.674 121.239C154.404 121.189 154.795 121.53 154.845 122.26C154.895 122.991 154.554 123.381 153.823 123.431L152.362 123.531C151.631 123.581 151.249 123.362 151.216 122.875L149.024 123.025C149.157 124.974 150.32 125.873 152.512 125.723L153.973 125.623C156.165 125.474 157.187 124.303 157.037 122.111C156.887 119.918 155.716 118.897 153.524 119.047L152.062 119.147C151.332 119.197 150.941 118.856 150.892 118.126C150.842 117.395 151.182 117.005 151.913 116.955L153.374 116.855C154.105 116.805 154.487 117.024 154.52 117.511L156.712 117.361C156.579 115.412 155.417 114.513 153.224 114.663ZM149.836 121.7C148.708 121.155 148.085 120.03 147.969 118.325C147.786 115.646 149.034 114.215 151.713 114.032L153.175 113.932C154.806 113.821 156.096 114.173 157.042 114.989C157.993 115.8 158.534 117.158 158.664 119.063L156.647 119.201C157.538 119.629 158.13 120.201 158.423 120.915C158.717 121.629 158.889 122.351 158.938 123.082C159.121 125.761 157.873 127.192 155.194 127.375L153.733 127.475C152.101 127.587 150.809 127.234 149.858 126.419C148.911 125.607 148.373 124.249 148.243 122.344L150.26 122.206C150.103 122.056 149.962 121.887 149.836 121.7ZM166.967 117.028C166.818 114.835 165.647 113.814 163.455 113.964L161.993 114.064C159.801 114.213 158.78 115.384 158.929 117.577L159.229 121.961C159.379 124.153 160.55 125.174 162.742 125.025L164.203 124.925C166.395 124.775 167.417 123.604 167.267 121.412L167.242 121.047L165.05 121.196L165.075 121.562C165.125 122.292 164.784 122.683 164.053 122.733L162.592 122.832C161.861 122.882 161.471 122.542 161.421 121.811L161.122 117.427C161.072 116.696 161.412 116.306 162.143 116.256L163.604 116.156C164.335 116.106 164.725 116.447 164.775 117.177L164.8 117.543L166.992 117.393L166.967 117.028ZM160.039 125.76C159.128 124.965 158.615 123.716 158.498 122.011L158.199 117.627C158.016 114.947 159.264 113.516 161.943 113.333L163.405 113.233C165.11 113.117 166.418 113.456 167.328 114.25C168.239 115.044 168.753 116.294 168.869 117.999L168.944 119.095L165.29 119.345L164.119 118.323L164.094 117.958L163.364 118.008C163.12 118.024 163.007 118.155 163.023 118.398L163.273 122.052L164.004 122.002C164.247 121.985 164.361 121.855 164.344 121.612L164.269 120.515L167.923 120.266L169.094 121.287L169.169 122.383C169.352 125.062 168.103 126.494 165.424 126.677L163.963 126.776C162.258 126.893 160.95 126.554 160.039 125.76ZM171.576 120.016L175.23 119.767L175.529 124.151L177.722 124.001L176.973 113.041L174.781 113.19L175.08 117.575L171.427 117.824L171.127 113.44L168.935 113.59L169.684 124.55L171.876 124.401L171.576 120.016ZM174.849 124.932L174.624 121.643L173.528 121.718L173.827 126.103L170.174 126.352L169.003 125.331L168.154 112.909L171.808 112.659L172.979 113.68L173.203 116.969L174.3 116.894L174 112.509L177.654 112.26L178.825 113.281L179.673 125.703L176.02 125.953L174.849 124.932ZM183.915 112.566L182.453 112.666C180.261 112.816 179.24 113.987 179.39 116.179L179.689 120.563C179.839 122.756 181.01 123.777 183.202 123.627L184.663 123.527C186.856 123.377 187.877 122.207 187.727 120.014L187.428 115.63C187.278 113.438 186.107 112.417 183.915 112.566ZM185.235 115.78L185.535 120.164C185.585 120.895 185.244 121.285 184.514 121.335L183.052 121.435C182.321 121.485 181.931 121.144 181.881 120.414L181.582 116.029C181.532 115.299 181.872 114.908 182.603 114.858L184.064 114.759C184.795 114.709 185.185 115.049 185.235 115.78ZM183.733 120.654L184.464 120.604C184.707 120.588 184.821 120.458 184.804 120.214L184.555 116.56C183.824 116.61 183.483 117.001 183.533 117.731L183.733 120.654ZM180.499 124.362C179.588 123.568 179.075 122.318 178.958 120.613L178.659 116.229C178.476 113.55 179.724 112.119 182.403 111.936L183.865 111.836C185.57 111.719 186.878 112.058 187.788 112.852C188.699 113.647 189.213 114.896 189.329 116.601L189.629 120.986C189.812 123.665 188.564 125.096 185.884 125.279L184.423 125.379C182.718 125.495 181.41 125.156 180.499 124.362ZM194.145 111.868L192.683 111.967C190.491 112.117 189.47 113.288 189.62 115.48L189.919 119.865C190.069 122.057 191.24 123.078 193.432 122.928L194.893 122.828C197.086 122.679 198.107 121.508 197.957 119.316L197.658 114.931C197.508 112.739 196.337 111.718 194.145 111.868ZM195.465 115.081L195.765 119.465C195.815 120.196 195.474 120.586 194.744 120.636L193.282 120.736C192.552 120.786 192.161 120.446 192.111 119.715L191.812 115.331C191.762 114.6 192.102 114.21 192.833 114.16L194.294 114.06C195.025 114.01 195.416 114.35 195.465 115.081ZM193.963 119.955L194.694 119.906C194.937 119.889 195.051 119.759 195.034 119.515L194.785 115.862C194.054 115.912 193.713 116.302 193.763 117.033L193.963 119.955ZM190.729 123.663C189.818 122.869 189.305 121.62 189.188 119.915L188.889 115.53C188.706 112.851 189.954 111.42 192.633 111.237L194.095 111.137C195.8 111.02 197.108 111.359 198.018 112.154C198.929 112.948 199.443 114.198 199.559 115.903L199.859 120.287C200.042 122.966 198.794 124.397 196.114 124.58L194.653 124.68C192.948 124.797 191.64 124.458 190.729 123.663ZM199.625 111.493L200.374 122.454L207.681 121.955L207.531 119.763L202.416 120.112L201.817 111.344L199.625 111.493ZM199.693 123.235L198.845 110.812L202.498 110.563L203.669 111.584L204.193 119.257L208.212 118.982L209.383 120.003L209.633 123.657L200.864 124.256L199.693 123.235ZM213.874 110.52L212.413 110.62C210.221 110.77 209.199 111.941 209.349 114.133C209.499 116.325 210.67 117.346 212.862 117.196L214.323 117.096C215.054 117.047 215.444 117.387 215.494 118.118C215.544 118.848 215.204 119.239 214.473 119.289L213.012 119.388C212.281 119.438 211.899 119.22 211.866 118.733L209.674 118.882C209.807 120.831 210.969 121.73 213.161 121.581L214.623 121.481C216.815 121.331 217.836 120.16 217.686 117.968C217.537 115.776 216.366 114.755 214.174 114.904L212.712 115.004C211.981 115.054 211.591 114.714 211.541 113.983C211.491 113.252 211.832 112.862 212.562 112.812L214.024 112.712C214.755 112.662 215.137 112.881 215.17 113.368L217.362 113.218C217.229 111.27 216.066 110.37 213.874 110.52ZM210.486 117.557C209.357 117.012 208.735 115.888 208.618 114.183C208.435 111.503 209.684 110.072 212.363 109.889L213.824 109.789C215.456 109.678 216.745 110.03 217.692 110.847C218.643 111.658 219.184 113.016 219.314 114.92L217.297 115.058C218.187 115.487 218.78 116.058 219.073 116.772C219.367 117.486 219.538 118.209 219.588 118.939C219.771 121.619 218.523 123.05 215.844 123.233L214.382 123.333C212.75 123.444 211.459 123.092 210.507 122.276C209.561 121.464 209.023 120.106 208.893 118.202L210.91 118.064C210.753 117.913 210.611 117.744 210.486 117.557Z" fill="black"/>
</svg>
