<svg width="313" height="159" viewBox="0 0 313 159" fill="none" xmlns="http://www.w3.org/2000/svg">
<g clip-path="url(#clip0_6_25)">
<path d="M71.2351 101.365L32.6713 105.464L23.6414 111.841L59.1122 107.27L58.888 110.553L71.2351 101.365Z" fill="black"/>
<path d="M101.947 109.27L65.5374 116.15L58.0625 122.639L102.792 114.799L101.947 109.27Z" fill="black"/>
<path d="M141.465 114.082L109.14 135.631L110.538 143.646L150.484 119.305L141.465 114.082Z" fill="black"/>
<path d="M176.114 110.113L174.534 133.235L150.484 119.305L182.622 140.65L184.094 119.105L229.749 137.006L221.398 110.566L278.623 119.227L252.589 100.026L294.237 96.5356L255.79 87.4711L274.161 93.0525L239.62 95.4447L264.099 114.539L210.906 104.042L220.07 130.01L176.114 110.113Z" fill="black"/>
<path d="M242.778 83.5177L255.79 87.4711L307.756 81.6207L285.299 78.6839L242.778 83.5177Z" fill="black"/>
<path d="M237.526 68.9044L250.684 70.7237L279.114 54.8509L260.26 56.3468L237.526 68.9044Z" fill="black"/>
<path d="M214.459 52.0184L223.866 51.5628L238.627 29.9117L227.872 33.4006L214.459 52.0184Z" fill="black"/>
<path d="M35.5341 29.2379L62.5492 56.9525L17.3723 54.9226L55.8851 74.4475L7.76493 81.1915L46.2538 89.6279L13.7829 107.472L32.6713 105.464L71.2351 101.365L58.888 110.553L46.5409 119.74L65.5374 116.15L101.947 109.27L102.792 114.799L106.266 137.547L109.14 135.631L141.465 114.082L150.484 119.305L174.534 133.235L176.114 110.113L220.07 130.01L210.906 104.042L264.099 114.539L239.62 95.4447L274.161 93.0525L255.79 87.4711L242.778 83.5177L285.299 78.6839L297.898 77.2517L250.684 70.7237L237.526 68.9044L260.26 56.3468L273.251 49.171L223.866 51.5628L214.459 52.0184L227.872 33.4006L232.585 26.8593L173.637 43.4226L160.166 11.8817L130.937 39.4501L94.9365 17.4571L98.3702 47.2566L35.5341 29.2379Z" fill="#F7F7F7"/>
<path d="M32.6713 105.464L13.7829 107.472L46.2538 89.6279L7.76493 81.1915L55.8851 74.4474L17.3723 54.9226L62.5492 56.9525L35.5341 29.2379L98.3702 47.2566L94.9365 17.4571L130.937 39.4501L160.166 11.8817L173.637 43.4226L232.585 26.8593L227.872 33.4006M32.6713 105.464L71.2351 101.365L58.888 110.553M32.6713 105.464L23.6414 111.841M227.872 33.4006L214.459 52.0184L223.866 51.5628M227.872 33.4006L238.627 29.9117L223.866 51.5628M58.888 110.553L59.1122 107.27M58.888 110.553L46.5409 119.74L65.5374 116.15M23.6414 111.841C37.4937 110.055 45.26 109.055 59.1122 107.27M23.6414 111.841L59.1122 107.27M65.5374 116.15L101.947 109.27L102.792 114.799M65.5374 116.15L58.0625 122.639L102.792 114.799M102.792 114.799L106.266 137.547L109.14 135.631M109.14 135.631L141.465 114.082L150.484 119.305M109.14 135.631L110.538 143.646L150.484 119.305M150.484 119.305L174.534 133.235L176.114 110.113L220.07 130.01L210.906 104.042L264.099 114.539L239.62 95.4447L274.161 93.0525L255.79 87.4711M150.484 119.305L182.622 140.65L184.094 119.105L229.749 137.006L221.398 110.566L278.623 119.227L252.589 100.026L294.237 96.5356L255.79 87.4711M255.79 87.4711L242.778 83.5177L285.299 78.6839M255.79 87.4711L307.756 81.6207L285.299 78.6839M285.299 78.6839L297.898 77.2517L250.684 70.7237M250.684 70.7237L237.526 68.9044L260.26 56.3468M250.684 70.7237L279.114 54.8508L260.26 56.3468M260.26 56.3468L273.251 49.171L223.866 51.5628" stroke="black"/>
<path d="M103.672 65.6094V53.8906H99.7656V56.2344H101.328V65.6094H103.672ZM98.9844 57.0156V53.1094H104.453L105.625 54.2812V67.5625H101.719L100.547 66.3906V58.1875H100.156L98.9844 57.0156ZM109.922 65.6094V53.8906H106.016V56.2344H107.578V65.6094H109.922ZM105.234 57.0156V53.1094H110.703L111.875 54.2812V67.5625H107.969L106.797 66.3906V58.1875H106.406L105.234 57.0156ZM121.312 53.8906H119.75C117.406 53.8906 116.234 55.0625 116.234 57.4062C116.234 59.75 117.406 60.9219 119.75 60.9219H121.312C122.094 60.9219 122.484 61.3125 122.484 62.0938C122.484 62.875 122.094 63.2656 121.312 63.2656H119.75C118.969 63.2656 118.578 63.0052 118.578 62.4844H116.234C116.234 64.5677 117.406 65.6094 119.75 65.6094H121.312C123.656 65.6094 124.828 64.4375 124.828 62.0938C124.828 59.75 123.656 58.5781 121.312 58.5781H119.75C118.969 58.5781 118.578 58.1875 118.578 57.4062C118.578 56.625 118.969 56.2344 119.75 56.2344H121.312C122.094 56.2344 122.484 56.4948 122.484 57.0156H124.828C124.828 54.9323 123.656 53.8906 121.312 53.8906ZM117.195 61.1328C116.034 60.4714 115.453 59.2292 115.453 57.4062C115.453 54.5417 116.885 53.1094 119.75 53.1094H121.312C123.057 53.1094 124.404 53.5781 125.352 54.5156C126.305 55.4479 126.781 56.9323 126.781 58.9688H124.625C125.542 59.4896 126.13 60.1406 126.391 60.9219C126.651 61.7031 126.781 62.4844 126.781 63.2656C126.781 66.1302 125.349 67.5625 122.484 67.5625H120.922C119.177 67.5625 117.828 67.0938 116.875 66.1562C115.927 65.224 115.453 63.7396 115.453 61.7031H117.609C117.453 61.5312 117.315 61.3411 117.195 61.1328ZM135.766 57.4062C135.766 55.0625 134.594 53.8906 132.25 53.8906H130.688C128.344 53.8906 127.172 55.0625 127.172 57.4062V62.0938C127.172 64.4375 128.344 65.6094 130.688 65.6094H132.25C134.594 65.6094 135.766 64.4375 135.766 62.0938V61.7031H133.422V62.0938C133.422 62.875 133.031 63.2656 132.25 63.2656H130.688C129.906 63.2656 129.516 62.875 129.516 62.0938V57.4062C129.516 56.625 129.906 56.2344 130.688 56.2344H132.25C133.031 56.2344 133.422 56.625 133.422 57.4062V57.7969H135.766V57.4062ZM127.758 66.1953C126.846 65.2839 126.391 63.9167 126.391 62.0938V57.4062C126.391 54.5417 127.823 53.1094 130.688 53.1094H132.25C134.073 53.1094 135.44 53.5651 136.352 54.4766C137.263 55.388 137.719 56.7552 137.719 58.5781V59.75H133.812L132.641 58.5781V58.1875H131.859C131.599 58.1875 131.469 58.3177 131.469 58.5781V62.4844H132.25C132.51 62.4844 132.641 62.3542 132.641 62.0938V60.9219H136.547L137.719 62.0938V63.2656C137.719 66.1302 136.286 67.5625 133.422 67.5625H131.859C130.036 67.5625 128.669 67.1068 127.758 66.1953ZM140.453 60.9219H144.359V65.6094H146.703V53.8906H144.359V58.5781H140.453V53.8906H138.109V65.6094H140.453V60.9219ZM143.578 66.3906V62.875H142.406V67.5625H138.5L137.328 66.3906V53.1094H141.234L142.406 54.2812V57.7969H143.578V53.1094H147.484L148.656 54.2812V67.5625H144.75L143.578 66.3906ZM154.125 53.8906H152.562C150.219 53.8906 149.047 55.0625 149.047 57.4062V62.0938C149.047 64.4375 150.219 65.6094 152.562 65.6094H154.125C156.469 65.6094 157.641 64.4375 157.641 62.0938V57.4062C157.641 55.0625 156.469 53.8906 154.125 53.8906ZM155.297 57.4062V62.0938C155.297 62.875 154.906 63.2656 154.125 63.2656H152.562C151.781 63.2656 151.391 62.875 151.391 62.0938V57.4062C151.391 56.625 151.781 56.2344 152.562 56.2344H154.125C154.906 56.2344 155.297 56.625 155.297 57.4062ZM153.344 62.4844H154.125C154.385 62.4844 154.516 62.3542 154.516 62.0938V58.1875C153.734 58.1875 153.344 58.5781 153.344 59.3594V62.4844ZM149.633 66.1953C148.721 65.2839 148.266 63.9167 148.266 62.0938V57.4062C148.266 54.5417 149.698 53.1094 152.562 53.1094H154.125C155.948 53.1094 157.315 53.5651 158.227 54.4766C159.138 55.388 159.594 56.7552 159.594 58.5781V63.2656C159.594 66.1302 158.161 67.5625 155.297 67.5625H153.734C151.911 67.5625 150.544 67.1068 149.633 66.1953ZM165.062 53.8906H163.5C161.156 53.8906 159.984 55.0625 159.984 57.4062V62.0938C159.984 64.4375 161.156 65.6094 163.5 65.6094H165.062C167.406 65.6094 168.578 64.4375 168.578 62.0938V57.4062C168.578 55.0625 167.406 53.8906 165.062 53.8906ZM166.234 57.4062V62.0938C166.234 62.875 165.844 63.2656 165.062 63.2656H163.5C162.719 63.2656 162.328 62.875 162.328 62.0938V57.4062C162.328 56.625 162.719 56.2344 163.5 56.2344H165.062C165.844 56.2344 166.234 56.625 166.234 57.4062ZM164.281 62.4844H165.062C165.323 62.4844 165.453 62.3542 165.453 62.0938V58.1875C164.672 58.1875 164.281 58.5781 164.281 59.3594V62.4844ZM160.57 66.1953C159.659 65.2839 159.203 63.9167 159.203 62.0938V57.4062C159.203 54.5417 160.635 53.1094 163.5 53.1094H165.062C166.885 53.1094 168.253 53.5651 169.164 54.4766C170.076 55.388 170.531 56.7552 170.531 58.5781V63.2656C170.531 66.1302 169.099 67.5625 166.234 67.5625H164.672C162.849 67.5625 161.482 67.1068 160.57 66.1953ZM170.922 53.8906V65.6094H178.734V63.2656H173.266V53.8906H170.922ZM170.141 66.3906V53.1094H174.047L175.219 54.2812V62.4844H179.516L180.688 63.6562V67.5625H171.312L170.141 66.3906ZM186.156 53.8906H184.594C182.25 53.8906 181.078 55.0625 181.078 57.4062C181.078 59.75 182.25 60.9219 184.594 60.9219H186.156C186.938 60.9219 187.328 61.3125 187.328 62.0938C187.328 62.875 186.938 63.2656 186.156 63.2656H184.594C183.812 63.2656 183.422 63.0052 183.422 62.4844H181.078C181.078 64.5677 182.25 65.6094 184.594 65.6094H186.156C188.5 65.6094 189.672 64.4375 189.672 62.0938C189.672 59.75 188.5 58.5781 186.156 58.5781H184.594C183.812 58.5781 183.422 58.1875 183.422 57.4062C183.422 56.625 183.812 56.2344 184.594 56.2344H186.156C186.938 56.2344 187.328 56.4948 187.328 57.0156H189.672C189.672 54.9323 188.5 53.8906 186.156 53.8906ZM182.039 61.1328C180.878 60.4714 180.297 59.2292 180.297 57.4062C180.297 54.5417 181.729 53.1094 184.594 53.1094H186.156C187.901 53.1094 189.247 53.5781 190.195 54.5156C191.148 55.4479 191.625 56.9323 191.625 58.9688H189.469C190.385 59.4896 190.974 60.1406 191.234 60.9219C191.495 61.7031 191.625 62.4844 191.625 63.2656C191.625 66.1302 190.193 67.5625 187.328 67.5625H185.766C184.021 67.5625 182.672 67.0938 181.719 66.1562C180.771 65.224 180.297 63.7396 180.297 61.7031H182.453C182.297 61.5312 182.159 61.3411 182.039 61.1328Z" fill="black"/>
<path d="M96.502 80.5586C96.502 81.0469 96.2578 81.291 95.7695 81.291H94.793C94.3047 81.291 94.0605 81.0469 94.0605 80.5586V75.4316H92.5957V80.5586C92.5957 82.0234 93.3281 82.7559 94.793 82.7559H95.7695C97.2344 82.7559 97.9668 82.0234 97.9668 80.5586V75.4316H96.502V80.5586ZM95.2812 80.8027H95.7695C95.9323 80.8027 96.0137 80.7214 96.0137 80.5586V74.9434H98.4551L99.1875 75.6758V81.291C99.1875 83.0814 98.2923 83.9766 96.502 83.9766H95.5254C94.3861 83.9766 93.5316 83.6917 92.9619 83.1221C92.3923 82.5524 92.1074 81.6979 92.1074 80.5586V74.9434H94.5488L95.2812 75.6758V80.8027ZM100.896 78.3418L103.211 82.7559H104.803V75.4316H103.338V79.8457L101.023 75.4316H99.4316V82.7559H100.896V78.3418ZM102.918 83.2441L102.117 81.7207V83.9766H99.6758L98.9434 83.2441V74.9434H101.316L102.049 75.6758L102.85 77.1992V74.9434H105.291L106.023 75.6758V83.9766H103.65L102.918 83.2441ZM107.732 82.7559V75.4316H106.268V82.7559H107.732ZM105.779 83.2441V74.9434H108.221L108.953 75.6758V83.9766H106.512L105.779 83.2441ZM113.572 75.4316L112.127 80.8223L110.682 75.4316H109.168L111.131 82.7559H113.123L115.086 75.4316H113.572ZM112.396 77.9414L113.201 74.9434H115.721L116.453 75.6758L114.227 83.9766H111.492L110.76 83.2441L108.533 74.9434H111.053L111.785 75.6758L112.396 77.9414ZM117.986 81.291V79.8262H120.916V78.3613H117.986V76.8965H121.404V75.4316H116.521V82.7559H121.404V81.291H117.986ZM121.404 78.1172L122.137 78.6055V81.0469L122.625 81.5352V83.9766H116.766L116.033 83.2441V74.9434H121.893L122.625 75.6758V78.1172H121.404ZM122.869 75.4316V82.7559H124.334V79.8262H125.018L126.712 82.7559H128.401L126.688 79.7871C127.723 79.4746 128.24 78.7552 128.24 77.6289C128.24 76.1641 127.508 75.4316 126.043 75.4316H122.869ZM124.334 76.8965H126.043C126.531 76.8965 126.775 77.1406 126.775 77.6289C126.775 78.1172 126.531 78.3613 126.043 78.3613H124.334V76.8965ZM128.606 75.7979C129.176 76.3675 129.461 77.222 129.461 78.3613C129.461 79.7285 129.025 80.5456 128.152 80.8125L129.983 83.9766H127.161L126.429 83.2441L125.555 81.7305V83.9766H123.113L122.381 83.2441V74.9434H126.043C127.182 74.9434 128.037 75.2282 128.606 75.7979ZM132.879 75.4316H131.902C130.438 75.4316 129.705 76.1641 129.705 77.6289C129.705 79.0938 130.438 79.8262 131.902 79.8262H132.879C133.367 79.8262 133.611 80.0703 133.611 80.5586C133.611 81.0469 133.367 81.291 132.879 81.291H131.902C131.414 81.291 131.17 81.1283 131.17 80.8027H129.705C129.705 82.1048 130.438 82.7559 131.902 82.7559H132.879C134.344 82.7559 135.076 82.0234 135.076 80.5586C135.076 79.0938 134.344 78.3613 132.879 78.3613H131.902C131.414 78.3613 131.17 78.1172 131.17 77.6289C131.17 77.1406 131.414 76.8965 131.902 76.8965H132.879C133.367 76.8965 133.611 77.0592 133.611 77.3848H135.076C135.076 76.0827 134.344 75.4316 132.879 75.4316ZM130.306 79.958C129.58 79.5446 129.217 78.7682 129.217 77.6289C129.217 75.8385 130.112 74.9434 131.902 74.9434H132.879C133.969 74.9434 134.811 75.2363 135.403 75.8223C135.999 76.4049 136.297 77.3327 136.297 78.6055H134.949C135.522 78.931 135.89 79.3379 136.053 79.8262C136.215 80.3145 136.297 80.8027 136.297 81.291C136.297 83.0814 135.402 83.9766 133.611 83.9766H132.635C131.544 83.9766 130.701 83.6836 130.105 83.0977C129.513 82.515 129.217 81.5872 129.217 80.3145H130.564C130.467 80.207 130.381 80.0882 130.306 79.958ZM138.006 82.7559V75.4316H136.541V82.7559H138.006ZM136.053 83.2441V74.9434H138.494L139.227 75.6758V83.9766H136.785L136.053 83.2441ZM142.889 76.8965H144.842V75.4316H139.471V76.8965H141.424V82.7559H142.889V76.8965ZM138.982 77.3848V74.9434H145.33L146.062 75.6758V78.1172H144.109V83.9766H141.668L140.936 83.2441V78.1172H139.715L138.982 77.3848ZM148.748 77.4873L147.688 75.4316H146.048L148.016 79.2646V82.7559H149.48V79.2744L151.448 75.4316H149.808L148.748 77.4873ZM147.527 83.2441V79.3818L145.247 74.9434H147.991L148.724 75.6758L148.929 76.0713L149.505 74.9434H152.249L152.981 75.6758L150.701 80.124V83.9766H148.26L147.527 83.2441ZM154.119 84.2207V81.291H152.654V84.2207H154.119ZM152.166 84.709V80.8027H154.607L155.34 81.5352V85.4414H152.898L152.166 84.709ZM163.436 77.6289C163.436 76.1641 162.703 75.4316 161.238 75.4316H160.262C158.797 75.4316 158.064 76.1641 158.064 77.6289V80.5586C158.064 82.0234 158.797 82.7559 160.262 82.7559H161.238C162.703 82.7559 163.436 82.0234 163.436 80.5586V80.3145H161.971V80.5586C161.971 81.0469 161.727 81.291 161.238 81.291H160.262C159.773 81.291 159.529 81.0469 159.529 80.5586V77.6289C159.529 77.1406 159.773 76.8965 160.262 76.8965H161.238C161.727 76.8965 161.971 77.1406 161.971 77.6289V77.873H163.436V77.6289ZM158.431 83.1221C157.861 82.5524 157.576 81.6979 157.576 80.5586V77.6289C157.576 75.8385 158.471 74.9434 160.262 74.9434H161.238C162.378 74.9434 163.232 75.2282 163.802 75.7979C164.371 76.3675 164.656 77.222 164.656 78.3613V79.0938H162.215L161.482 78.3613V78.1172H160.994C160.831 78.1172 160.75 78.1986 160.75 78.3613V80.8027H161.238C161.401 80.8027 161.482 80.7214 161.482 80.5586V79.8262H163.924L164.656 80.5586V81.291C164.656 83.0814 163.761 83.9766 161.971 83.9766H160.994C159.855 83.9766 159 83.6917 158.431 83.1221ZM168.074 75.4316H167.098C165.633 75.4316 164.9 76.1641 164.9 77.6289V80.5586C164.9 82.0234 165.633 82.7559 167.098 82.7559H168.074C169.539 82.7559 170.271 82.0234 170.271 80.5586V77.6289C170.271 76.1641 169.539 75.4316 168.074 75.4316ZM168.807 77.6289V80.5586C168.807 81.0469 168.562 81.291 168.074 81.291H167.098C166.609 81.291 166.365 81.0469 166.365 80.5586V77.6289C166.365 77.1406 166.609 76.8965 167.098 76.8965H168.074C168.562 76.8965 168.807 77.1406 168.807 77.6289ZM167.586 80.8027H168.074C168.237 80.8027 168.318 80.7214 168.318 80.5586V78.1172C167.83 78.1172 167.586 78.3613 167.586 78.8496V80.8027ZM165.267 83.1221C164.697 82.5524 164.412 81.6979 164.412 80.5586V77.6289C164.412 75.8385 165.307 74.9434 167.098 74.9434H168.074C169.214 74.9434 170.068 75.2282 170.638 75.7979C171.207 76.3675 171.492 77.222 171.492 78.3613V81.291C171.492 83.0814 170.597 83.9766 168.807 83.9766H167.83C166.691 83.9766 165.836 83.6917 165.267 83.1221ZM171.736 75.4316V82.7559H176.619V81.291H173.201V75.4316H171.736ZM171.248 83.2441V74.9434H173.689L174.422 75.6758V80.8027H177.107L177.84 81.5352V83.9766H171.98L171.248 83.2441ZM178.084 75.4316V82.7559H182.967V81.291H179.549V75.4316H178.084ZM177.596 83.2441V74.9434H180.037L180.77 75.6758V80.8027H183.455L184.188 81.5352V83.9766H178.328L177.596 83.2441ZM185.896 81.291V79.8262H188.826V78.3613H185.896V76.8965H189.314V75.4316H184.432V82.7559H189.314V81.291H185.896ZM189.314 78.1172L190.047 78.6055V81.0469L190.535 81.5352V83.9766H184.676L183.943 83.2441V74.9434H189.803L190.535 75.6758V78.1172H189.314ZM193.953 75.4316H192.977C191.512 75.4316 190.779 76.1641 190.779 77.6289V80.5586C190.779 82.0234 191.512 82.7559 192.977 82.7559H193.953C195.418 82.7559 196.15 82.0234 196.15 80.5586V78.3613H193.709V79.8262H194.686V80.5586C194.686 81.0469 194.441 81.291 193.953 81.291H192.977C192.488 81.291 192.244 81.0469 192.244 80.5586V77.6289C192.244 77.1406 192.488 76.8965 192.977 76.8965H193.953C194.441 76.8965 194.686 77.0592 194.686 77.3848H196.15C196.15 76.0827 195.418 75.4316 193.953 75.4316ZM193.709 80.8027L193.221 80.3145V80.8027H193.709ZM196.297 75.7637C196.85 76.3073 197.127 77.1732 197.127 78.3613V81.0469C197.127 82.8372 196.232 83.7324 194.441 83.7324H193.465C192.407 83.7324 191.613 83.4688 191.082 82.9414C190.555 82.4108 190.291 81.6165 190.291 80.5586V77.6289C190.291 75.8385 191.186 74.9434 192.977 74.9434H193.953C194.965 74.9434 195.747 75.2168 196.297 75.7637ZM199.08 81.291V79.8262H202.01V78.3613H199.08V76.8965H202.498V75.4316H197.615V82.7559H202.498V81.291H199.08ZM202.498 78.1172L203.23 78.6055V81.0469L203.719 81.5352V83.9766H197.859L197.127 83.2441V74.9434H202.986L203.719 75.6758V78.1172H202.498ZM205.428 84.2207V81.291H203.963V84.2207H205.428ZM203.475 84.709V80.8027H205.916L206.648 81.5352V85.4414H204.207L203.475 84.709ZM119.227 91.8262H121.668V94.7559H123.133V87.4316H121.668V90.3613H119.227V87.4316H117.762V94.7559H119.227V91.8262ZM121.18 95.2441V93.0469H120.447V95.9766H118.006L117.273 95.2441V86.9434H119.715L120.447 87.6758V89.873H121.18V86.9434H123.621L124.354 87.6758V95.9766H121.912L121.18 95.2441ZM126.062 94.7559V87.4316H124.598V94.7559H126.062ZM124.109 95.2441V86.9434H126.551L127.283 87.6758V95.9766H124.842L124.109 95.2441ZM130.701 87.4316H129.725C128.26 87.4316 127.527 88.1641 127.527 89.6289V92.5586C127.527 94.0234 128.26 94.7559 129.725 94.7559H130.701C132.166 94.7559 132.898 94.0234 132.898 92.5586V90.3613H130.457V91.8262H131.434V92.5586C131.434 93.0469 131.189 93.291 130.701 93.291H129.725C129.236 93.291 128.992 93.0469 128.992 92.5586V89.6289C128.992 89.1406 129.236 88.8965 129.725 88.8965H130.701C131.189 88.8965 131.434 89.0592 131.434 89.3848H132.898C132.898 88.0827 132.166 87.4316 130.701 87.4316ZM130.457 92.8027L129.969 92.3145V92.8027H130.457ZM133.045 87.7637C133.598 88.3073 133.875 89.1732 133.875 90.3613V93.0469C133.875 94.8372 132.98 95.7324 131.189 95.7324H130.213C129.155 95.7324 128.361 95.4688 127.83 94.9414C127.303 94.4108 127.039 93.6165 127.039 92.5586V89.6289C127.039 87.8385 127.934 86.9434 129.725 86.9434H130.701C131.714 86.9434 132.495 87.2168 133.045 87.7637ZM135.828 91.8262H138.27V94.7559H139.734V87.4316H138.27V90.3613H135.828V87.4316H134.363V94.7559H135.828V91.8262ZM137.781 95.2441V93.0469H137.049V95.9766H134.607L133.875 95.2441V86.9434H136.316L137.049 87.6758V89.873H137.781V86.9434H140.223L140.955 87.6758V95.9766H138.514L137.781 95.2441ZM144.373 87.4316H143.396C141.932 87.4316 141.199 88.1641 141.199 89.6289C141.199 91.0938 141.932 91.8262 143.396 91.8262H144.373C144.861 91.8262 145.105 92.0703 145.105 92.5586C145.105 93.0469 144.861 93.291 144.373 93.291H143.396C142.908 93.291 142.664 93.1283 142.664 92.8027H141.199C141.199 94.1048 141.932 94.7559 143.396 94.7559H144.373C145.838 94.7559 146.57 94.0234 146.57 92.5586C146.57 91.0938 145.838 90.3613 144.373 90.3613H143.396C142.908 90.3613 142.664 90.1172 142.664 89.6289C142.664 89.1406 142.908 88.8965 143.396 88.8965H144.373C144.861 88.8965 145.105 89.0592 145.105 89.3848H146.57C146.57 88.0827 145.838 87.4316 144.373 87.4316ZM141.8 91.958C141.074 91.5446 140.711 90.7682 140.711 89.6289C140.711 87.8385 141.606 86.9434 143.396 86.9434H144.373C145.464 86.9434 146.305 87.2363 146.897 87.8223C147.493 88.4049 147.791 89.3327 147.791 90.6055H146.443C147.016 90.931 147.384 91.3379 147.547 91.8262C147.71 92.3145 147.791 92.8027 147.791 93.291C147.791 95.0814 146.896 95.9766 145.105 95.9766H144.129C143.038 95.9766 142.195 95.6836 141.6 95.0977C141.007 94.515 140.711 93.5872 140.711 92.3145H142.059C141.961 92.207 141.875 92.0882 141.8 91.958ZM153.406 89.6289C153.406 88.1641 152.674 87.4316 151.209 87.4316H150.232C148.768 87.4316 148.035 88.1641 148.035 89.6289V92.5586C148.035 94.0234 148.768 94.7559 150.232 94.7559H151.209C152.674 94.7559 153.406 94.0234 153.406 92.5586V92.3145H151.941V92.5586C151.941 93.0469 151.697 93.291 151.209 93.291H150.232C149.744 93.291 149.5 93.0469 149.5 92.5586V89.6289C149.5 89.1406 149.744 88.8965 150.232 88.8965H151.209C151.697 88.8965 151.941 89.1406 151.941 89.6289V89.873H153.406V89.6289ZM148.401 95.1221C147.832 94.5524 147.547 93.6979 147.547 92.5586V89.6289C147.547 87.8385 148.442 86.9434 150.232 86.9434H151.209C152.348 86.9434 153.203 87.2282 153.772 87.7979C154.342 88.3675 154.627 89.222 154.627 90.3613V91.0938H152.186L151.453 90.3613V90.1172H150.965C150.802 90.1172 150.721 90.1986 150.721 90.3613V92.8027H151.209C151.372 92.8027 151.453 92.7214 151.453 92.5586V91.8262H153.895L154.627 92.5586V93.291C154.627 95.0814 153.732 95.9766 151.941 95.9766H150.965C149.826 95.9766 148.971 95.6917 148.401 95.1221ZM156.336 91.8262H158.777V94.7559H160.242V87.4316H158.777V90.3613H156.336V87.4316H154.871V94.7559H156.336V91.8262ZM158.289 95.2441V93.0469H157.557V95.9766H155.115L154.383 95.2441V86.9434H156.824L157.557 87.6758V89.873H158.289V86.9434H160.73L161.463 87.6758V95.9766H159.021L158.289 95.2441ZM164.881 87.4316H163.904C162.439 87.4316 161.707 88.1641 161.707 89.6289V92.5586C161.707 94.0234 162.439 94.7559 163.904 94.7559H164.881C166.346 94.7559 167.078 94.0234 167.078 92.5586V89.6289C167.078 88.1641 166.346 87.4316 164.881 87.4316ZM165.613 89.6289V92.5586C165.613 93.0469 165.369 93.291 164.881 93.291H163.904C163.416 93.291 163.172 93.0469 163.172 92.5586V89.6289C163.172 89.1406 163.416 88.8965 163.904 88.8965H164.881C165.369 88.8965 165.613 89.1406 165.613 89.6289ZM164.393 92.8027H164.881C165.044 92.8027 165.125 92.7214 165.125 92.5586V90.1172C164.637 90.1172 164.393 90.3613 164.393 90.8496V92.8027ZM162.073 95.1221C161.504 94.5524 161.219 93.6979 161.219 92.5586V89.6289C161.219 87.8385 162.114 86.9434 163.904 86.9434H164.881C166.02 86.9434 166.875 87.2282 167.444 87.7979C168.014 88.3675 168.299 89.222 168.299 90.3613V93.291C168.299 95.0814 167.404 95.9766 165.613 95.9766H164.637C163.497 95.9766 162.643 95.6917 162.073 95.1221ZM171.717 87.4316H170.74C169.275 87.4316 168.543 88.1641 168.543 89.6289V92.5586C168.543 94.0234 169.275 94.7559 170.74 94.7559H171.717C173.182 94.7559 173.914 94.0234 173.914 92.5586V89.6289C173.914 88.1641 173.182 87.4316 171.717 87.4316ZM172.449 89.6289V92.5586C172.449 93.0469 172.205 93.291 171.717 93.291H170.74C170.252 93.291 170.008 93.0469 170.008 92.5586V89.6289C170.008 89.1406 170.252 88.8965 170.74 88.8965H171.717C172.205 88.8965 172.449 89.1406 172.449 89.6289ZM171.229 92.8027H171.717C171.88 92.8027 171.961 92.7214 171.961 92.5586V90.1172C171.473 90.1172 171.229 90.3613 171.229 90.8496V92.8027ZM168.909 95.1221C168.34 94.5524 168.055 93.6979 168.055 92.5586V89.6289C168.055 87.8385 168.95 86.9434 170.74 86.9434H171.717C172.856 86.9434 173.711 87.2282 174.28 87.7979C174.85 88.3675 175.135 89.222 175.135 90.3613V93.291C175.135 95.0814 174.24 95.9766 172.449 95.9766H171.473C170.333 95.9766 169.479 95.6917 168.909 95.1221ZM175.379 87.4316V94.7559H180.262V93.291H176.844V87.4316H175.379ZM174.891 95.2441V86.9434H177.332L178.064 87.6758V92.8027H180.75L181.482 93.5352V95.9766H175.623L174.891 95.2441Z" fill="black"/>
<path d="M84.6348 72.0527C80.8262 72.0527 78.9219 73.957 78.9219 77.7656V87.9219C78.9219 91.7305 80.8262 93.6348 84.6348 93.6348H86.5391V89.8262H84.6348C83.3652 89.8262 82.7305 89.1914 82.7305 87.9219V77.7656C82.7305 76.4961 83.3652 75.8613 84.6348 75.8613H86.5391V72.0527H84.6348ZM79.874 94.5869C78.3929 93.1058 77.6523 90.8841 77.6523 87.9219V77.7656C77.6523 73.1107 79.9798 70.7832 84.6348 70.7832H87.8086L89.7129 72.6875V79.0352H86.5391C86.1159 79.0352 85.9043 79.2467 85.9043 79.6699V88.5566H87.8086L89.7129 90.4609V96.8086H86.5391C83.5768 96.8086 81.3551 96.068 79.874 94.5869Z" fill="black"/>
<path d="M211.826 93.6348C215.635 93.6348 217.539 91.7305 217.539 87.9219V77.7656C217.539 73.957 215.635 72.0527 211.826 72.0527H209.922V75.8613H211.826C213.096 75.8613 213.73 76.4961 213.73 77.7656V87.9219C213.73 89.1914 213.096 89.8262 211.826 89.8262H209.922V93.6348H211.826ZM208.652 77.1309V70.7832H211.826C214.788 70.7832 216.807 71.7269 217.882 73.6143C219.769 74.6891 220.713 76.7077 220.713 79.6699V89.8262C220.713 94.4811 218.385 96.8086 213.73 96.8086H210.557L208.652 94.9043V88.5566H211.826C212.249 88.5566 212.461 88.3451 212.461 87.9219V79.0352H210.557L208.652 77.1309Z" fill="black"/>
</g>
<defs>
<clipPath id="clip0_6_25">
<rect width="304" height="138" fill="white" transform="translate(9.40424) rotate(3.90755)"/>
</clipPath>
</defs>
</svg>
