<svg width="439" height="75" viewBox="0 0 439 75" fill="none" xmlns="http://www.w3.org/2000/svg">
<path d="M30.0273 4.93945H22.0195C10.0078 4.93945 4.00195 10.9453 4.00195 22.957C4.00195 34.9688 10.0078 40.9746 22.0195 40.9746H30.0273C34.0312 40.9746 36.0332 42.9766 36.0332 46.9805C36.0332 50.9844 34.0312 52.9863 30.0273 52.9863H22.0195C18.0156 52.9863 16.0137 51.6517 16.0137 48.9824H4.00195C4.00195 59.6595 10.0078 64.998 22.0195 64.998H30.0273C42.0391 64.998 48.0449 58.9922 48.0449 46.9805C48.0449 34.9688 42.0391 28.9629 30.0273 28.9629H22.0195C18.0156 28.9629 16.0137 26.9609 16.0137 22.957C16.0137 18.9531 18.0156 16.9512 22.0195 16.9512H30.0273C34.0312 16.9512 36.0332 18.2858 36.0332 20.9551H48.0449C48.0449 10.278 42.0391 4.93945 30.0273 4.93945ZM8.92676 42.0557C2.97428 38.6657 -0.00195312 32.2995 -0.00195312 22.957C-0.00195312 8.27604 7.33854 0.935547 22.0195 0.935547H30.0273C38.9694 0.935547 45.8695 3.33789 50.7275 8.14258C55.6123 12.9206 58.0547 20.528 58.0547 30.9648H47.0039C51.7018 33.6341 54.7181 36.9707 56.0527 40.9746C57.3874 44.9785 58.0547 48.9824 58.0547 52.9863C58.0547 67.6673 50.7142 75.0078 36.0332 75.0078H28.0254C19.0833 75.0078 12.1699 72.6055 7.28516 67.8008C2.42708 63.0228 -0.00195312 55.4154 -0.00195312 44.9785H11.0488C10.248 44.0977 9.54069 43.1234 8.92676 42.0557ZM104.1 22.957C104.1 10.9453 98.0938 4.93945 86.082 4.93945H78.0742C66.0625 4.93945 60.0566 10.9453 60.0566 22.957V46.9805C60.0566 58.9922 66.0625 64.998 78.0742 64.998H86.082C98.0938 64.998 104.1 58.9922 104.1 46.9805V44.9785H92.0879V46.9805C92.0879 50.9844 90.0859 52.9863 86.082 52.9863H78.0742C74.0703 52.9863 72.0684 50.9844 72.0684 46.9805V22.957C72.0684 18.9531 74.0703 16.9512 78.0742 16.9512H86.082C90.0859 16.9512 92.0879 18.9531 92.0879 22.957V24.959H104.1V22.957ZM63.0596 68.001C58.3883 63.3298 56.0527 56.3229 56.0527 46.9805V22.957C56.0527 8.27604 63.3932 0.935547 78.0742 0.935547H86.082C95.4245 0.935547 102.431 3.27116 107.103 7.94238C111.774 12.6136 114.109 19.6204 114.109 28.9629V34.9688H94.0898L88.084 28.9629V26.9609H84.0801C82.7454 26.9609 82.0781 27.6283 82.0781 28.9629V48.9824H86.082C87.4167 48.9824 88.084 48.3151 88.084 46.9805V40.9746H108.104L114.109 46.9805V52.9863C114.109 67.6673 106.769 75.0078 92.0879 75.0078H84.0801C74.7376 75.0078 67.7308 72.6722 63.0596 68.001ZM128.123 40.9746H148.143V64.998H160.154V4.93945H148.143V28.9629H128.123V4.93945H116.111V64.998H128.123V40.9746ZM144.139 69.002V50.9844H138.133V75.0078H118.113L112.107 69.002V0.935547H132.127L138.133 6.94141V24.959H144.139V0.935547H164.158L170.164 6.94141V75.0078H150.145L144.139 69.002ZM184.178 52.9863V40.9746H208.201V28.9629H184.178V16.9512H212.205V4.93945H172.166V64.998H212.205V52.9863H184.178ZM212.205 26.9609L218.211 30.9648V50.9844L222.215 54.9883V75.0078H174.168L168.162 69.002V0.935547H216.209L222.215 6.94141V26.9609H212.205ZM224.217 4.93945V64.998H250.242C262.254 64.998 268.26 58.9922 268.26 46.9805V22.957C268.26 10.9453 262.254 4.93945 250.242 4.93945H224.217ZM246.238 26.9609V48.9824H250.242C251.577 48.9824 252.244 48.3151 252.244 46.9805V28.9629C252.244 27.6283 251.577 26.9609 250.242 26.9609H246.238ZM236.229 16.9512H250.242C254.246 16.9512 256.248 18.9531 256.248 22.957V46.9805C256.248 50.9844 254.246 52.9863 250.242 52.9863H236.229V16.9512ZM220.213 69.002V0.935547H250.242C259.585 0.935547 266.591 3.27116 271.263 7.94238C275.934 12.6136 278.27 19.6204 278.27 28.9629V52.9863C278.27 67.6673 270.929 75.0078 256.248 75.0078H226.219L220.213 69.002ZM312.303 46.9805C312.303 50.9844 310.301 52.9863 306.297 52.9863H298.289C294.285 52.9863 292.283 50.9844 292.283 46.9805V4.93945H280.271V46.9805C280.271 58.9922 286.277 64.998 298.289 64.998H306.297C318.309 64.998 324.314 58.9922 324.314 46.9805V4.93945H312.303V46.9805ZM302.293 48.9824H306.297C307.632 48.9824 308.299 48.3151 308.299 46.9805V0.935547H328.318L334.324 6.94141V52.9863C334.324 67.6673 326.984 75.0078 312.303 75.0078H304.295C294.952 75.0078 287.946 72.6722 283.274 68.001C278.603 63.3298 276.268 56.3229 276.268 46.9805V0.935547H296.287L302.293 6.94141V48.9824ZM336.326 4.93945V64.998H376.365V52.9863H348.338V4.93945H336.326ZM332.322 69.002V0.935547H352.342L358.348 6.94141V48.9824H380.369L386.375 54.9883V75.0078H338.328L332.322 69.002ZM400.389 52.9863V40.9746H424.412V28.9629H400.389V16.9512H428.416V4.93945H388.377V64.998H428.416V52.9863H400.389ZM428.416 26.9609L434.422 30.9648V50.9844L438.426 54.9883V75.0078H390.379L384.373 69.002V0.935547H432.42L438.426 6.94141V26.9609H428.416Z" fill="#49B2F8"/>
</svg>
