<svg xmlns="http://www.w3.org/2000/svg" width="576" height="693" style="shape-rendering:geometricPrecision;text-rendering:geometricPrecision;image-rendering:optimizeQuality;fill-rule:evenodd;clip-rule:evenodd"><path fill="#6b6c6d" d="M285.5-.5h3c1.8 1 3.5 2.4 5 4-2.2 0-4.2-.7-6-2-1.6.3-3 1-4 2a7 7 0 0 1 2-4Z" style="opacity:1"/><path fill="#6d6d6f" d="M283.5 3.5c.2 2.7 0 5.4-.5 8a6.5 6.5 0 0 1-4.5 1c1-.7 2.2-1.4 3.5-2 .2-2.5.7-4.9 1.5-7Z" style="opacity:1"/><path fill="#414244" d="M301.5 7.5c2.4.8 4.4 2.2 6 4-1.6.9-3.3 1.4-5 1.5.1-1.7-.2-3.6-1-5.5Z" style="opacity:1"/><path fill="#545556" d="M308.5 11.5c4 1.6 7.6 3.6 11 6l-8-3c-2 .7-3-.3-3-3Z" style="opacity:1"/><path fill="#70737a" d="M364.5 51.5c2.4 1.7 5 3 8 4l40 22a955.7 955.7 0 0 1 48 29c.7.9 1.7 1.2 3 1a884.4 884.4 0 0 1 31 20.5 5.8 5.8 0 0 0 5.5.5l1 3c8.7 6.3 17.9 12 27.5 17 1 2 2.7 3 5 3a36 36 0 0 0 7 4c6.2 2.6 12.2 5.7 18 9.5 1.8 2 3 4.2 4 6.5-3 .2-5.7 1.2-8 3l-26 9.5c-2.7 3-5.7 5.7-9 8-9.1 4.4-18.1 9-27 14-19.7 13.8-39 28.2-58 43-24.5 11.7-49.1 23-74 34a659.5 659.5 0 0 0-51 35 94 94 0 0 0-15 8c-2.2 1.5-4 3.4-5.5 5.5a45 45 0 0 1-15.5-6 3 3 0 0 0-1-3 75.8 75.8 0 0 0-30-14.5l-56-29c-3.8-2.9-7.3-6-10.5-9.5-1.8-2.8-3.6-5.4-5.5-8-14-10-27.6-20.5-41-31.5l-16-9c-7.4-3-14.8-6.2-22-9.5a1532 1532 0 0 1-44-19.5 44 44 0 0 0-12-6.5c-5-4.4-10.4-8.4-16-12-.7-.9-1.7-1.2-3-1-.2-1.6.1-3.1 1-4.5a268.1 268.1 0 0 0 34-20c-.8-1-1.2-2.2-1-3.5 1.7.1 3.2.8 4.5 2a71 71 0 0 1 7.5-3c1.3.2 2.3-.1 3-1a30 30 0 0 0 14-8c19.7-10.8 39-22.3 58-34.5a782.2 782.2 0 0 0 96-56c10.7-3.7 20.4-9 29-16 10-4 19.2-9.5 27.5-16.5 16 9.4 32.5 17.9 49.5 25.5 7.7 5.9 16 10.7 25 14.5Z" style="opacity:1"/><path fill="#727373" d="M266.5 17.5c.5 4.5-.8 5.5-4 3-1 .6-2 1-3 1 2-1.7 4.4-3 7-4Z" style="opacity:1"/><path fill="#444547" d="M319.5 17.5a289 289 0 0 1 18 8c-1.6-.2-3.1.1-4.5 1-1.4-.7-2.9-1.2-4.5-1.5l2-1c-3-2-5.8-1.9-8.5.5a15.4 15.4 0 0 1-2.5-7Z" style="opacity:1"/><path fill="#6e6e6f" d="M259.5 21.5c-.5 2-1.4 4-2.5 6a5.2 5.2 0 0 0-3.5-3 8.9 8.9 0 0 1 6-3Z" style="opacity:1"/><path fill="#656667" d="M252.5 24.5c.3 4.8-1.7 6.2-6 4 1.7-1.7 3.7-3 6-4Z" style="opacity:1"/><path fill="#1c1d1f" d="M293.5 3.5c3.3.3 6 1.6 8 4 .8 2 1.1 3.8 1 5.5 1.7-.1 3.4-.6 5-1.5h1c0 2.7 1 3.7 3 3l8 3c.3 2.5 1 4.8 2.5 7 2.7-2.4 5.5-2.6 8.5-.5l-2 1c1.6.3 3.1.8 4.5 1.5a6.5 6.5 0 0 1 4.5-1l4 3c0 1 .2 1.8 1 2.5 4.5.7 8.2 2.7 11 6 1.6.5 3.3.7 5 .5 3.2 1.4 6.2 3.1 9 5 .2 1.4.7 2.8 1.5 4 1-1.2 1.7-1 2.5.5l-3 1 8 3c-4 1.5-8 1.7-12 .5-9-3.8-17.3-8.6-25-14.5-17-7.6-33.5-16.1-49.5-25.5A99.6 99.6 0 0 1 262.5 28a93.7 93.7 0 0 1-29 16 782.2 782.2 0 0 1-96 56 996.6 996.6 0 0 1-58 34.5c-.5 0-.9-.4-1-1a19 19 0 0 1 3-5c-1.5-1.7-1.2-2.8 1-3.5-.6-.4-.9-.9-1-1.5 0-.7.3-1 1-1 2.3.3 4.3-.4 6-2l1 2c1-1.5 1.7-3.2 2-5 .5-1.4 1.5-2 3-2 1 0 2-.4 3-1 .8.9 1.3 1.9 1.5 3a12 12 0 0 0 3.5-6c1.2 2.4 2.5 2.5 4 .5-.8-1-1.2-2.2-1-3.5 1.8-2 4.2-3.4 7-4 2.3-.7 4.6-1 7-1 2.1-1 3.8-2.5 5-4.5 1-.5 2-.6 3-.5v-4h1a6.6 6.6 0 0 0 5-3c4.9-1.8 9.6-4.1 14-7 3.6.2 6.3-1.1 8-4 1.5-1.2 3.1-2.2 5-3 5.8-2 11.8-3.9 18-5.5.8-1 1.8-1.6 3-2-1.1-1.8-.4-2.6 2-2.5v-3c7.6-.4 13.7-3.4 18.5-9 .4.5 1 .8 1.5 1a6 6 0 0 1 5-2v-5c.3-.8 1-1.2 2-1 2.3-.3 4.5 0 6.5 1a10 10 0 0 1 3.5-3c1.5-.6 3-1.2 4.5-2-1.1-2.2-.6-4 1.5-5.5 2.3-.2 4.4-.7 6.5-1.5.4.5 1 .8 1.5 1 1-1.5 1.3-3.2 1-5 3.2-2.5 7-4.1 11-5 4.3 2.2 6.3.8 6-4h1c1.6.4 2.8 1.4 3.5 3 1.1-2 2-4 2.5-6 1 0 2-.4 3-1 3.2 2.5 4.5 1.5 4-3l12-5c1.6.2 3.1-.1 4.5-1 .5-2.6.7-5.3.5-8 1-1 2.4-1.7 4-2 1.8 1.3 3.8 2 6 2Z" style="opacity:1"/><path fill="#525354" d="M341.5 28.5a41.8 41.8 0 0 1 17 9 13 13 0 0 1-5-.5 17.5 17.5 0 0 0-11-6c-.8-.7-1-1.5-1-2.5Z" style="opacity:1"/><path fill="#393a3a" d="M235.5 33.5c.3 1.8 0 3.5-1 5-.6-.2-1-.5-1.5-1-2 .8-4.2 1.3-6.5 1.5-2.1 1.5-2.6 3.3-1.5 5.5-1.5.8-3 1.4-4.5 2-1.4.2-2.7 0-4-.5.8-.7 1-1.5 1-2.5a40 40 0 0 1 18-10Z" style="opacity:1"/><path fill="#676868" d="M217.5 43.5c0 1-.2 1.8-1 2.5 1.3.5 2.6.7 4 .5a10 10 0 0 0-3.5 3c-2-1-4.2-1.3-6.5-1 2.1-1.9 4.5-3.6 7-5Z" style="opacity:1"/><path fill="#37383a" d="m367.5 42.5 20 11c-3.5 1.4-6.8 1-10-1-2.3.3-4 1.3-5 3-3-1-5.6-2.3-8-4 4 1.2 8 1 12-.5l-8-3 3-1c-.8-1.5-1.6-1.7-2.5-.5-.8-1.2-1.3-2.6-1.5-4Z" style="opacity:1"/><path fill="#5c5d5e" d="M387.5 53.5c3.6 1.3 7 3 10 5a6.8 6.8 0 0 1-5 1.5 7 7 0 0 0-4-3.5 3 3 0 0 1-1-3Z" style="opacity:1"/><path fill="#555657" d="M208.5 49.5v5a6 6 0 0 0-5 2c-.6-.2-1-.5-1.5-1-4.8 5.6-11 8.6-18.5 9 8.6-4.6 17-9.6 25-15Z" style="opacity:1"/><path fill="#1c1d1f" d="M387.5 53.5a3 3 0 0 0 1 3 7 7 0 0 1 4 3.5c1.8.2 3.5-.3 5-1.5.8 1.7 1.1 3.4 1 5 1.6.1 3.3.4 5 1a3 3 0 0 1 1 3c1.3.2 2.5-.2 3.5-1 2 .5 3.5 2.2 4.5 5 1.6-.7 3.1-1 4.5-1 .5 1 .3 2-.5 3 1 3-.4 4.3-4 4l-40-22c1-1.7 2.7-2.7 5-3 3.2 2 6.5 2.4 10 1Z" style="opacity:1"/><path fill="#545455" d="M397.5 58.5c3.7 2 7.2 4.3 10.5 7l1-1c5.5 3 10.6 6.3 15.5 10a32 32 0 0 0-1 4 19 19 0 0 1-5-3c1.1-1.7.4-2.4-2-2 .8-1 1-2 .5-3-1.4 0-2.9.3-4.5 1-1-2.8-2.5-4.5-4.5-5-1 .8-2.2 1.2-3.5 1a3 3 0 0 0-1-3c-1.7-.6-3.4-.9-5-1 .1-1.6-.2-3.3-1-5Z" style="opacity:1"/><path fill="#5a5b5c" d="M183.5 64.5v3c-2.4-.1-3.1.7-2 2.5-1.2.4-2.2 1-3 2-6.2 1.6-12.2 3.4-18 5.5 7.9-3.8 15.5-8.2 23-13Z" style="opacity:1"/><path fill="#6d6e6f" d="M424.5 74.5a6 6 0 0 1 5 2 8.7 8.7 0 0 0-3 4c-1.2-1.5-1.2-3 0-4.5-1-.3-1.6-.8-2-1.5Z" style="opacity:1"/><path fill="#c5c8cd" d="M369.5 155.5a6.6 6.6 0 0 0-5 3c-2.7 1.7-5 3.9-7 6.5a32 32 0 0 0-16 9 287.4 287.4 0 0 1-32 9 9 9 0 0 0-4 3 130 130 0 0 0-13 4.5c.2 1.4 0 2.7-.5 4a17 17 0 0 0-7.5 11c-1-.1-2 0-3 .5a21.9 21.9 0 0 1-5.5 7.5 44.1 44.1 0 0 1-34.5-6c-3.8-8.2-2.2-14.8 5-20 1.2-3.4 3-6.4 5.5-9a63.4 63.4 0 0 1 21.5-12.5c2-1 3-2.4 3-4.5 1.4.2 2.7 0 4-.5a281 281 0 0 0 25-23.5c1.3.2 2.5-.2 3.5-1 2.4-3 4.4-6.4 6-10 .7-2.7.7-5.3 0-8a15.4 15.4 0 0 1-2.5-7 153 153 0 0 1-16-5.5 32 32 0 0 0-18 2 9.5 9.5 0 0 0-3 10.5c4.5 3 9.2 5.9 14 8.5 1.4 6.3-1 10.5-7.5 12.5a4 4 0 0 1-2-1c-3.9 2.9-8 5.4-12.5 7.5a159 159 0 0 1-30 1c-4.2-.8-8.2-2.2-12-4a34 34 0 0 1-1.5-7.5c-2.5-3.3-4.3-7-5.5-11 0-8.4 2.7-15.7 8-22 5-3.2 9.7-6.9 14-11 17.3-7 35.3-10.8 54-11.5 2.9-.4 5.5-1.4 8-3 8.6-.4 17 0 25.5 1.5l3-1c15.9 3 31.7 6.1 47.5 9.5 2.3 2 4.8 3.8 7.5 5.5a48 48 0 0 1-3.5 55 38.6 38.6 0 0 1-13 8Z" style="opacity:1"/><path fill="#4a4b4c" d="M430.5 77.5c5 2.3 9.6 5 14 8-.5.8-1.4.8-2.5 0a9.6 9.6 0 0 0-3 3c-.2-2.3-1-4.3-2.5-6-.4 1-.4 2.4 0 4a13 13 0 0 1-5-.5c.5-2.8.2-5.6-1-8.5Z" style="opacity:1"/><path fill="#626365" d="M155.5 80.5c-1.7 2.9-4.4 4.2-8 4l8-4Z" style="opacity:1"/><path fill="#828283" d="M133.5 91.5a6.6 6.6 0 0 1-5 3 6.6 6.6 0 0 1 5-3Z" style="opacity:1"/><path fill="#525354" d="M446.5 86.5c4.9 2.3 9.2 5.3 13 9a12 12 0 0 0-2.5 4c-2.8-1-3-2.4-.5-4.5-1.5-.5-2.7 0-3.5 1.5a8.8 8.8 0 0 1-4.5-3c2.7-2.6 2-4-2-4v-3Z" style="opacity:1"/><path fill="#28292b" d="M416.5 73.5c2.4-.4 3.1.3 2 2a19 19 0 0 0 5 3 32 32 0 0 1 1-4c.4.7 1 1.2 2 1.5-1.2 1.5-1.2 3 0 4.5.6-1.7 1.6-3 3-4 .7 0 1 .3 1 1 1.2 2.9 1.5 5.7 1 8.5 1.6.5 3.3.7 5 .5-.4-1.6-.4-3 0-4 1.4 1.7 2.3 3.7 2.5 6a9.6 9.6 0 0 1 3-3c1.1.8 2 .8 2.5 0 1-.2 1.7.2 2 1v3c4 0 4.7 1.4 2 4a8.8 8.8 0 0 0 4.5 3c.8-1.5 2-2 3.5-1.5-2.5 2-2.3 3.6.5 4.5a12 12 0 0 1 2.5-4c0 1.4-.3 2.8-1 4l1 1c.8-.9 1.3-1.9 1.5-3 .8 3.2.6 6.2-.5 9a955.7 955.7 0 0 0-48-29c3.6.3 5-1 4-4Z" style="opacity:1"/><path fill="#7e7e7f" d="M121.5 99.5a7 7 0 0 0-2 4c-2.4 0-4.7.3-7 1 2.7-2 5.7-3.7 9-5Z" style="opacity:1"/><path fill="#4a4b4c" d="M127.5 94.5v4c-1-.1-2 0-3 .5-1.2 2-2.9 3.5-5 4.5a7 7 0 0 1 2-4l6-5Z" style="opacity:1"/><path fill="#58595a" d="M459.5 95.5c3.7 1.5 7 3.5 10 6-.7.4-1.2 1-1.5 2-1.6-2-3.4-2.3-5.5-1a9.1 9.1 0 0 1 1 5c-1.3.2-2.3-.1-3-1 1.1-2.8 1.3-5.8.5-9a6.8 6.8 0 0 1-1.5 3l-1-1c.7-1.2 1-2.6 1-4Z" style="opacity:1"/><path fill="#6f6f70" d="M470.5 102.5a6 6 0 0 1 5 2c-2.3.4-4-.2-5-2Z" style="opacity:1"/><path fill="#464647" d="M477.5 105.5c3.5 1.3 6.5 3.3 9 6-2.5-.4-5.2-.4-8 0a9.9 9.9 0 0 1-1-6Z" style="opacity:1"/><path fill="#515252" d="M105.5 108.5c-.2 1.3.2 2.5 1 3.5-1.5 2-2.8 1.9-4-.5a12 12 0 0 1-3.5 6 6.8 6.8 0 0 0-1.5-3c-1 .6-2 1-3 1 3.4-2.7 7-5 11-7Z" style="opacity:1"/><path fill="#1c1d1f" d="M469.5 101.5c.7 0 1 .3 1 1 1 1.8 2.7 2.4 5 2 1-.2 1.7.2 2 1-.3 2.1 0 4.1 1 6 2.8-.4 5.5-.4 8 0h1c0 1 .4 2 1 3-4.2 3.3-3.7 4.3 1.5 3 2.6 1 5 2.1 7.5 3.5l-2 2a7 7 0 0 1 4 3.5c1.4-1.6 3-2.1 5-1.5-.5.4-.8 1-1 1.5 2.2 1 4.6 1.3 7 1h1c1.2 1.2 1.2 2.4 0 3.5 1.6.5 3.3.7 5 .5a7.1 7.1 0 0 0 6 6c0 1-.2 1.8-1 2.5 6.5 0 8.8 2.8 7 8.5-9.6-5-18.8-10.7-27.5-17l-1-3c-1.8.8-3.6.6-5.5-.5-10.2-7-20.6-14-31-20.5.1-1.8-.2-3.4-1-5 2.1-1.3 4-1 5.5 1 .3-1 .8-1.6 1.5-2Z" style="opacity:1"/><path fill="#595a5b" d="M91.5 117.5c-.3 1.8-1 3.5-2 5l-1-2a7.1 7.1 0 0 1-6 2c2.7-2 5.7-3.7 9-5Z" style="opacity:1"/><path fill="#434445" d="m487.5 111.5 23 16c-2.4.3-4.8 0-7-1 .2-.6.5-1 1-1.5-2-.6-3.6-.1-5 1.5a7 7 0 0 0-4-3.5l2-2a55 55 0 0 0-7.5-3.5c-5.2 1.3-5.7.3-1.5-3-.6-1-1-2-1-3Z" style="opacity:1"/><path fill="#6a6b6c" d="M511.5 127.5c2.2.8 3.8 2.1 5 4a13 13 0 0 1-5-.5c1.2-1.1 1.2-2.3 0-3.5Z" style="opacity:1"/><path fill="#747475" d="m516.5 131.5 12 8c-2.4.2-4.4-.4-6-2a7.1 7.1 0 0 1-6-6Z" style="opacity:1"/><path fill="#1a1b1d" d="M72.5 131.5c.9 2.3 1 4.6.5 7-.4-.5-1-.8-1.5-1-1.7 2.5-3.7 3.2-6 2 3.2-1.3 4.2-3.5 3-6.5 1-1.2 2.4-1.7 4-1.5Z" style="opacity:1"/><path fill="#353738" d="M81.5 123.5c.1.6.4 1.1 1 1.5-2.2.7-2.5 1.8-1 3.5a19 19 0 0 0-3 5c.1.6.5 1 1 1a30 30 0 0 1-14 8c-2.7-1-2.7-2 0-3 2.3 1.2 4.3.5 6-2 .6.2 1 .5 1.5 1 .6-2.4.4-4.7-.5-7v-3c3-1.4 6-3 9-5Z" style="opacity:1"/><path fill="#4e4e4f" d="M72.5 128.5v3c-1.6-.2-3 .3-4 1.5 1.2 3 .2 5.2-3 6.5-2.7 1-2.7 2 0 3-.7.9-1.7 1.2-3 1 0-1-.2-1.8-1-2.5-3-.1-5.9-1-8.5-2.5-.8 3-1.8 3.3-3 1-.7.8-1.5 1-2.5 1a833 833 0 0 0 25-12Z" style="opacity:1"/><path fill="#323335" d="M522.5 137.5a7.1 7.1 0 0 0 6 2c3.2 2.2 6.5 4.2 10 6v1c-2.4.3-4.7.8-7 1.5.8 1.1 1.5 2.3 2 3.5-2.3 0-4-1-5-3 1.8-5.7-.5-8.6-7-8.5.8-.7 1-1.5 1-2.5Z" style="opacity:1"/><path fill="#6a6b6d" d="M538.5 145.5c1.5 1.6 3.2 3 5 4-2.8.6-4.5-.4-5-3v-1Z" style="opacity:1"/><path fill="#1a1b1d" d="M538.5 146.5c.5 2.6 2.2 3.6 5 3 1-.2 1.7.2 2 1l2 4c-2.2 1-4.6 1.3-7 1a36 36 0 0 1-7-4c-.5-1.2-1.2-2.4-2-3.5 2.3-.7 4.6-1.2 7-1.5Z" style="opacity:1"/><path fill="#575859" d="M40.5 144.5a34 34 0 0 1-5 7 21 21 0 0 0-5.5 1 13 13 0 0 0-.5 5l-7.5 3a13 13 0 0 0-5.5-1l24-15Z" style="opacity:1"/><path fill="#323336" d="M545.5 150.5a34.2 34.2 0 0 1 20 16l6 2.5c.8.7 1 1.5 1 2.5-2.5.1-4.9-.6-7-2a3 3 0 0 0-1 3h-4c.3 1.8-.4 3.2-2 4-1-1.4-2.4-2-4-2 2.3-1.8 5-2.8 8-3a22 22 0 0 0-4-6.5c-5.8-3.8-11.8-7-18-9.5 2.4.3 4.8 0 7-1l-2-4Z" style="opacity:1"/><path fill="#28292b" d="M62.5 143.5a71 71 0 0 0-7.5 3 7.2 7.2 0 0 0-4.5-2c-.2 1.3.2 2.5 1 3.5a268.1 268.1 0 0 1-34 20 6.5 6.5 0 0 0-1 4.5c1.3-.2 2.3.1 3 1h-4c.4-2.3-.2-4-2-5a5.5 5.5 0 0 1 4-5c-.7-1.2-1-2.6-1-4 1.9 0 3.7.3 5.5 1l7.5-3a13 13 0 0 1 .5-5 21 21 0 0 1 5.5-1 34 34 0 0 0 5-7c1.8-2 4.2-3.4 7-4 1 0 1.8-.2 2.5-1 1.2 2.3 2.2 2 3-1 2.6 1.5 5.4 2.4 8.5 2.5.8.7 1 1.5 1 2.5Z" style="opacity:1"/><path fill="#9d9fa4" d="M369.5 155.5c-1.6 2.6-1 4.5 2 5.5-.5.4-.8 1-1 1.5 1.5 1.3 2.2 3 2 5-2.8-1.4-5.8-2-9-2 .1 1 0 2-.5 3-.8-4.2.7-7.4 4.5-9.5a5 5 0 0 0-3-.5 6.6 6.6 0 0 1 5-3Z" style="opacity:1"/><path fill="#595a5b" d="M16.5 159.5c0 1.4.3 2.8 1 4a5.5 5.5 0 0 0-4 5c-2.3-.5-4.6-.8-7-1 3-3.1 6.3-5.8 10-8Z" style="opacity:1"/><path fill="#6c6d6e" d="M6.5 167.5v3c1.4-.2 2.7 0 4 .5a8.8 8.8 0 0 1-5 2.5c.4 1.9.8 3.7 1 5.5A24.5 24.5 0 0 0 4 195.5c.9-1.2 1.7-1.2 2.5 0l-3 15c-.8-10.7-1-21.7-.5-33a7 7 0 0 0 1-6c1-1.4 1.8-2.7 2.5-4Z" style="opacity:1"/><path fill="#6f7279" d="M555.5 265.5c-2.4 0-4.8.5-7 1.5a97.6 97.6 0 0 1-21 9l-12 7.5c-25.4 13.4-51 26.6-77 39.5l-33 21a1394 1394 0 0 0-14 7c-16.7 11.7-33.7 23-51 34a161.4 161.4 0 0 1-44.5 27.5l-1-36c-2.5-13.4-4.3-27-5.5-41 3.4.2 6.7 0 10-.5 15.9-10 31.2-20.6 46-32 19.4-12.7 40-22.7 62-30a626.4 626.4 0 0 0 36-18c6.8-6.2 13.8-12.2 21-18 12-6.3 22.9-14.1 32.5-23.5 13.1-5.5 25-13 35.5-22.5 10.4-5.5 21-10.4 32-14.5a91 91 0 0 0-3 14.5c.5 13.9 1.7 27.7 3.5 41.5.5 9 .7 18 .5 27h-4v3a8.1 8.1 0 0 0-6 3Z" style="opacity:1"/><path fill="#70737a" d="M286.5 393.5a184 184 0 0 1-1 23c-4.1.4-7.8-.6-11-3a5.8 5.8 0 0 0-4-2c-10.4-8.9-22-15.7-35-20.5a175.3 175.3 0 0 1-26-16.5c-5.7-3.7-11.7-7.2-18-10.5a306.3 306.3 0 0 0-17-16c-14.6-9.1-29-18.4-43-28-9-4-17.7-8.6-26-14-24.1-7-46.8-17-68-30a24.3 24.3 0 0 0-19-11.5c-3-1.2-5.8-3-8.5-5 .3-6.3.5-12.6.5-19 .8-15.6 1.2-31 1-46.5-.2-4.7-1.2-9.2-3-13.5a3 3 0 0 1 2-2 6 6 0 0 1 5 1.5l19 15a697.4 697.4 0 0 0 77 35c1.5 1.6 3.2 3 5 4 4.2 2.3 8.5 4.3 13 6a200.5 200.5 0 0 0 35 27.5c4.7 6.2 9.8 11.8 15.5 17l1-1c3.5 3.2 7.4 6 11.5 8.5 12.7 5.2 25 11.2 37 18a1026 1026 0 0 1 39 16c3.4 4.9 8 8 14 9.5 1 14.4 2.7 28.7 5 43-1 5-1.3 10-1 15Z" style="opacity:1"/><path fill="#606269" d="M571.5 183.5c-.3 8.6.4 17 2 25.5-.4 6.2-1 12.4-2 18.5 0-6-.1-12.4-.5-19-.3-2-.8-3.8-1.5-5.5l2-19.5Z" style="opacity:1"/><path fill="#6f7071" d="M3.5 211.5c.6 1.7 1.6 3.2 3 4.5a5 5 0 0 1-3 .5c.5 2.3.8 4.6 1 7h-1c-1.3-4-1.3-8 0-12Z" style="opacity:1"/><path fill="#7e8186" d="M565.5 166.5c6.4-.8 9.4 2 9 8.5-.1 1.3-.4 2.6-1 4 .6 2 1.3 3.8 2 5.5v3c-1.3.7-1.3 1.3 0 2v5c-2.4 1-2.4 1.7 0 2v2c-1.3 1-1.3 2 0 3v2c-1.3.3-1.3.7 0 1v4c-1.3.3-1.3.7 0 1v3c-1.3.7-1.3 1.3 0 2v2c-1.3.3-1.3.7 0 1v3c-1.3.7-1.3 1.3 0 2v3a185 185 0 0 0-4 25v-23c1-6 1.6-12.3 2-18.5-1.6-8.4-2.3-17-2-25.5 1-3.9 1.3-7.9 1-12 0-1-.2-1.8-1-2.5l-6-2.5Z" style="opacity:1"/><path fill="#909191" d="M3.5 223.5c.3 2.9 0 5.6-1 8-.7-2.8-.4-5.4 1-8Z" style="opacity:1"/><path fill="#686869" d="M2.5 231.5c1.1 7.3.5 14.3-2 21-.2-7.2.5-14.2 2-21Z" style="opacity:1"/><path fill="#777778" d="M-.5 254.5h1c.7 2.3 1 4.6 1 7l-2-2v-5Z" style="opacity:1"/><path fill="#161718" d="M3.5 262.5c-.7 0-1-.3-1-1v-3a3 3 0 0 0 3-1 32 32 0 0 1-4-2.5c3-2.2 3.7-5 2-8.5 1.7-3.7 3-3.7 4 0-.2.6-.5 1-1 1.5 1.4 1 2.4 2.4 3 4-.9 3.1-1.2 6.3-1 9.5-1.8-.1-3.5.2-5 1Z" style="opacity:1"/><path fill="#2e2f31" d="M3.5 223.5h1c.6.2 1 .7 1 1.5a20.4 20.4 0 0 0-.5 13.5 5.6 5.6 0 0 0 5.5 2c0 6.4-.2 12.7-.5 19 2.7 2 5.5 3.8 8.5 5-1.5.3-2.2 1.3-2 3 3.3-.1 5.6 1.2 7 4h-1c-6.7-2.6-13-5.6-19-9a9.2 9.2 0 0 1 5-1c-.2-3.2.1-6.4 1-9.5-.6-1.6-1.6-3-3-4 .5-.4.8-1 1-1.5-1-3.7-2.3-3.7-4 0 1.7 3.4 1 6.3-2 8.5a32 32 0 0 0 4 2.5 3 3 0 0 1-3 1v3h-1c0-2.4-.3-4.7-1-7v-2a41.4 41.4 0 0 0 2-21c1-2.4 1.3-5.1 1-8Z" style="opacity:1"/><path fill="#818387" d="M571.5 250.5c0 5 0 10 .5 15a33.3 33.3 0 0 1-12.5 7c3.4-3.9 7.4-7 12-9.5a21 21 0 0 1 0-12.5Z" style="opacity:1"/><path fill="#191a1c" d="M6.5 167.5c2.4.2 4.7.5 7 1 1.8 1 2.4 2.7 2 5h4c5.6 3.6 11 7.6 16 12a44 44 0 0 1 12 6.5 1532 1532 0 0 0 44 19.5c7.2 3.3 14.6 6.4 22 9.5l16 9c13.4 11 27 21.5 41 31.5 1.9 2.6 3.7 5.2 5.5 8 3.2 3.5 6.7 6.6 10.5 9.5l56 29a75.8 75.8 0 0 1 30 14.5 3 3 0 0 1 1 3c4.7 3 9.9 5 15.5 6 1.5-2.1 3.3-4 5.5-5.5a94 94 0 0 1 15-8 659.5 659.5 0 0 1 51-35c24.9-11 49.5-22.3 74-34 19-14.8 38.3-29.2 58-43 8.9-5 17.9-9.6 27-14 3.3-2.3 6.3-5 9-8l26-9.5c1.6 0 3 .6 4 2 1.6-.8 2.3-2.2 2-4h4a3 3 0 0 1 1-3c2.1 1.4 4.5 2.1 7 2 .3 4.1 0 8.1-1 12l-2 19.5c.7 1.7 1.2 3.6 1.5 5.5.4 6.6.6 13 .5 19v23a21 21 0 0 0 0 12.5 42.7 42.7 0 0 0-12 9.5c0 .7-.3 1-1 1-1.7-.2-2.7.5-3 2h-2c0-.5-.4-.9-1-1-.8.9-1.3 1.9-1.5 3-.9-1.3-2-2.3-3.5-3 .7-1.2 1-2.6 1-4h3c0-2.9 1.2-4.6 4-5a8.1 8.1 0 0 1 6-3v-3h4c.2-9 0-18-.5-27-1.8-13.8-3-27.6-3.5-41.5a91 91 0 0 1 3-14.5c-11 4.1-21.6 9-32 14.5-10.5 9.5-22.4 17-35.5 22.5a135.8 135.8 0 0 1-32.5 23.5 423.7 423.7 0 0 0-21 18 626.4 626.4 0 0 1-36 18c-22 7.3-42.6 17.3-62 30a566.5 566.5 0 0 1-46 32c-3.3.5-6.6.7-10 .5 1.2 14 3 27.6 5.5 41l1 36c16.3-6.7 31.2-16 44.5-27.5 17.3-11 34.3-22.3 51-34l14-7 33-21c26-13 51.6-26 77-39.5l6-.5a7 7 0 0 0-2.5 3.5c-1.2-1.5-2-1.3-2.5.5a14 14 0 0 1 1 3.5 635.1 635.1 0 0 1-30 19.5c-6.9 3.3-13.9 6.3-21 9l-10 7c-7 3.9-14.4 7.2-22 10l-4 4c-8 4.2-15.6 8.7-23 13.5l-9 4.5a498.5 498.5 0 0 1-24 16.5 396.4 396.4 0 0 1-29 19c-2-.3-3.5.4-4.5 2-.4-.5-1-.8-1.5-1-1.2.8-1.2 1.6 0 2.5l-5 1c.8 1.2.5 2.4-1 3.5-1.2 1.2-2.4 1.2-3.5 0-2.4.8-2.9 2.1-1.5 4h-4v3l-16 9a10 10 0 0 0-10.5 3c-2.4-1.7-3.6-1-3.5 2-.9 2.2-1.2 4.6-1 7-3-.4-5.3.6-7 3a3 3 0 0 1-1-3v-2a3 3 0 0 0 3-1c-1.9-4.4-2.5-9-2-14 5.7 0 6-.5 1-1.5l2-1c-2.6-3.5-2.6-7 0-10.5-1.4-2-2.4-4-3-6-.3-5 0-10 1-15-2.3-14.3-4-28.6-5-43-6-1.4-10.6-4.6-14-9.5a1026 1026 0 0 0-39-16c-12-6.8-24.3-12.8-37-18-4.1-2.5-8-5.3-11.5-8.5l-1 1a125.5 125.5 0 0 1-15.5-17c-12.7-7.9-24.4-17-35-27.5-4.5-1.7-8.8-3.7-13-6-1.8-1-3.5-2.4-5-4a697.4 697.4 0 0 1-77-35l-19-15a6 6 0 0 0-5-1.5 3 3 0 0 0-2 2c1.8 4.3 2.8 8.8 3 13.5.2 15.4-.2 31-1 46.5-2.3.4-4.1-.3-5.5-2-1.4-4.4-1.2-8.9.5-13.5 0-.8-.4-1.3-1-1.5-.2-2.4-.5-4.7-1-7 1 .1 2 0 3-.5a11.4 11.4 0 0 1-3-4.5v-1l3-15c-.8-1.2-1.6-1.2-2.5 0-1-5.8-.3-11.3 2.5-16.5-.2-1.8-.6-3.6-1-5.5 1.6-.1 3.2-1 5-2.5a8.4 8.4 0 0 0-4-.5v-3Z" style="opacity:1"/><path fill="#b0b2b6" d="M179.5 267.5c0-.5.4-.9 1-1 2.4.6 4.7 1.2 7 2-1.5 1.2-3 1.2-4.5 0-.7.9-1.5 1.5-2.5 2 0-1-.4-2-1-3Z" style="opacity:1"/><path fill="#dcddde" d="m347.5 253.5 6.5-1c1.1 1 1.6 2.2 1.5 3.5-1.3.7-2.7.7-4 0-1.2-1-2.5-2-4-2.5Z" style="opacity:1"/><path fill="#7f8288" d="M59.5 227.5c-2-2.6-4-2.6-6 0a9 9 0 0 1 3 3c-2.4 1.7-4 4-5 7a6.5 6.5 0 0 0-4.5 0 8.6 8.6 0 0 1-1.5-6.5c2-1.2 3.2-3 3.5-5.5 3 2.2 3.2 1.7.5-1.5 1.8-.3 2.1-1 1-2 1-.4 1.7-.9 2.5-1.5.3.8.8 1.5 1.5 2 3-1 6-1.2 9-1 .2 2.7 0 5.4-.5 8-1-.8-1.6-1.8-2-3-.4.6-.9.9-1.5 1Z" style="opacity:1"/><path fill="#dbdbdd" d="M59.5 227.5c-.3 1.6-1.3 2.6-3 3a9 9 0 0 0-3-3c2-2.6 4-2.6 6 0Z" style="opacity:1"/><path fill="#c4c7cc" d="M237.5 222.5c.4-.6 1-1 2-1 2.3 1.4 4.8 2.4 7.5 3 7.9-.4 15.7-.8 23.5-1v4c1.4-.2 2.7 0 4 .5 4.3 4.1 9.3 6.6 15 7.5-.1 1 0 2 .5 3 3.8 3.4 5.6 7.7 5.5 13a16 16 0 0 1-7 14.5l-36 7a35.8 35.8 0 0 1-33.5-14.5 5 5 0 0 1-.5-3h-3c-1.7-5.7-1-11 2.5-16 5.3-7.8 12.4-13 21.5-15.5a4.3 4.3 0 0 0-2-1.5Z" style="opacity:1"/><path fill="#a0a3a7" d="M544.5 216.5c1.3 2.4 2 5 2 8-1.3-.2-2.5.2-3.5 1-2-2.3-2.9-5-2.5-8 1.6.3 3 0 4-1Z" style="opacity:1"/><path fill="#dddedf" d="M97.5 205.5c-1 1.6-2.3 3-4 4a18 18 0 0 1 3-7c.7-1.3 1.3-1.3 2 0-.6 1-1 2-1 3Z" style="opacity:1"/><path fill="#a5a7ac" d="M97.5 205.5c0-1 .4-2 1-3-.7-1.3-1.3-1.3-2 0a18 18 0 0 0-3 7c0 1.3-.7 2-2 2 1-1.6 1-3 0-4.5a6.5 6.5 0 0 1 3-3c-1-4.5 1-6.3 6-5.5 0 2.8-1 5.2-3 7Z" style="opacity:1"/><path fill="#82858b" d="M400.5 183.5c2.3 0 4.3.8 6 2.5-.8.3-1.5.8-2 1.5 2 1.5 3 3.5 3 6l14 3c1 1.3.7 2.6-.5 4-.9-1.2-1.7-1.2-2.5 0 .6 1.1 1.5 2.1 2.5 3 .8 1.8.3 3.2-1.5 4a4.9 4.9 0 0 1-1-4c-2-.2-4 .2-6 1l-1-1 2-2a14.5 14.5 0 0 1-3-6h-5c.2-1.3-.2-2.5-1-3.5-2-.5-4-.7-6-.5v-3c3.1-.6 3.8-2.3 2-5Z" style="opacity:1"/><path fill="#eff0f1" d="M415.5 197.5c1.7.7 2.3 2 2 4h-3a7 7 0 0 1 1-4Z" style="opacity:1"/><path fill="#dddedf" d="M400.5 183.5c1.8 2.7 1.1 4.4-2 5-1.7-2.7-1-4.3 2-5Z" style="opacity:1"/><path fill="#7b7d81" d="M558.5 273.5a7 7 0 0 1-3 2c.3-1.5 1.3-2.2 3-2Z" style="opacity:1"/><path fill="#252629" d="M555.5 265.5c-2.8.4-4 2.1-4 5h-3c0 1.4-.3 2.8-1 4 1.4.7 2.6 1.7 3.5 3 .2-1.1.7-2.1 1.5-3 .6.1 1 .5 1 1l-1 2a19 19 0 0 0-3 5c-.9 13.2-.9 26 0 38.5 2 1.1 2.4 2.8 1 5 .4 1.4 1.1 2.8 2 4l-.5 1.5a6.5 6.5 0 0 0-4.5-1c.4 2.5-.3 3.2-2 2-.9-2.9-1.2-5.9-1-9 .9.1 1.5-.2 2-1-.3-1.2-.8-1.2-1.5 0-1.5-2-1.7-4-.5-6 1.7 1.1 2.4.4 2-2-4-.3-5-2.3-3-6-.5-.8-1.1-1.1-2-1 .3-7.7 0-15.4-1-23a8.6 8.6 0 0 1 5.5-9c.7-.7.7-1.3 0-2a152.2 152.2 0 0 0-28.5 17 14 14 0 0 0-1-3.5c.5-1.8 1.3-2 2.5-.5a7 7 0 0 1 2.5-3.5l-6 .5 12-7.5a97.6 97.6 0 0 0 21-9c2.2-1 4.6-1.5 7-1.5Z" style="opacity:1"/><path fill="#8e9195" d="M553.5 275.5h2c-.5 1.4-1.5 2-3 2l1-2Z" style="opacity:1"/><path fill="#505153" d="M22.5 271.5h1c1 1.5 2 3.1 3 5-1.8 1.1-2.1 2.5-1 4 1.4-2.6 2.8-2.6 4 0-3.6.3-4.3 1.5-2 3.5-1.3.5-2.6.7-4 .5-1-4.1-1.3-8.5-1-13Z" style="opacity:1"/><path fill="#c6c9ce" d="M31.5 282.5a63 63 0 0 0 18 11c2.8.5 5.2 2 7 4.5a100 100 0 0 0 13 4.5c5.7 2.5 11.4 5.3 17 8.5 2 .8 4 1.3 6 1.5 9.4 5.2 18.7 10.7 28 16.5 1.8 1.1 3.8 1.6 6 1.5 1.5 2.3 2.8 4.8 4 7.5 8.6 3.6 17 7.6 25 12 1.6.5 3.3.7 5 .5 10 8 20.4 15.7 31 23 11 7.9 22.7 14.7 35 20.5.5 1 1.2 1.8 2 2.5 11.9 5.2 23.6 11 35 17 1.1 1.7 2.8 2.4 5 2-.1 2.4.7 3.1 2.5 2 1.1.8 2.3 1.5 3.5 2 3.6 1 7.2 1.3 11 1-.2 2.6-.2 5 0 7v2c-1.3 5-1.3 10 0 15v2a552 552 0 0 0-2 38c-.9 2.2-.2 4 2 5.5-1.8 2.8-2.5 6-2 9.5a63.2 63.2 0 0 0-.5 19c.4 1.3 1.3 2 2.5 2a7 7 0 0 1-3 2 30.3 30.3 0 0 1-3.5-9L263.5 496l-18-12-10-3c-2.7-.7-5.3-.7-8 0a7 7 0 0 1-6 4.5c-5.4 11-3.4 20.4 6 28 4.9 3.5 10 3.8 15.5 1 .5-1.6.7-3.3.5-5 .6-1.8 2-3 4-3.5 8-3.5 12.3-1 13 7.5.5 2.5 1.2 5 2 7.5-.5 2.6-1.5 4.9-3 7-8 2.7-16 2.5-24-.5a4 4 0 0 0-3.5 2 5 5 0 0 1-.5-3 57 57 0 0 0-22 3c-10.6 5.1-11.9 12.1-4 21 5.9 2 11.9 3.6 18 5 3-1.8 6.4-2.5 10-2 4.6 1.6 8.6 4 12 7 2.7 2 5.7 4 9 5.5 10.2 2 19.6.1 28-5.5l2 6c-.2 1 .2 1.7 1 2 .8 6 1.8 12 3 18 .2 9-.5 18-2 27v2c-2.3 7.2-4 14.5-5 22 .2 15 .2 30 0 45h-3a20.7 20.7 0 0 0-4-3.5c-6-1.4-11.7-3.6-17-6.5-2-1.6-4.3-2.6-7-3-6-3.5-12-7.4-18-11.5a5 5 0 0 0-3-.5c-2.3-2.2-5-3.8-8-5a40.9 40.9 0 0 0-13-7 30 30 0 0 0-8-4 163.4 163.4 0 0 1-21-12c-3.8-2.6-7.5-5.5-11-8.5a155 155 0 0 1-12-6.5l-20-13a5.8 5.8 0 0 0-4-2l-24-13a265.6 265.6 0 0 1-19-9c-3.8-1.9-7-4.2-10-7 3.4-1.3 6.9-1.3 10.5 0 1-.9 1.9-1.9 2.5-3 1.3.2 2.5-.2 3.5-1 .3-9.2 4.8-15.5 13.5-19 .8-.9 1.3-1.9 1.5-3 1 1.6 2.5 2.3 4.5 2 5.7-1.2 11.4-2.5 17-4 3.7-1.7 6.8-4 9.5-7a41.6 41.6 0 0 0 3.5-27c-1-4.8-2.1-9.4-3.5-14a109 109 0 0 1-8-16 69.4 69.4 0 0 0-13.5-14.5 5 5 0 0 0-3-.5c.1-1 0-2-.5-3a35.9 35.9 0 0 1-11.5-10c-7.4-2-15-3.7-22.5-5-7.5 2-14.2 5.6-20 11a37.4 37.4 0 0 0 2.5 32c-1 1.6-.5 3 1.5 4 .7 2.4 1.5 4.7 2.5 7 4.4 1 8.4 2.9 12 5.5 2.6.5 5.3.7 8 .5 4.4-.2 6.4-2.6 6-7h3c1.4-7.2-1-12.6-7-16-.9-4-.9-8 0-12 1-2 2.4-2.4 4-1v1c3.5 6.4 5.9 13 7 20v1a58 58 0 0 1-2 20 43.8 43.8 0 0 1-7 9c-5 2.6-9.3 6-13 10-1 2.7-2.5 5-4.5 7-2.2 8.5-3.7 17.2-4.5 26-1-.6-2-1-3-1l-5-2a17.1 17.1 0 0 0-6-3 29 29 0 0 0-8-3c-7-3.4-14-7-21-11 .2-2.8-.1-5.4-1-8v-11c-.8-4.6-1.1-9.3-1-14v-12a33.3 33.3 0 0 0 0-16c1-3.8 1.3-7.8 1-12 .6-.1 1.1-.4 1.5-1 .8-4.9.6-9.5-.5-14 .3-9.4 0-18.7-1-28 .8-3.6 1.2-7.3 1-11 .3-6-.3-11.8-2-17.5a6.5 6.5 0 0 0 1-4.5 9.2 9.2 0 0 0 1-5c.3-6 .3-11.8 0-17 .6-.1 1.1-.4 1.5-1 2 3.8 3.1 7.8 3.5 12 2.5 1.3 4.8 1 7-.5 4.7-.7 9.3-.7 14 0 5 4 10.7 6.5 17 7.5 5 3 10.3 3.5 16 1.5l12.5-10.5a40.7 40.7 0 0 0 1-23c-1-.9-1.9-1.9-2.5-3 .9-2.2 1.2-4.6 1-7-2.2.3-4-.3-5.5-2A63.2 63.2 0 0 0 76.5 322c-6.1-4.6-12.4-9-19-13-8-2.5-14.6-.7-20 5.5-.8 2.6-1.1 5.3-1 8a6.5 6.5 0 0 0-3 5c3 6.2 6.6 11.8 11 17 3.3 1.5 6.4 3.2 9.5 5a50 50 0 0 1 6.5-5 14 14 0 0 0-2-4c-.6-1.8-.4-3.8.5-6 1-1.3 2-1.3 3 0 1.5-.8 1.7-1.6.5-2.5.9-1 1.9-1.9 3-2.5 5.3 3.6 10 8 14 13 .5 8.4-3.3 13.4-11.5 15-5.7-1.4-11.6-2-17.5-2a20.9 20.9 0 0 0-11-.5c-3.6.1-6.6 1.3-9 3.5v-3c0-4.7.3-9.4 1-14l-1-4c.7 0 1-.3 1-1 1.3-13 1.3-26 0-39a61 61 0 0 0-.5-11c-.4-1.7-1.3-2.4-2.5-2 .9-1 1.9-1.6 3-2Z" style="opacity:1"/><path fill="#333435" d="M31.5 297.5v2c-2.3.2-4.5.8-6.5 2-.4-.2-.6-.6-.5-1v-1a3 3 0 0 0 3-1c-1.8-2.5-1.8-4.6 0-6.5-2.6-1.5-3.4-3.6-2.5-6.5 1.1 1.9 2.4 2.6 4 2 .6 1 .5 1.8-.5 2.5 1.5 2.3 2.5 4.8 3 7.5Z" style="opacity:1"/><path fill="#c6c9ce" d="M540.5 284.5c1 7.6 1.3 15.3 1 23 .2 4.7.7 9.4 1.5 14 .3 1 .8 1.6 1.5 2-.2 3.1.1 6.1 1 9v21c.7 8.3.7 16.6 0 25v23c-1 5.8-1.3 11.8-1 18v5a6.6 6.6 0 0 0 0 7v1c-1 1.4-1.3 3-1 5 1.2 3.5 1.2 6.8 0 10-1 3.5-1.3 7.1-1 11v11c-1 6.5-1.3 13.1-1 20v8c-.5 11.5.2 22.8 2 34 0 3-.3 6-1 9l-5 4c-5 1.4-9.3 3.7-13 7-6 3.5-11.7 7.5-17 12l-7 5a253.5 253.5 0 0 0-26 15 569 569 0 0 0-77 47.5l-40 22.5a5.3 5.3 0 0 0-5 4 105.5 105.5 0 0 0-19 12c-3 1.6-6 3-9 4-3.7.6-6.7 2.3-9 5-6.5 1-12.8 2.7-19 5-1.3-.2-2.5.2-3.5 1-1-5.8-1.8-11.5-2.5-17v-11c2.4-.2 3.4-1.5 3-4-.9-7.3-1.2-14.6-1-22 .3-4.7 1-9.4 2-14a7 7 0 0 0 1-4c1-6.1 1.3-12.5 1-19 .7-8 0-16-2-24 0-1.3-.7-2-2-2.5a4 4 0 0 0 1-2 245 245 0 0 0-2-12.5v-47c.3-6.2.3-12.6 0-19l2-31v-3c.2-4 .2-8 0-12v-11c-.2-2.4.1-4.8 1-7l13-3.5c.6-.4.9-.9 1-1.5l16-9a7 7 0 0 0 4-3 80 80 0 0 0 17-12c9.9-5.9 19.6-12.2 29-19 2 .2 4 0 6-.5 2.6-1.8 5.2-3.3 8-4.5.8.3 1.2 1 1 2l-4 4c-2 3-3 6.6-3 10.5l.5 7.5c.4.6.9.9 1.5 1 .8 1.2 1.8 1.2 3 0 2 2.5 4 4.8 6 7 4-1 7.4-3 10-6 1.4-1.6 2-1.2 2 1l-1 4.5c.7 6.5 1.2 13 1.5 19.5 1.6.9 3 1.9 4.5 3 1.1-1.8 2.5-2.1 4-1-1.4 2-.7 3 2 3 3.6 0 6.1-1.7 7.5-5 1.4-3.3 1.6-6.7.5-10a6.9 6.9 0 0 0 2-4l-3-39c-5.7-3.7-12-5.7-19-6l16-9a508 508 0 0 0 48.5-29c2-1.4 4-2.2 6.5-2.5 14.7-9.8 29.9-19 45.5-27.5l1 1a58.8 58.8 0 0 1 18.5-10Z" style="opacity:1"/><path fill="#3a3d41" d="M69.5 302.5a100 100 0 0 1-13-4.5c-1.8-2.5-4.2-4-7-4.5 1.4 0 2.8-.3 4-1 2 .6 3 2 3 4 1.8.6 3.5.6 5 0l2 3c1.7-1.1 2.4-.4 2 2 1.6-.3 3 0 4 1Z" style="opacity:1"/><path fill="#767779" d="M29.5 280.5a3 3 0 0 1 2 2c-1.1.4-2.1 1-3 2 1.2-.4 2 .3 2.5 2 .5 3.7.7 7.3.5 11-.5-2.7-1.5-5.2-3-7.5 1-.7 1.1-1.6.5-2.5-1.6.6-2.9-.1-4-2-1 2.9 0 5 2.5 6.5-1.8 1.9-1.8 4 0 6.5a3 3 0 0 1-3 1c-.5-2.5-1.1-5.3-2-8.5 1-2 1.3-4.2 1-6.5 1.4.2 2.7 0 4-.5-2.3-2-1.6-3.2 2-3.5Z" style="opacity:1"/><path fill="#6f7071" d="M31.5 299.5c0 1.1-.4 2.1-1 3-3.3-.2-3.6.5-1 2a6 6 0 0 1-5 2c-.5-2.2-.5-4.2 0-6 0 .4.1.8.5 1 2-1.2 4.2-1.8 6.5-2Z" style="opacity:1"/><path fill="#96999f" d="M31.5 297.5c1.3 13 1.3 26 0 39-.4-7.1-.4-14 0-20.5-.5-1-1.2-1.8-2-2.5 2-3.7 2.4-7.3 1-11 .6-.9 1-1.9 1-3v-2Z" style="opacity:1"/><path fill="#4f5257" d="M541.5 307.5c.9-.1 1.5.2 2 1-2 3.7-1 5.7 3 6 .4 2.4-.3 3.1-2 2-1.2 2-1 4 .5 6 .7-1.2 1.2-1.2 1.5 0-.5.8-1.1 1.1-2 1-.7-.4-1.2-1-1.5-2-.8-4.6-1.3-9.3-1.5-14Z" style="opacity:1"/><path fill="#7d8188" d="M540.5 284.5a58.8 58.8 0 0 0-18.5 10l-1-1a620.6 620.6 0 0 0-45.5 27.5c-2.4.3-4.6 1.1-6.5 2.5a508 508 0 0 1-48.5 29c-2.3.4-4.1-.3-5.5-2-.1 2.1-1 3.8-2.5 5a5.7 5.7 0 0 0-5-2c7.4-4.8 15-9.3 23-13.5l4-4c7.6-2.8 15-6.1 22-10l10-7c7.1-2.7 14.1-5.7 21-9a635.1 635.1 0 0 0 30-19.5c8.9-6.7 18.4-12.4 28.5-17 .7.7.7 1.3 0 2a8.6 8.6 0 0 0-5.5 9Z" style="opacity:1"/><path fill="#3c3d41" d="M30.5 302.5c1.4 3.7 1 7.3-1 11 .8.7 1.5 1.6 2 2.5-.4 6.5-.4 13.4 0 20.5 0 .7-.3 1-1 1v-9a4 4 0 0 0-4 2.5l2 1c-1.2.7-2.2 1.5-3 2.5-.7-3-1-6-1-9v-1h3c-.4-3-1-5.8-2-8.5 2.4-1.8 2-3.3-1-4.5-1.3-1.7-1.3-3.3 0-5a6 6 0 0 0 5-2c-2.6-1.5-2.3-2.2 1-2Z" style="opacity:1"/><path fill="#7d8188" d="M499.5 316.5c-1.6 0-3-.4-4.5-1-1 .1-1.9.6-2.5 1.5a32 32 0 0 0 4 2.5c-1.4 2.1-.7 3.1 2 3v5c-5.4-1.2-6 .1-2 4a9 9 0 0 1 8 6.5l-4 1c2.6 3.5 2 5.3-2 5.5.9.8 1.9 1.3 3 1.5a15 15 0 0 0-3 3.5 7.1 7.1 0 0 1-5 1c-.1 1.6.5 2.8 2 3.5-1.3.5-2.6.7-4 .5.5-3 1.6-5.6 3.5-8 1.8-4.8 1.8-9.4 0-14l-1 8a4.2 4.2 0 0 1-2.5 3c.2-1.3-.2-2.5-1-3.5 3.7-4.2 4-8.7 1-13.5a9.7 9.7 0 0 1-6-8c-.8 1.1-1.4 2.3-2 3.5-1.9.2-3.6.9-5 2 .5.4.8 1 1 1.5-.8.7-1.5 1.6-2 2.5a19 19 0 0 1 0 9.5c-2.3-.3-2.6-1.3-1-3a27 27 0 0 1-2-4.5c1-1.4 1.6-3 2-4.5.6-1.3 1-2.6 1.5-4a30 30 0 0 0 7.5-5c3-1 6.3-1.7 9.5-2 2-.2 3.5.5 4.5 2Z" style="opacity:1"/><path fill="#6f7070" d="M24.5 311.5c3 1.2 3.4 2.7 1 4.5 1 2.7 1.6 5.6 2 8.5h-3a23 23 0 0 1 0-13Z" style="opacity:1"/><path fill="#72757d" d="M491.5 343.5a20 20 0 0 1-13 1.5c-.8-1-1.2-2.2-1-3.5.8-.8 1.8-1.3 3-1.5-1.6-.2-2.6-1-3-2.5.8-3 .8-6.1 0-9.5.5-1 1.2-1.8 2-2.5-.2-.6-.5-1-1-1.5a9.9 9.9 0 0 1 5-2c.6-1.2 1.2-2.4 2-3.5a9.7 9.7 0 0 0 6 8c3 4.8 2.7 9.3-1 13.5.8 1 1.2 2.2 1 3.5Z" style="opacity:1"/><path fill="#616264" d="M549.5 282.5c.8 7.4.8 14.2 0 20.5 2 10 3.3 20.2 4 30.5a6.7 6.7 0 0 1-4-2c-1.6 1.8-1.9 3.6-1 5.5l-3 1.5v-6c1.7 1.2 2.4.5 2-2 1.6-.2 3.1.1 4.5 1l.5-1.5c-.9-1.2-1.6-2.6-2-4 1.4-2.2 1-3.9-1-5-.9-12.5-.9-25.3 0-38.5Z" style="opacity:1"/><path fill="#9ea2a8" d="M476.5 325.5c-.4 1.6-1 3-2 4.5a27 27 0 0 0 2 4.5c-1.6 1.7-1.3 2.7 1 3 .4 1.4 1.4 2.3 3 2.5-1.2.2-2.2.7-3 1.5a9.2 9.2 0 0 1-4-8.5c-.5-3.3.5-5.8 3-7.5Z" style="opacity:1"/><path fill="#171819" d="M30.5 337.5c-1.3 0-2 .7-2 2h-6v-1c2-.5 3-1.9 3-4 .8-1 1.8-1.8 3-2.5l-2-1a4 4 0 0 1 4-2.5v9Z" style="opacity:1"/><path fill="#686969" d="M24.5 325.5c0 3 .3 6 1 9 0 2.1-1 3.5-3 4 .5-4.5 1.1-8.8 2-13Z" style="opacity:1"/><path fill="#1e1f20" d="M553.5 333.5a17.6 17.6 0 0 0 0 11c-1.9 2.5-3.9 2.5-6 0l-2 1v-7l3-1.5c-.9-1.9-.6-3.7 1-5.5a6.7 6.7 0 0 0 4 2Z" style="opacity:1"/><path fill="#979797" d="m553.5 333.5 1 12c-.7 0-1-.3-1-1a17.6 17.6 0 0 1 0-11Z" style="opacity:1"/><path fill="#7b7f86" d="M92.5 312.5a40 40 0 0 0 8 2.5 753 753 0 0 0 41 22 98 98 0 0 0 19 13.5 13 13 0 0 1-5-.5c-8-4.4-16.4-8.4-25-12a64.3 64.3 0 0 0-4-7.5c-2.2.1-4.2-.4-6-1.5a613.8 613.8 0 0 0-28-16.5Z" style="opacity:1"/><path fill="#83878e" d="M36.5 322.5c-1.1 2.1-.3 3.5 2.5 4 2.4 6.6 6.2 12 11.5 16.5 2.4 0 4.8.1 7 .5a3 3 0 0 0 1-3 14 14 0 0 1 2 4 50 50 0 0 0-6.5 5c-3-1.8-6.2-3.5-9.5-5-4.4-5.2-8-10.8-11-17 .3-2.3 1.3-4 3-5Z" style="opacity:1"/><path fill="#545556" d="M22.5 339.5h6v1c-4.1 1-5.1 3-3 6-2.6 1-2.6 2 0 3a8.6 8.6 0 0 0-2 10 3 3 0 0 1-2 2l1-22Z" style="opacity:1"/><path fill="#151517" d="M28.5 340.5c.2 2.7.2 5.7 0 9h-3c-2.6-1-2.6-2 0-3-2.1-3-1.1-5 3-6Z" style="opacity:1"/><path fill="#808389" d="M31.5 341.5c-.7 4.6-1 9.3-1 14-.7-1.6-1-3.5-1-5.5-.1-3.1.5-6 2-8.5Z" style="opacity:1"/><path fill="#4d4e50" d="M553.5 344.5c0 .7.3 1 1 1v15c-.8-2.5-1.3-5.1-1.5-8-1-1.2-1.5-.9-1.5 1 1.6 2.8 1 3.5-2 2 .9-2.2 1.2-4.6 1-7h-4c.3 2 0 3.6-1 5v-8l2-1c2.1 2.5 4.1 2.5 6 0Z" style="opacity:1"/><path fill="#17181a" d="M18.5 264.5c8.2.8 14.5 4.6 19 11.5 21.2 13 43.9 23 68 30 8.3 5.4 17 10 26 14 14 9.6 28.4 18.9 43 28 5.9 5.1 11.6 10.5 17 16 6.3 3.3 12.3 6.8 18 10.5-.3 3.6-1.6 4-4 1-2.4 2.3-4.9 2.3-7.5 0v-4a7.3 7.3 0 0 1-6.5 2c-10.6-7.3-21-15-31-23a98 98 0 0 1-19-13.5 753 753 0 0 1-41-22 40 40 0 0 1-8-2.5c-2-.2-4-.7-6-1.5-5.6-3.2-11.3-6-17-8.5-1-1-2.4-1.3-4-1 .4-2.4-.3-3.1-2-2l-2-3c-1.5.6-3.2.6-5 0 0-2-1-3.4-3-4-1.2.7-2.6 1-4 1a63 63 0 0 1-18-11 3 3 0 0 0-2-2c-1.2-2.6-2.6-2.6-4 0-1.1-1.5-.8-2.9 1-4-1-1.9-2-3.5-3-5-1.4-2.8-3.7-4.1-7-4-.2-1.7.5-2.7 2-3Z" style="opacity:1"/><path fill="#72757c" d="m71.5 390.5 1-2c-1.6-1.5-3-3.2-4-5-2.3-.8-4.6-1.4-7-2-1.5-1-1.8-2.3-1-3.5-1.6-.4-3-1.3-4-2.5-1.2.7-2.6 1-4 1a3 3 0 0 0-1-3c-4.3.9-4.7 3-1 6.5a7.5 7.5 0 0 1-8 .5l3-2c-2.5-1-3.1-2.4-2-4.5-1-.5-2-.3-3 .5a20.5 20.5 0 0 1-3-5.5 13 13 0 0 0 3-5.5c3.1-.5 6.1-1.3 9-2.5a5.8 5.8 0 0 0-5.5-.5c-1.8-1.6-1.8-3.2 0-5l1 2a5.6 5.6 0 0 1 5.5-2c1.4.8 2.7 1.8 4 3 2.4-1 3.4 0 3 3a13 13 0 0 0-5 .5c2.4.3 4.7.8 7 1.5 1-.5 1.8-1.1 2.5-2 2.7 2.3 5.7 2.6 9 1 1.3.3 2.3 1 3 2 1.8-1.2 1.7-2.4-.5-3.5 1.1-1 2.1-2.2 3-3.5 1.1 1.3 1.1 2.6 0 4 .9 1 1.9 1 3 0 1.5-2.8 2.8-5.6 4-8.5a4 4 0 0 1-1-2c3.6-2 4-4.5 1-7.5-1.2-.7-2.6-1-4-1-4-5-8.7-9.4-14-13-1.1.6-2.1 1.5-3 2.5 1.2 1 1 1.7-.5 2.5-1-1.3-2-1.3-3 0-1 2.2-1 4.2-.5 6a3 3 0 0 1-1 3c-2.2-.4-4.6-.5-7-.5-5.3-4.4-9.1-10-11.5-16.5-2.8-.5-3.6-1.9-2.5-4-.1-2.7.2-5.4 1-8 5.4-6.2 12-8 20-5.5 6.6 4 12.9 8.4 19 13 7.9 6.8 13.7 15 17.5 24.5a5.8 5.8 0 0 0 5.5 2c.2 2.4-.1 4.8-1 7 .6 1.1 1.5 2.1 2.5 3a40.7 40.7 0 0 1-1 23L87.5 392c-5.7 2-11 1.5-16-1.5Z" style="opacity:1"/><path fill="#868990" d="M79.5 342.5c1.4 0 2.8.3 4 1 3 3 2.6 5.5-1 7.5a4 4 0 0 0 1 2 97.8 97.8 0 0 1-4 8.5c-1.1 1-2.1 1-3 0 1.1-1.4 1.1-2.7 0-4-.9 1.3-1.9 2.4-3 3.5 2.2 1 2.3 2.3.5 3.5-.7-1-1.7-1.7-3-2-3.3 1.6-6.3 1.3-9-1-.7.9-1.5 1.5-2.5 2-2.3-.7-4.6-1.2-7-1.5a13 13 0 0 1 5-.5c.4-3-.6-4-3-3a23.8 23.8 0 0 0-4-3c6 0 11.8.6 17.5 2 8.2-1.6 12-6.6 11.5-15Z" style="opacity:1"/><path fill="#797d84" d="M50.5 355.5c-2.3-.4-4.1.3-5.5 2l-1-2c-1.8 1.8-1.8 3.4 0 5 1.8-.8 3.6-.6 5.5.5-2.9 1.2-5.9 2-9 2.5a13 13 0 0 1-3 5.5c.7 2 1.7 3.8 3 5.5 1-.8 2-1 3-.5-1.1 2-.5 3.6 2 4.5l-3 2a7.5 7.5 0 0 0 8-.5c-3.7-3.5-3.3-5.6 1-6.5a3 3 0 0 1 1 3c1.4 0 2.8-.3 4-1 1 1.2 2.4 2 4 2.5-.8 1.2-.5 2.4 1 3.5 2.4.6 4.7 1.2 7 2 1 1.8 2.4 3.5 4 5a44 44 0 0 0-1 2c-6.3-1-12-3.5-17-7.5-4.7-.7-9.3-.7-14 0a6.3 6.3 0 0 1-7 .5c-.4-4.2-1.6-8.2-3.5-12-.4.6-.9.9-1.5 1l1-4.5c-.3-1.3-1-2.3-2-3 1.5-2 2.5-4 3-6.5 2.4-2.2 5.4-3.4 9-3.5 3.9-.8 7.5-.6 11 .5Z" style="opacity:1"/><path fill="#777a81" d="M407.5 353.5c2.6 1 2.6 2.1 0 3.5l1 1c-1.6.7-3.1.6-4.5-.5a8.4 8.4 0 0 0-.5 4h-3c.3-2.8-.4-3.3-2-1.5.5 1.3.5 2.8 0 4.5-4.4-.2-7.7 1.5-10 5a47.8 47.8 0 0 0-8 4.5c-2 .5-4 .7-6 .5 8.1-5.2 16.1-10.7 24-16.5l9-4.5Z" style="opacity:1"/><path fill="#74777e" d="M499.5 316.5c1.7.4 3.3.9 5 1.5 2.8 1.9 5.5 3.9 8 6 1.9 3.2 3.5 6.5 5 10-1.7 2.5-1.2 4.4 1.5 5.5 2.5 6.6 2 13-1.5 19 .5.7 1.2 1.2 2 1.5l-4 1a5.6 5.6 0 0 1 2 5.5c-2-.2-4 .2-6 1a3 3 0 0 0-1 3c-4-.8-7 .5-9 4-.7 5.5-2 10.9-4 16h-4c-.8-2.2-2.5-3.2-5-3v-3c-5.3-1.4-5.3-3.3 0-5.5-1.7-.4-3.4-.9-5-1.5h-1l4-2c-2.5-1.8-3.4-4-2.5-7 1.3 1.3 2.5 1.1 3.5-.5-.8-3-1.1-5.7-1-8.5a4.7 4.7 0 0 0 3-4c1 .2 1.7-.2 2-1 1.4.2 2.7 0 4-.5a3.3 3.3 0 0 1-2-3.5c1.8.3 3.5 0 5-1a15 15 0 0 1 3-3.5 6.8 6.8 0 0 1-3-1.5c4-.2 4.6-2 2-5.5l4-1a9 9 0 0 0-8-6.5c-4-3.9-3.4-5.2 2-4v-5c-2.7.1-3.4-.9-2-3a32 32 0 0 1-4-2.5c.6-.9 1.4-1.4 2.5-1.5 1.4.6 3 1 4.5 1Z" style="opacity:1"/><path fill="#71747c" d="M416.5 366.5c1 3.9 3.4 6.7 7 8.5a29.2 29.2 0 0 0 0 15c0 3.3-.6 6.5-2 9.5.2 2.6.7 2.6 1.5 0l.5 1.5c-.9 1.4-1.6 2.9-2 4.5 1.4 1.8 2 3.8 1.5 6a26 26 0 0 1-5 5c-.7-1-1.6-1.1-2.5-.5 2.4 1.5 2.4 2.6 0 3.5-2.4-.7-3-2-2-4-2-1.2-3.8-2.5-5.5-4a47 47 0 0 0 1.5-10l-2-6.5c2-2.9 3.3-6 4-9.5a8.8 8.8 0 0 1-2-7h4c0-2-.6-4-2-5.5l1-3c-2-.8-4-1.3-6-1.5v5c-3.6.2-7 .5-10 1 .5.7 1.2 1.2 2 1.5-2.4 1.8-2.4 3.6 0 5.5a29 29 0 0 0 2 8c.6-.1 1-.5 1-1 1.3 1 1.3 2.2 0 3.5l3 1c-.8.7-1 1.5-1 2.5-2.6 3-6 5-10 6-2-2.2-4-4.5-6-7-1.2 1.2-2.2 1.2-3 0 3.9-4.5 3.9-9 0-13.5 2.1-1.6 2.5-3.4 1-5.5l4-4c.8-.7 1.4-1.5 2-2.5 3-1 6-1.8 9-2.5 2.7-2.8 6-3.6 10-2.5 2.3.2 4.3 1 6 2.5Z" style="opacity:1"/><path fill="#c2c5ca" d="M325.5 364.5c1.8 1.4 3.1 3.2 4 5.5-3.3 2.2-5.6 1.4-7-2.5.8-1.2 1.8-2.2 3-3Z" style="opacity:1"/><path fill="#9ea2a8" d="m420.5 352.5-16 9c7 .3 13.3 2.3 19 6l-2 1a6 6 0 0 0-5-2 10.6 10.6 0 0 0-6-2.5c-4-1.1-7.3-.3-10 2.5-3 .7-6 1.5-9 2.5-.6 1-1.2 1.8-2 2.5.2-1-.2-1.7-1-2 2.3-3.5 5.6-5.2 10-5 .5-1.7.5-3.2 0-4.5 1.6-1.8 2.3-1.3 2 1.5h3c-.2-1.4 0-2.7.5-4 1.4 1 2.9 1.2 4.5.5l-1-1c2.6-1.4 2.6-2.6 0-3.5 2-.2 3.7.5 5 2a6.4 6.4 0 0 0 2.5-5 5.6 5.6 0 0 0 5.5 2Z" style="opacity:1"/><path fill="#666667" d="M554.5 362.5a73 73 0 0 1 0 21c-.7-5-1.2-10-1.5-15-.7 1.7-1.9 2.2-3.5 1.5 1.3-2.5 1.3-5 0-7.5 1.5.4 3.2.4 5 0Z" style="opacity:1"/><path fill="#27292b" d="m30.5 337.5 1 4a15.1 15.1 0 0 0-2 8.5c0 2 .3 3.9 1 5.5v3a15 15 0 0 1-3 6.5c1 .7 1.7 1.7 2 3l-1 4.5c-1.8 0-2.8.8-3 2.5 1.6 5 2.6 9.8 3 14.5.1 1.8-.2 3.5-1 5a50 50 0 0 0-6-.5l3-1c-2-.8-2.2-2-1-3.5 1.2.8 2.2 1.8 3 3l1-1c-.3-2.3-1.3-4-3-5-.3-2.3-1.6-3.4-4-3.5a4.3 4.3 0 0 0 3-2.5 20 20 0 0 1-3-5 6 6 0 0 1 3-6.5c-.1-1.7-.6-1.9-1.5-.5a25 25 0 0 1-.5-7 3 3 0 0 0 2-2 8.6 8.6 0 0 1 2-10h3c.2-3.3.2-6.3 0-9v-1c0-1.3.7-2 2-2Z" style="opacity:1"/><path fill="#91949b" d="M489.5 355.5a4.7 4.7 0 0 1-3 4c-.1 2.8.2 5.6 1 8.5-1 1.6-2.2 1.8-3.5.5-.9 3 0 5.2 2.5 7l-4 2c-1.5-4.4-.8-9 2-13.5-.5-.4-.8-1-1-1.5 1-3.3 3-5.6 6-7Z" style="opacity:1"/><path fill="#6e6f70" d="M21.5 361.5a25 25 0 0 0 .5 7c.9-1.4 1.4-1.2 1.5.5a6 6 0 0 0-3 6.5c-.6-.6-1-1.4-1-2.5.5-4 1.2-7.8 2-11.5Z" style="opacity:1"/><path fill="#c0c3c8" d="M401.5 388.5c0 .5-.4.9-1 1a29 29 0 0 1-2-8c-.3-5 2-7.3 7-7 .4 5.3 1.4 10.5 3 15.5-.7 1.3-1.5 2.4-2.5 3.5-.5-1.2-1.3-2-2.5-2.5 2.3-1.3 2.3-2.8 0-4.5a3 3 0 0 0-2 2Z" style="opacity:1"/><path fill="#55585e" d="M28.5 372.5c.3 5.2.3 11 0 17-.4-4.7-1.4-9.5-3-14.5.2-1.7 1.2-2.6 3-2.5Z" style="opacity:1"/><path fill="#8c9097" d="M385.5 375.5c1.5 2.1 1.1 4-1 5.5 3.9 4.5 3.9 9 0 13.5-.6-.1-1.1-.4-1.5-1l-.5-7.5c0-4 1-7.4 3-10.5Z" style="opacity:1"/><path fill="#252627" d="M554.5 360.5v2c-1.8.4-3.5.4-5 0 1.3 2.5 1.3 5 0 7.5 1.6.7 2.8.2 3.5-1.5.3 5 .8 10 1.5 15v2c-1 1.8-1 3.8 0 6v7c-1.1 3.1-2 6.5-2.5 10-.7-.8-1.5-1-2.5-1-3.2-.6-4.5-2.6-4-6v-7c.9.1 1.5-.2 2-1-1.7-4.1-1.3-8 1-11.5a5 5 0 0 0-3-3.5c.7-8.4.7-16.7 0-25 1-1.4 1.3-3 1-5h4c.2 2.4-.1 4.8-1 7 3 1.5 3.6.8 2-2 0-1.9.5-2.2 1.5-1 .2 2.9.7 5.5 1.5 8Z" style="opacity:1"/><path fill="#686b72" d="M545.5 378.5a5 5 0 0 1 3 3.5 11.8 11.8 0 0 0-1 11.5c-.5.8-1.1 1.1-2 1v-16Z" style="opacity:1"/><path fill="#979ba1" d="M483.5 377.5c1.6.6 3.3 1.1 5 1.5-5.3 2.2-5.3 4 0 5.5v3c2.5-.2 4.2.8 5 3-8-1-11.3-5.3-10-13Z" style="opacity:1"/><path fill="#5d5e5f" d="M20.5 375.5a20 20 0 0 0 3 5 4.3 4.3 0 0 1-3 2.5c2.4 0 3.7 1.2 4 3.5h-3c-.5 3.2-1.1 6.4-2 9.5 1.6 2.3 1.3 4.1-1 5.5.2-2-.1-4.1-1-6.5.4-6.5 1.4-13 3-19.5Z" style="opacity:1"/><path fill="#84888f" d="M167.5 361.5a34.5 34.5 0 0 1 17 33c-1-1-1.3-2.4-1-4h-3c.3-2.1 0-4.1-1-6a46.6 46.6 0 0 1-6-5.5l5-5c-2.8-1.7-5-3.9-7-6.5-1.6.8-3.1 1.8-4.5 3-1.9-.4-2.7-1.5-2.5-3.5l3-5.5Z" style="opacity:1"/><path fill="#73767e" d="m167.5 361.5-3 5.5c-.2 2 .6 3.1 2.5 3.5 1.4-1.2 2.9-2.2 4.5-3 2 2.6 4.2 4.8 7 6.5l-5 5c1.8 2 3.8 3.9 6 5.5 1 1.9 1.3 3.9 1 6h3c-.3 1.6 0 3 1 4 .8.3 1.2 1 1 2 .3 2.8-.2 5.5-1.5 8-.3-1.8-1-2.1-2-1-1.6 5.6-2.8 11.2-3.5 17-.6 2-1.6 3.6-3 5a33.5 33.5 0 0 1-8 10.5c1 .5 2 .6 3 .5v4h-3c.4 2.4-.6 4-3 4.5.8 1 1.2 2.2 1 3.5h4c0 2.9-1.2 4.6-4 5a8.9 8.9 0 0 1-6-3c.9-.8 1.6-1.8 2-3-.4-4.2-1.4-8.2-3-12 .6-3.3.5-6.6-.5-10-.7 2.8-2.2 3.5-4.5 2 .6-3.6 2.6-6 6-7a89 89 0 0 1-4-10c.3-3.2.3-6.5 0-10 .8-10 .5-20-1-30l-3.5-3a4.4 4.4 0 0 0-2.5 4 84.5 84.5 0 0 1 4 27 20 20 0 0 1-10 2v-3c-3.2-1-6-2.6-8.5-5a36.8 36.8 0 0 1 0-31 19.6 19.6 0 0 1 18-7c6 .6 11.2 3 15.5 7Z" style="opacity:1"/><path fill="#8c8c8d" d="M554.5 385.5c1.2 2.1 1.2 4.1 0 6-1-2.2-1-4.2 0-6Z" style="opacity:1"/><path fill="#1f2124" d="M209.5 374.5c8.2 6.3 16.8 11.8 26 16.5 13 4.8 24.6 11.6 35 20.5.1 1 0 2-.5 3-1.8-2.3-4-2.7-6.5-1-11.4-6-23.1-11.8-35-17-.8-.7-1.5-1.6-2-2.5-12.3-5.8-24-12.6-35-20.5 2.5.4 4.7-.3 6.5-2v4c2.6 2.3 5.1 2.3 7.5 0 2.4 3 3.7 2.6 4-1Z" style="opacity:1"/><path fill="#34373b" d="M345.5 393.5a80 80 0 0 1-17 12c-1.4-1.9-.9-3.2 1.5-4 1.1 1.2 2.3 1.2 3.5 0 1.5-1 1.8-2.3 1-3.5l5-1c-1.2-.9-1.2-1.7 0-2.5.6.2 1 .5 1.5 1 1-1.6 2.5-2.3 4.5-2Z" style="opacity:1"/><path fill="#74777e" d="M482.5 401.5a29 29 0 0 1 19 6.5c5.3 18.2-.7 24-18 17.5-.4-4.4-1.7-8.4-4-12a65 65 0 0 1 3-12Z" style="opacity:1"/><path fill="#54575d" d="M328.5 405.5a7 7 0 0 1-4 3v-3h4Z" style="opacity:1"/><path fill="#161719" d="M24.5 386.5c1.7 1 2.7 2.7 3 5l-1 1a9.4 9.4 0 0 0-3-3c-1.2 1.5-1 2.7 1 3.5l-3 1c2.2 0 4.2.2 6 .5.2 1.6-.1 3.1-1 4.5a50.7 50.7 0 0 1 2 17.5c-1 2-2.7 3.4-5 4-2.5-.8-3.2-2.3-2-4.5-.6-.5-1.3-.6-2-.5.7-2.2 1.2-4.6 1.5-7 .7 1.2 1.2 1.2 1.5 0-1-1.7-2.4-3-4-4v-3c2.3-1.4 2.6-3.2 1-5.5.9-3.1 1.5-6.3 2-9.5h3Z" style="opacity:1"/><path fill="#3c3e42" d="M545.5 401.5c-.5 3.4.8 5.4 4 6 .7 1.5 1.7 2.9 3 4a12 12 0 0 0-4 6c-1.3 1.5-2.2 1.1-2.5-1a5.5 5.5 0 0 1-1.5 3c-.3-6.2 0-12.2 1-18Z" style="opacity:1"/><path fill="#292b2f" d="M286.5 393.5c.6 2 1.6 4 3 6-2.6 3.5-2.6 7 0 10.5l-2 1c5 1 4.7 1.5-1 1.5-.5 5 .1 9.6 2 14a3 3 0 0 1-3 1c-.2-2-.2-4.4 0-7-3.8.3-7.4 0-11-1 0-1 .2-1.8 1-2.5-3.1-1-3.5-2.2-1-3.5 3.2 2.4 6.9 3.4 11 3a184 184 0 0 0 1-23Z" style="opacity:1"/><path fill="#8e9299" d="M185.5 396.5c.7 1.6 1 3.5 1 5.5-.6 3.9-1.5 7.7-2.5 11.5-1 3-2.7 5.4-5.5 7 .7-5.8 1.9-11.4 3.5-17 1-1.1 1.7-.8 2 1 1.3-2.5 1.8-5.2 1.5-8Z" style="opacity:1"/><path fill="#7d8087" d="M416.5 366.5a6 6 0 0 1 5 2l2-1 3 39a6.9 6.9 0 0 1-2 4c1.1 3.3 1 6.7-.5 10a7.6 7.6 0 0 1-7.5 5c-2.7 0-3.4-1-2-3-1.5-1.1-2.9-.8-4 1-1.4-1.1-3-2.1-4.5-3-.3-6.5-.8-13-1.5-19.5l1-4.5c0-2.2-.6-2.6-2-1 0-1 .2-1.8 1-2.5l-3-1c1.3-1.3 1.3-2.5 0-3.5a3 3 0 0 1 2-2c2.3 1.7 2.3 3.2 0 4.5 1.2.5 2 1.3 2.5 2.5 1-1 1.8-2.2 2.5-3.5-1.6-5-2.6-10.2-3-15.5-5-.3-7.3 2-7 7-2.4-2-2.4-3.7 0-5.5-.8-.3-1.5-.8-2-1.5 3-.5 6.4-.8 10-1v-5c2 .2 4 .7 6 1.5l-1 3a8 8 0 0 1 2 5.5h-4c-.3 2.7.3 5 2 7-.7 3.5-2 6.6-4 9.5l2 6.5a47 47 0 0 1-1.5 10c1.7 1.5 3.5 2.8 5.5 4-1 2-.4 3.3 2 4 2.4-.9 2.4-2 0-3.5 1-.6 1.8-.5 2.5.5a26 26 0 0 0 5-5c.4-2.2 0-4.2-1.5-6 .4-1.6 1.1-3.1 2-4.5l-.5-1.5c-.8 2.6-1.3 2.6-1.5 0 1.4-3 2-6.2 2-9.5a29.2 29.2 0 0 1 0-15c-3.6-1.8-6-4.6-7-8.5Z" style="opacity:1"/><path fill="#606161" d="M554.5 398.5c1.3 2.6 1 5.4-1 8.5a49 49 0 0 1 0 16.5v-7h-3c.2 3.4-.5 3.7-2 1a12 12 0 0 1 4-6 11.2 11.2 0 0 1-3-4c1 0 1.8.2 2.5 1 .5-3.5 1.4-6.9 2.5-10Z" style="opacity:1"/><path fill="#5c5d5e" d="M18.5 404.5c1.6 1 3 2.3 4 4-.3 1.2-.8 1.2-1.5 0-.3 2.4-.8 4.8-1.5 7-.3 2.3 0 4.5 1 6.5-.5.7-1.2 1.2-2 1.5a96 96 0 0 1 0-19Z" style="opacity:1"/><path fill="#4e5156" d="M270.5 411.5c1.7.2 3 .8 4 2-2.5 1.3-2.1 2.5 1 3.5-.8.7-1 1.5-1 2.5-1.2-.5-2.4-1.2-3.5-2-1.8 1.1-2.6.4-2.5-2-2.2.4-3.9-.3-5-2 2.5-1.7 4.7-1.3 6.5 1 .5-1 .6-2 .5-3Z" style="opacity:1"/><path fill="#43454b" d="M308.5 417.5c-.1.6-.4 1.1-1 1.5a2734 2734 0 0 1-13 3.5c0-3 1-3.7 3.5-2a10 10 0 0 1 10.5-3Z" style="opacity:1"/><path fill="#93979d" d="M155.5 400.5c.3 3.5.3 6.8 0 10a89 89 0 0 0 4 10 8.2 8.2 0 0 0-6 7c-.4-2.4-.8-5-1-7.5.6-6.7 1.6-13.2 3-19.5Z" style="opacity:1"/><path fill="#343639" d="M19.5 415.5c.7-.1 1.4 0 2 .5-1.2 2.2-.5 3.7 2 4.5 2.3-.6 4-2 5-4 .2 3.7-.2 7.4-1 11-1.4 0-2.8-.3-4-1-.8 2-2.2 3.3-4 4 1.6-1.9 1.2-3.2-1-4v-3c.8-.3 1.5-.8 2-1.5-1-2-1.3-4.2-1-6.5Z" style="opacity:1"/><path fill="#393a3b" d="m553.5 423.5 1 2-2 9c-.4-2-.4-3.9 0-5.5h-4c-.6-1.9-1.6-3.6-3-5 2.6.4 5.2.2 8-.5Z" style="opacity:1"/><path fill="#686b70" d="M544.5 424.5c.4 2.5.4 4.9 0 7a6.6 6.6 0 0 1 0-7Z" style="opacity:1"/><path fill="#1f2021" d="M548.5 417.5c1.5 2.7 2.2 2.4 2-1h3v7c-2.8.7-5.4.9-8 .5 1.4 1.4 2.4 3.1 3 5h4c-.4 1.6-.4 3.5 0 5.5-1.6-.2-3.1.1-4.5 1a5.2 5.2 0 0 0-3.5-3v-1c.4-2.1.4-4.5 0-7v-5c.8-.8 1.3-1.8 1.5-3 .3 2.1 1.2 2.5 2.5 1Z" style="opacity:1"/><path fill="#676868" d="M18.5 426.5c2.2.8 2.6 2.1 1 4 .2 11.5.2 22.8 0 34-.8-12.6-1.1-25.3-1-38Z" style="opacity:1"/><path fill="#8b8e95" d="M159.5 450.5c-4-7-6-14.7-6-23 2.3 1.5 3.8.8 4.5-2 1 3.4 1.1 6.7.5 10 1.6 3.8 2.6 7.8 3 12a6.9 6.9 0 0 1-2 3Z" style="opacity:1"/><path fill="#2d2f33" d="M285.5 429.5a3 3 0 0 0 1 3c1.7-2.4 4-3.4 7-3v10c-1.3-1.3-2.6-1.3-4 0a3 3 0 0 1-1-3h-3v8c-1.3-5-1.3-10 0-15Z" style="opacity:1"/><path fill="#787b82" d="M254.5 446.5a46 46 0 0 0-9 1 20.9 20.9 0 0 0-12-2c-3.4 1-6.8 1.8-10 2.5a10.4 10.4 0 0 1-4-7 3.5 3.5 0 0 1 3-3c-1.1-.7-1.1-1.6 0-2.5 4.8-1.4 9.5-1 14 1 3-1 6-1.8 9-2a6 6 0 0 1 2-5c-1.5-1.7-3.4-3-5.5-4a20.5 20.5 0 0 0-3.5 7c-2.5 1.5-4.6 1.2-6.5-1a42.5 42.5 0 0 1-2-14c4-7.4 8.9-8 14.5-1.5 4 1 7.1 3 9.5 6.5 3.6 5.8 5 12.2 4 19l-3.5 5Z" style="opacity:1"/><path fill="#767980" d="M424.5 436.5h6v3c1.9-.2 3.4.5 4.5 2l2.5 9c-1.8 8-6.5 10.3-14 7-.7-3.6-2-6.9-4-10 0-4.5 1.7-8.2 5-11Z" style="opacity:1"/><path fill="#90939a" d="M175.5 425.5a104 104 0 0 0-3 11c1 4.3 1.1 8.6.5 13-1.3 3.4-3.8 4.8-7.5 4 2.8-.4 4-2.1 4-5h-4c.2-1.3-.2-2.5-1-3.5 2.4-.6 3.4-2 3-4.5h3v-4c-1 .1-2 0-3-.5 3.5-3.2 6.2-6.7 8-10.5Z" style="opacity:1"/><path fill="#191b1c" d="M27.5 427.5a213 213 0 0 1 1 28c-1 4.8-1.3 9.8-1 15 .3 4.2 0 8.2-1 12-1.5 1-3.2 1.7-5 2v-1c.2-5 0-10-.5-15-.3-1-.8-1.6-1.5-2v-2c.2-11.2.2-22.5 0-34 1.8-.7 3.2-2 4-4 1.2.7 2.6 1 4 1Z" style="opacity:1"/><path fill="#7a7d84" d="M211.5 442.5c1.8-.1 3.4.2 5 1 2.3 3.2 4 6.7 5 10.5-5.4 9-9.9 8.5-13.5-1.5-.7-2.7-.7-5.3 0-8 1.3-.6 2.5-1.3 3.5-2Z" style="opacity:1"/><path fill="#9a9da4" d="M233.5 445.5c4.3-.5 8.3.2 12 2a46 46 0 0 1 9-1c-.1.6-.4 1.1-1 1.5-3.1.4-6.1 1.2-9 2.5-4-1.3-7.6-3-11-5Z" style="opacity:1"/><path fill="#303337" d="M293.5 440.5c.2 4 .2 8 0 12-3.4-1.4-4.5-3.7-3.5-7-1.3 1.4-2.2 1-2.5-1l.5-2c1 1.8 2.6 2.3 4.5 1.5.8-1 1.2-2.2 1-3.5Z" style="opacity:1"/><path fill="#222324" d="M543.5 447.5c1.2-3.2 1.2-6.5 0-10 1-3.9 2-3.9 3 0-1 3.1.1 3.8 3.5 2 2.2 3.1 1.3 5.3-2.5 6.5 1.5.3 2.9 1 4 2-1.7 2.5-4 4-7 4.5a7.1 7.1 0 0 1-1-5Z" style="opacity:1"/><path fill="#161719" d="M293.5 439.5v1c.2 1.3-.2 2.5-1 3.5-2 .8-3.4.3-4.5-1.5l-.5 2c.3 2 1.2 2.4 2.5 1-1 3.3.1 5.6 3.5 7v3l-2 5a11 11 0 0 0-5-6c-1-2.6-1.3-5.3-1-8v-10h3a3 3 0 0 0 1 3c1.4-1.3 2.7-1.3 4 0Z" style="opacity:1"/><path fill="#73767d" d="M396.5 465.5c0 2.5 1 4.5 3 6-.4.8-.8 1.6-1 2.5 2.6 4.5 4.3 9.2 5 14-2 2.3-3 5-3 8 .4 2.5.8 5 1 7.5a178 178 0 0 1-6.5 17 86 86 0 0 0-11.5 10.5l-15 8.5c-.1 2.2-.8 4.2-2 6-2.4-.1-4.2.9-5.5 3-.2 2.4-.7 4.7-1.5 7l-2-1c-1.2.3-1.2.8 0 1.5-2 .4-3.6 1.2-5 2.5-1-1.4-1-3 0-4.5-1.1-3.5-3.3-4.3-6.5-2.5a7 7 0 0 1-3.5-2v-7c.2-1.2.9-2.2 2-3l-2-2c.3-2.8 1.3-5.3 3-7.5-2.5-.8-2.7-2-.5-3.5.4.5 1 .8 1.5 1a9.1 9.1 0 0 1 5-7c-.2-.6-.5-1-1-1.5a6.5 6.5 0 0 0 3-3 4.2 4.2 0 0 1-3-2.5c1.5-2.3 2.8-4.7 4-7 1.4.2 2.7 0 4-.5 1-2 2.7-3.4 5-4l-1-1c2.1-8.2 3.8-16.6 5-25-.8-4.4-1.3-9-1.5-13.5a9.3 9.3 0 0 1-2.5-6h-6a8.6 8.6 0 0 0-5-3c1-2.4 0-3.4-3-3 .3 4 0 7.8-1 11.5a7 7 0 0 1 2 4.5c-.8 3-.8 5.8 0 8.5-.7 2.6-2 4.7-4 6.5l2 7c-.8 2.7-1.8 4.7-3 6h-6c-2.1-.9-4.1-2-6-3.5a8.4 8.4 0 0 0-4-.5 6 6 0 0 0-2-5c1.6-2.4 2.6-5 3-8-1.4-3.9-3-3.9-4.5 0a12.1 12.1 0 0 1-1-8c3.4-1.4 3.2-2-.5-2-.1-3 .2-6 1-9a4 4 0 0 0-2-3.5l4-7c-.6-.4-.9-.9-1-1.5 1.4-3 3.4-5.4 6-7.5 9-3 18-3.2 27-.5 3.8 2.8 8.2 4.3 13 4.5 8.5 7 16.5 14.5 24 22.5Z" style="opacity:1"/><path fill="#4c4d4e" d="M544.5 432.5c1.6.4 2.8 1.4 3.5 3a6.5 6.5 0 0 1 4.5-1c.5 2.8.9 5.6 1 8.5-1.5 18.4-2.9 36.2-4 53.5l-2 4a4.9 4.9 0 0 1-1-4l-3-3.5c2 .2 3.6-.8 5-3-.5-1.2-1.3-2-2.5-2.5.5-3.2.4-6.2-.5-9 .3-1.2.8-1.2 1.5 0a16 16 0 0 1 2.5-4.5l1-9c-1-1.6-2.2-3.1-3.5-4.5-1 1.2-1.7 1-2.5-.5 1.8-1.7 3.5-3.6 5-5.5-1.5-1.2-2.7-.9-3.5 1-.3-.8-.8-1.5-1.5-2l-2 5c-.3-3.9 0-7.5 1-11-.3 1.8 0 3.5 1 5 3-.5 5.3-2 7-4.5a7.9 7.9 0 0 0-4-2c3.8-1.2 4.7-3.4 2.5-6.5-3.4 1.8-4.5 1.1-3.5-2-1-3.9-2-3.9-3 0-.3-2 0-3.6 1-5Z" style="opacity:1"/><path fill="#767980" d="M145.5 508.5c-.7 2-1.4 4.2-2 6.5 1.7.7 2.2 1.9 1.5 3.5-.9-1.6-1.9-2-3-1a8.4 8.4 0 0 0-.5 4 8.5 8.5 0 0 1-3-5c1.2-1.7 1.2-3.4 0-5-2.2-3-4.8-5.5-8-7.5l5-1c-2.2-1-2.3-2.3-.5-3.5.8-1.9.4-3.6-1-5l-1 2a7 7 0 0 0-2.5-3.5c1.6.6 3 .3 4-1-1.1-.7-1.1-1.6 0-2.5l-3-2.5 2-1a7 7 0 0 1-3.5-2.5c-2 .8-4.2.8-6.5 0 0-2.2-.8-4.2-2-6l1-2c-3.2-.3-5.2-2-6-5 .5-.7 1.2-1.2 2-1.5-2.9-1.6-5.5-1.8-8-.5a13 13 0 0 1-6.5-9l-1 1c-2.1-1.2-4-2.7-5.5-4.5-2.6-.5-5.3-.7-8-.5v-3h-3a9 9 0 0 0 1 5.5c2.6.4 4.8 1.6 6.5 3.5l1-2 2.5 3.5a17 17 0 0 0-2 6.5c-1.6-1.4-3-1-4 1-.9 4-.9 8 0 12l-2 12c1.4 0 2.8-.3 4-1 1.4 2.5.9 4.5-1.5 6-3-2.7-4.7-2-5 2 2.6.7 3.4 2 2.5 4-2.7.2-5.4 0-8-.5a32.8 32.8 0 0 0-12-5.5c-1-2.3-1.8-4.6-2.5-7-2-1-2.5-2.4-1.5-4a37.4 37.4 0 0 1-2.5-32c5.8-5.4 12.5-9 20-11 7.6 1.3 15 3 22.5 5 3.1 4.1 7 7.5 11.5 10 .5 1 .6 2 .5 3 1-.1 2 0 3 .5 5.2 4.2 9.7 9 13.5 14.5a109 109 0 0 0 8 16c1.4 4.6 2.5 9.2 3.5 14Z" style="opacity:1"/><path fill="#74787f" d="M487.5 453.5v3h-3c.2 1.9-.5 3.4-2 4.5 3.8-.5 7.5.4 11 2.5 1.5 2.4 2.8 4.7 4 7-2.3.3-4.3-.4-6-2-.8.9-1.3 1.9-1.5 3a30 30 0 0 0-6-8c-.5 1.2 0 2 1.5 2.5a15.5 15.5 0 0 0-4 13.5v7h-3c.1 2.4-.9 4.2-3 5.5-3.6.4-7.1 0-10.5-1.5-2.3-4.2-4.8-8.2-7.5-12l1-2c-4.5-7.7-3.8-14.9 2-21.5 8.8-4 17.8-4.5 27-1.5Z" style="opacity:1"/><path fill="#3f4146" d="M28.5 455.5c1.1 4.5 1.3 9.1.5 14-.4.6-.9.9-1.5 1-.3-5.2 0-10.2 1-15Z" style="opacity:1"/><path fill="#72757c" d="M141.5 521.5c-1.6.6-3.3.9-5 1a26 26 0 0 0 5 3.5 15.5 15.5 0 0 1-5 3c3.8 1.5 3.5 2.3-1 2.5a3 3 0 0 0-1-3c-.6 1.8-1.6 3.8-3 6l-5.5 2-1-1-1.5 3c1.5 1.3 2.2 3 2 5-4-.5-7.3.5-10 3-2 .3-3.5-.4-4.5-2a6.8 6.8 0 0 1-1.5 3 19.8 19.8 0 0 0-13.5 19c-1 .8-2.2 1.2-3.5 1-1.4-2-1-3.8 1-5.5a6.5 6.5 0 0 1-3-3c-2.4.5-4.7 1.3-7 2.5.2 1.3-.2 2.5-1 3.5l1.5 1.5c1.4-1 2.9-1.2 4.5-.5a12.7 12.7 0 0 1-14.5-2.5c-.5-2-.7-4-.5-6 1.4 0 2.8.3 4 1 1.7-1.7 3-3.7 4-6l-6-2c1.1-.8 2.3-1.4 3.5-2 .5-1.2 0-2-1.5-2.5 2-1 2.4-2.4 1-4 1-1 2.1-1.6 3.5-1.5a31 31 0 0 1 4-8c.2-2 0-4-.5-6 1.6-.1 2.8.5 3.5 2 1-1.5 1.5-3.2 1.5-5 1.5.3 2.8 0 4-1a6.5 6.5 0 0 0 3-5c1.8 0 3.5-.5 5-1.5a4.3 4.3 0 0 1-2-4.5c4 .9 8 1.5 12 2 .3-2.7-.3-5-2-7-1 3.5-2.5 3.8-4.5 1-1 2.3-1.8 2-2.5-1 .8-1.2 1.6-1.2 2.5 0 1-4 .5-7.6-1.5-11 2-.5 3.8.1 5.5 2 .7-.5 1.2-1.2 1.5-2-.7-1.2-1-2.6-1-4 1.5.3 2.8 0 4-1a28 28 0 0 1-1.5-5c-1 .8-2.2 1.2-3.5 1 .4 6.3-2 8-7 5v-1l2.5-1c.2-2.3.7-4.4 1.5-6.5l-1-1a7 7 0 0 0 6-1 63.2 63.2 0 0 1-6-5.5 24 24 0 0 0-.5 4 15 15 0 0 0-5.5-5 4.9 4.9 0 0 1-1-4h-3v-1a17 17 0 0 1 2-6.5l-2.5-3.5-1 2c-1.7-2-3.9-3-6.5-3.5a9 9 0 0 1-1-5.5h3v3c2.7-.2 5.4 0 8 .5 1.5 1.8 3.4 3.3 5.5 4.5l1-1c.8 4 3 7 6.5 9 2.5-1.3 5.1-1 8 .5-.8.3-1.5.8-2 1.5.8 3 2.8 4.7 6 5l-1 2c1.2 1.8 2 3.8 2 6 2.3.8 4.4.8 6.5 0a7 7 0 0 0 3.5 2.5l-2 1 3 2.5c-1.1 1-1.1 1.8 0 2.5-1 1.3-2.4 1.6-4 1 1.2.9 2 2 2.5 3.5l1-2a4.3 4.3 0 0 1 1 5c-1.8 1.2-1.7 2.4.5 3.5l-5 1c3.2 2 5.8 4.5 8 7.5 1.2 1.6 1.2 3.3 0 5a8.5 8.5 0 0 0 3 5Z" style="opacity:1"/><path fill="#94979e" d="M326.5 446.5c.1.6.4 1.1 1 1.5l-4 7c1.3.8 2 2 2 3.5-.8 3-1.1 6-1 9 3.7 0 4 .6.5 2-.6 2.8-.3 5.4 1 8 1.6-3.9 3-3.9 4.5 0-.4 3-1.4 5.6-3 8-1.8-4-3.4-8.2-5-12.5.5-.4.8-1 1-1.5-1.1.1-2.1-.4-3-1.5a23 23 0 0 1-1-5c1-4.1 1.9-8.3 2.5-12.5.9-2.6 2.4-4.6 4.5-6Z" style="opacity:1"/><path fill="#888c93" d="M487.5 453.5c7.8 3.4 14.8 8 21 14-6.2-2.7-9.3-.7-9.5 6-.3-.8-.8-1.5-1.5-2a4.7 4.7 0 0 0-.5 5c2.2.8 3.7 2.3 4.5 4.5h-4a5 5 0 0 1 1 2.5c-.5 2.8-1.1 5.5-2 8 .3-4.2-.5-8.2-2.5-12a23 23 0 0 1-7.5-8.5 5 5 0 0 0-3-.5c0 3.3-.6 6.3-2 9-.8-5.3.5-9.8 4-13.5-1.5-.4-2-1.3-1.5-2.5a30 30 0 0 1 6 8c.2-1.1.7-2.1 1.5-3a7.2 7.2 0 0 0 6 2 81.4 81.4 0 0 0-4-7c-3.5-2.1-7.2-3-11-2.5a4.6 4.6 0 0 0 2-4.5h3v-3Z" style="opacity:1"/><path fill="#73767d" d="m508.5 467.5-2 2c1.3 1.7 1.3 3.3 0 5 1.6 1 3.3 1.8 5 2.5-2.1 1.8-2.4 4-1 6.5l2-1c1 2.3 1.8 4.6 2.5 7 .7 1.1 1.6 1.1 2.5 0 4.5 4 6.8 9 7 15-2.3.3-2.6 1.3-1 3-.5.7-1.2 1.2-2 1.5a4 4 0 0 1 1 2l-3 4c1 1.5.9 3-.5 4.5-2.9 2-5.5 4.4-8 7a78 78 0 0 1-23.5 6c-4-1-8-1.7-12-2-3 .6-6 1-9 1l-2-1c1.1-1 1.1-1.8 0-2.5h-10a9 9 0 0 1-1-5.5 16 16 0 0 1 2-5c2.2-2.6 5-4.6 8-6a7 7 0 0 1 8.5 1c1-.8 1.6-1.8 2-3a4.5 4.5 0 0 0 5.5 0c1.9-3.8 4.4-4.5 7.5-2 1.8-2 4-3.5 6.5-4.5a7.7 7.7 0 0 0-5 .5c-4-1.2-4-2.5 0-4 2.4 1 3.4 0 3-3h3v-3a3 3 0 0 1 2-2c.9-2.5 1.5-5.2 2-8a5 5 0 0 0-1-2.5h4a7.5 7.5 0 0 0-4.5-4.5c-.8-1.8-.6-3.4.5-5 .7.5 1.2 1.2 1.5 2 .2-6.7 3.3-8.7 9.5-6Z" style="opacity:1"/><path fill="#222426" d="M546.5 496.5a9.2 9.2 0 0 1-5 1v-8c.8-1.5 1.5-3.2 2-5-1-5-1.3-10-1-15v-11l2-5c.7.5 1.2 1.2 1.5 2 .8-1.9 2-2.2 3.5-1-1.5 2-3.2 3.8-5 5.5.8 1.5 1.6 1.7 2.5.5 1.3 1.4 2.5 2.9 3.5 4.5l-1 9a16 16 0 0 0-2.5 4.5c-.7-1.2-1.2-1.2-1.5 0 .9 2.8 1 5.8.5 9 1.2.5 2 1.3 2.5 2.5-1.4 2.2-3 3.2-5 3l3 3.5Z" style="opacity:1"/><path fill="#25272a" d="M285.5 446.5c-.3 2.7 0 5.4 1 8a11 11 0 0 1 5 6l2-5-2 31c-.7.4-1.2 1-1.5 2a62.3 62.3 0 0 1-6.5-4 552 552 0 0 1 2-38Z" style="opacity:1"/><path fill="#898c93" d="M508.5 467.5c2.3 3.1 5.1 5.8 8.5 8 1 1.9 1.6 3.9 2 6 3 1.9 4.2 4.4 3.5 7.5.8 4 1.8 7.7 3 11.5 0 1.5-.3 2.9-1 4-.2-6-2.5-11-7-15-1 1.1-1.8 1.1-2.5 0-.7-2.4-1.5-4.7-2.5-7l-2 1c-1.4-2.5-1.1-4.7 1-6.5-1.7-.7-3.4-1.6-5-2.5 1.3-1.7 1.3-3.3 0-5l2-2Z" style="opacity:1"/><path fill="#8f939a" d="M95.5 470.5h3c-.3 1.5 0 2.8 1 4a15 15 0 0 1 5.5 5c0-1.6.3-3 .5-4 1.9 2 3.9 3.8 6 5.5a7 7 0 0 1-6 1l1 1c-.8 2-1.3 4.2-1.5 6.5l-2.5 1c-1.1-7-3.5-13.6-7-20Z" style="opacity:1"/><path fill="#7a7b7c" d="M19.5 466.5c.7.4 1.2 1 1.5 2 .5 5 .7 10 .5 15-1-5.5-1.6-11.2-2-17Z" style="opacity:1"/><path fill="#8c9097" d="M357.5 456.5c-1.4 0-2.8-.3-4-1a3.5 3.5 0 0 0-3 3 26 26 0 0 1 0 14c3 5.4 3.6 11 2 17h-3c.3 2.2-.3 4-2 5.5-2.9.8-5.5.6-8-.5h6c1.2-1.3 2.2-3.3 3-6l-2-7c2-1.8 3.3-4 4-6.5-.8-2.7-.8-5.6 0-8.5a7 7 0 0 0-2-4.5c1-3.7 1.3-7.6 1-11.5 3-.4 4 .6 3 3 2.2.5 3.8 1.5 5 3Z" style="opacity:1"/><path fill="#6d6f73" d="M542.5 469.5c-.3 5 0 10 1 15-.5 1.8-1.2 3.5-2 5-.3-6.9 0-13.5 1-20Z" style="opacity:1"/><path fill="#797d84" d="M186.5 482.5c.2 2 0 4-.5 6-4.1-1.8-6.3-.5-6.5 4h-4c-2.3-2.4-4-5.2-5-8.5 0-1.1.4-2.1 1-3-4 0-6-2-6-6 .2-9 4.5-12.9 13-11.5-.2 1.4 0 2.7.5 4 3.6 4.5 6 9.5 7.5 15Z" style="opacity:1"/><path fill="#4b4d51" d="M26.5 482.5a33.3 33.3 0 0 1 0 16v-7c-1-.1-2 0-3 .5-1 1.9-2.4 3.4-4 4.5.2-3.8.9-7.8 2-12 1.8-.3 3.5-1 5-2Z" style="opacity:1"/><path fill="#9fa2a9" d="M186.5 482.5c1.2.4 1.9 1.2 2 2.5-2 7.5-6.3 10-13 7.5h4c.2-4.5 2.4-5.8 6.5-4 .5-2 .7-4 .5-6Z" style="opacity:1"/><path fill="#8f939a" d="M91.5 482.5c6 3.4 8.4 8.8 7 16h-3c.4 4.4-1.6 6.8-6 7 1-2 0-3.3-2.5-4 .3-4 2-4.7 5-2 2.4-1.5 2.9-3.5 1.5-6-1.2.7-2.6 1-4 1l2-12Z" style="opacity:1"/><path fill="#9c9fa6" d="M396.5 465.5a30 30 0 0 1 8 19 234 234 0 0 1-3 19c-.2-2.5-.6-5-1-7.5 0-3 1-5.7 3-8-.7-4.8-2.4-9.5-5-14 .2-.9.6-1.7 1-2.5-2-1.5-3-3.5-3-6Z" style="opacity:1"/><path fill="#33353a" d="M283.5 484.5c2 1.4 4.2 2.8 6.5 4 .3-1 .8-1.6 1.5-2 .3 6.4.3 12.8 0 19-.4 1.9-2 3.2-5 4 1.8.8 3.5 1.8 5 3v14a6.5 6.5 0 0 1-3-4.5 5.1 5.1 0 0 0 1.5-4.5c-.4.5-1 .8-1.5 1-.2-3.3-1.9-5-5-5-.5-4.6.2-9 2-13-.5-.8-1.1-1.1-2-1-.5-3.5.2-6.7 2-9.5-2.2-1.5-2.9-3.3-2-5.5Z" style="opacity:1"/><path fill="#8c9097" d="M100.5 511.5a58 58 0 0 0 2-20c5 3 7.4 1.3 7-5 1.3.2 2.5-.2 3.5-1a28 28 0 0 0 1.5 5 4.9 4.9 0 0 1-4 1c0 1.4.3 2.8 1 4-.3.8-.8 1.5-1.5 2-1.7-1.9-3.6-2.5-5.5-2 2 3.4 2.5 7 1.5 11-.9-1.2-1.7-1.2-2.5 0 .7 3 1.5 3.3 2.5 1 2 2.8 3.5 2.5 4.5-1 1.7 2 2.3 4.3 2 7-4-.5-8-1.1-12-2Z" style="opacity:1"/><path fill="#616264" d="M546.5 496.5c-.3 1.5 0 2.8 1 4l2-4c0 1 .2 1.8 1 2.5a679 679 0 0 0-3 30.5c.1.7 0 1.4-.5 2-.7-1.2-1.2-1.2-1.5 0 1 1.3 1.1 2.6.5 4-1-1.4-1.8-2.7-2.5-4a171.5 171.5 0 0 1-2-34c1.8.1 3.5-.2 5-1Z" style="opacity:1"/><path fill="#777a81" d="M282.5 522.5v5a8.8 8.8 0 0 0-1.5 4c-1.6-1.2-3-2.5-4.5-4-1 .4-1 1.1 0 2-4.9.9-5.2-.5-1-4l-4-2c-.7-1.6-1-3.1-1-4.5-2-.8-4-.6-6 .5 2.4 1.7 3.4 4 3 7h-3a22 22 0 0 1 0-11.5c-1.2-.8-2.6-1.3-4-1.5-.7-8.5-5-11-13-7.5-2 .5-3.4 1.7-4 3.5-.7 1-1.4 2.2-2 3.5-2.4.3-4.7.8-7 1.5-2.2-.9-4.6-1.2-7-1-9.4-7.6-11.4-17-6-28a7 7 0 0 0 6-4.5c2.7-.7 5.3-.7 8 0l10 3 18 12 15.5 17.5c.7 3.3 1.9 6.3 3.5 9Z" style="opacity:1"/><path fill="#81858c" d="M494.5 493.5v3h-3c.4 3-.6 4-3 3-4 1.5-4 2.8 0 4 1.7-.7 3.3-.9 5-.5-2.6 1-4.7 2.5-6.5 4.5-3.1-2.5-5.6-1.8-7.5 2a4.5 4.5 0 0 1-5.5 0c-.4 1.2-1 2.2-2 3a7 7 0 0 0-8.5-1 4 4 0 0 1 2-3.5c6.5-2.1 12.7-5 18.5-8.5 2.1-.8 4.3-1.1 6.5-1a5.6 5.6 0 0 1 4-5Z" style="opacity:1"/><path fill="#2c2d30" d="M26.5 498.5v12a9.6 9.6 0 0 0-1 6c-2 .3-3.5-.4-4.5-2-1.2 1.5-2 1.3-2.5-.5.6-2.1 1.1-4.3 1.5-6.5l1 4a942 942 0 0 0 3.5-8l-1-1c-1 1.5-2.1 2.8-3.5 4-.5-3.3-.7-6.6-.5-10 1.6-1.1 3-2.6 4-4.5 1-.5 2-.6 3-.5v7Z" style="opacity:1"/><path fill="#5f6269" d="M291.5 505.5v7a24.4 24.4 0 0 0-5-3c3-.8 4.6-2.1 5-4Z" style="opacity:1"/><path fill="#9a9ea5" d="M243.5 509.5a13 13 0 0 1-.5 5 13.8 13.8 0 0 1-15.5-1c2.4-.2 4.8.1 7 1 2.3-.7 4.6-1.2 7-1.5.6-1.3 1.3-2.5 2-3.5Z" style="opacity:1"/><path fill="#7f8187" d="M283.5 499.5c.9-.1 1.5.2 2 1-1.8 4-2.5 8.4-2 13 1 2.2 1.6 4.6 2 7-1.3 0-2-.7-2.5-2-.8-6.4-.6-12.7.5-19Z" style="opacity:1"/><path fill="#6f7072" d="M19.5 496.5c-.2 3.4 0 6.7.5 10 1.4-1.2 2.5-2.5 3.5-4l1 1a942 942 0 0 1-3.5 8l-1-4c-.4 2.2-.9 4.4-1.5 6.5.5 1.8 1.3 2 2.5.5 1 1.6 2.5 2.3 4.5 2-.3-2.2 0-4.2 1-6-.1 4.7.2 9.4 1 14-.7-.4-1.2-1-1.5-2-1 .8-2.2.6-3.5-.5 2.4-.3 3-1.3 2-3-2-.5-4-.7-6-.5.3 1.8 1 3.4 2 5-.8 3-1.1 6-1 9-.2 3.1.1 6.1 1 9 0 1.1.4 2.1 1 3-1.4-.4-2.3-1.4-2.5-3-.4-8.3-.9-16.7-1.5-25 .7-4 .7-7.7 0-11a134 134 0 0 1 2-9Z" style="opacity:1"/><path fill="#71747b" d="M282.5 527.5c-.2 10 .2 20 1 30a5.2 5.2 0 0 1-3-3c-2.7 1-5 2.5-7 4.5 1.8.5 2.1 1.4 1 2.5a91.3 91.3 0 0 1-8 4 5 5 0 0 1-4.5-2c-4 2.8-5.3 1.8-4-3a11.1 11.1 0 0 1-12.5 0c-3.4-3-7.4-5.4-12-7l-8-3a4.7 4.7 0 0 1-5.5 0c-1 .4-1.6 1-2 2-.6-2.5-1.5-2.5-2.5 0-2.7-2-5.7-3.4-9-4-1.3-2-.6-3.2 2-3.5a4.9 4.9 0 0 0-5-2.5c-.8-2.8-.8-5 0-6.5 1.6 0 3.3.2 5 .5.2-2.4.5-4.7 1-7 4.3-.2 8.3-.5 12-1 2.4 0 4.2 1 5.5 3a8 8 0 0 1 3.5-1c2.2.7 4.2 1.7 6 3 2.5-1.4 5.1-2.4 8-3l18 3 2-1c-.4-2-1.4-3.4-3-4.5 1.2-.2 2.2-.7 3-1.5h3c.4-3-.6-5.3-3-7 2-1.1 4-1.3 6-.5 0 1.4.3 2.9 1 4.5l4 2c-4.2 3.5-3.9 4.9 1 4-1-.9-1-1.6 0-2 1.4 1.5 3 2.8 4.5 4 .2-1.6.7-2.9 1.5-4Z" style="opacity:1"/><path fill="#323334" d="M546.5 502.5c2.5 1.6 2.6 3.6.5 6-.6-2.1-1-2.3-1.5-.5.3 1.3 1 2.3 2 3-.2 3.8-.2 7.6 0 11.5-.8 2.5-1.8 2.5-3 0 1.1-1.7.4-2.4-2-2-.3-2 .4-3.5 2-4.5a9.6 9.6 0 0 1-2-7l1-5.5c1.4 1.3 2.4 1 3-1Z" style="opacity:1"/><path fill="#515253" d="M27.5 524.5v1a26 26 0 0 1-6-1.5c2 2.5 3.6 5.2 5 8-1.9.7-3.4.2-4.5-1.5-.4 1.3-1.3 2-2.5 2-.1-3 .2-6 1-9-1-1.6-1.7-3.2-2-5 2-.2 4 0 6 .5 1 1.7.4 2.7-2 3 1.3 1.1 2.4 1.3 3.5.5.3 1 .8 1.6 1.5 2Z" style="opacity:1"/><path fill="#82858c" d="M453.5 522.5a9 9 0 0 0 1 5.5h10c1.1.7 1.1 1.6 0 2.5l2 1c3 0 6-.4 9-1-3 2.8-5.7 6-8 9.5-7 1.5-11.9-1-14.5-7.5-.8-3.5-.6-6.9.5-10Z" style="opacity:1"/><path fill="#8c8f96" d="M260.5 513.5c1.4.2 2.8.7 4 1.5a22 22 0 0 0 0 11.5c-.8.8-1.8 1.3-3 1.5 1.6 1 2.6 2.6 3 4.5l-2 1-18-3c-2.9.6-5.5 1.6-8 3a24.6 24.6 0 0 0-6-3 8 8 0 0 0-3.5 1c-1.3-2-3-3-5.5-3-3.7.5-7.7.8-12 1a57 57 0 0 1 22-3c-.1 1 0 2 .5 3a4 4 0 0 1 3.5-2c8 3 16 3.2 24 .5 1.5-2.1 2.5-4.4 3-7-.8-2.5-1.5-5-2-7.5Z" style="opacity:1"/><path fill="#252627" d="M27.5 525.5v10c-2.3-.9-4.6-1.4-7-1.5.7 1 1.2 2.2 1.5 3.5 7.6 4.1 7 5.5-1.5 4-.9-2.9-1.2-5.9-1-9 1.2 0 2-.7 2.5-2 1.1 1.7 2.6 2.2 4.5 1.5-1.4-2.8-3-5.5-5-8a26 26 0 0 0 6 1.5Z" style="opacity:1"/><path fill="#858990" d="M145.5 508.5c1.9 9.4.7 18.4-3.5 27-2.7 3-5.8 5.3-9.5 7-5.6 1.5-11.3 2.8-17 4 2.7-2.5 6-3.5 10-3 .2-2-.5-3.7-2-5l1.5-3 1 1 5.5-2c1.4-2.2 2.4-4.2 3-6a3 3 0 0 1 1 3c4.5-.2 4.8-1 1-2.5 1.9-.7 3.5-1.7 5-3a26 26 0 0 1-5-3.5c1.7-.1 3.4-.4 5-1-.2-1.4 0-2.7.5-4 1.1-1 2.1-.6 3 1 .7-1.6.2-2.8-1.5-3.5.6-2.3 1.3-4.4 2-6.5Z" style="opacity:1"/><path fill="#979ba1" d="M350.5 513.5a4.2 4.2 0 0 0 3 2.5 6.5 6.5 0 0 1-3 3c.5.4.8 1 1 1.5a9.1 9.1 0 0 0-5 7c-.6-.2-1-.5-1.5-1-2.2 1.5-2 2.7.5 3.5a14.8 14.8 0 0 0-3 7.5l2 2a4.5 4.5 0 0 0-2 3c-1.2-5.2-1-10.5.5-16a11 11 0 0 1 5.5-5.5c-.5-.4-.8-1-1-1.5l3-6Z" style="opacity:1"/><path fill="#868a91" d="M209.5 529.5c-.5 2.3-.8 4.6-1 7-1.7-.3-3.4-.5-5-.5-.8 1.6-.8 3.7 0 6.5 2.2-.2 3.8.6 5 2.5-2.6.3-3.3 1.5-2 3.5 3.3.6 6.3 2 9 4 1-2.5 1.9-2.5 2.5 0 .4-1 1-1.6 2-2a4.7 4.7 0 0 0 5.5 0l8 3c-3.6-.5-7 .2-10 2-6.1-1.4-12.1-3-18-5-7.9-8.9-6.6-15.9 4-21Z" style="opacity:1"/><path fill="#8c8c8d" d="M547.5 529.5c0 4 .3 8 1 12-1.9-1.7-3.9-2-6-1 .7-3 1-6 1-9l2.5 4c.6-1.4.4-2.7-.5-4 .3-1.2.8-1.2 1.5 0 .5-.6.6-1.3.5-2Z" style="opacity:1"/><path fill="#222326" d="M283.5 513.5c3.1 0 4.8 1.7 5 5 .6-.2 1-.5 1.5-1 .3 1.7-.2 3.2-1.5 4.5.4 2 1.4 3.5 3 4.5v6c-.4 2.8-2.1 4-5 4 .1 4.3.5 4.7 1 1 1-.1 2 0 3 .5l-3 8.5c1.7 1 3 2.4 4 4v2c1.3 6.4-1 8.4-7 6-.7 0-1-.3-1-1-.8-10-1.2-20-1-30v-5a7 7 0 0 0 3-2c-.4-2.4-1-4.8-2-7Z" style="opacity:1"/><path fill="#53565c" d="M291.5 532.5v18c-1-1.6-2.3-3-4-4l3-8.5a5 5 0 0 0-3-.5c-.5 3.7-.9 3.3-1-1 2.9 0 4.6-1.2 5-4Z" style="opacity:1"/><path fill="#8d9097" d="M454.5 546.5c-1.5-.7-2.9-1.7-4-3a38.4 38.4 0 0 1-6.5 3c-4.6-1.6-7.4 0-8.5 5-1.3-2.3-1.1-4.6.5-7 2-.6 3.8-1.4 5.5-2.5 3.7-.2 7.3.1 11 1 1.3.8 2 2 2 3.5Z" style="opacity:1"/><path fill="#1c1d1f" d="M548.5 541.5c0 1 .4 2 1 3a6.7 6.7 0 0 0-2 4c0 .7-.3 1-1 1h-3c-.2-1.3.2-2.5 1-3.5-.7-.7-1.3-.7-2 0-.9 3.3-2.6 4-5 2 1.2-1.1 1.2-2.3 0-3.5l5-4c2.1-1 4.1-.7 6 1Z" style="opacity:1"/><path fill="#73767d" d="M454.5 546.5c8.2 4 12.2 10.6 12 20-1.5 8.5-6.6 13.2-15.5 14a9 9 0 0 1-5.5-3c.2-.6.5-1 1-1.5l-9.5-13.5-1.5-11c1-5 3.9-6.6 8.5-5 2-.7 4.2-1.7 6.5-3 1.1 1.3 2.5 2.3 4 3Z" style="opacity:1"/><path fill="#7b7c7c" d="M548.5 541.5c4 2.7 3.7 5-1 7 .2-1.5.9-2.9 2-4-.6-1-1-2-1-3Z" style="opacity:1"/><path fill="#4e4f52" d="M27.5 535.5c.9 2.6 1.2 5.2 1 8 7 4 14 7.6 21 11-2.6.4-4.7-.3-6.5-2-.6 1.1-1.5 2.1-2.5 3l1 2c-2-.5-4-1.4-6-2.5-4.9-3.4-9.6-7-14-10.5-.6-.9-1-1.9-1-3 8.6 1.5 9 .1 1.5-4-.3-1.3-.8-2.4-1.5-3.5 2.4.1 4.7.6 7 1.5Z" style="opacity:1"/><path fill="#81858c" d="M202.5 559.5a9 9 0 0 1-5-7c-1-.5-1.8-1.1-2.5-2-2.1 0-4.3.4-6.5 1a4.5 4.5 0 0 1-1.5-2l-8 7c-.8-2.2-2-2.2-3.5 0-1.4 3.2-.4 4.7 3 4.5-2.4-1.5-2.4-2.6 0-3.5 1.4.2 2.8.7 4 1.5-2 2.1-4.6 3.6-7.5 4.5a6.6 6.6 0 0 0 1.5 6.5c-.2.4-.6.6-1 .5-.6-.1-1.1-.4-1.5-1a23.4 23.4 0 0 1 6-24c3.8-.9 7.4-1.2 11-1 1.7 1.2 3.5 2 5.5 2.5l6.5 8.5c.8 1.6.6 2.9-.5 4Z" style="opacity:1"/><path fill="#72757c" d="M202.5 559.5c.5 4.3 1.5 8.5 3 12.5 0 1-.4 1.9-1 2.5-.9 3-2.7 5.4-5.5 7-5.8-1-11.6-1.3-17.5-1l-2-1a55 55 0 0 0-4-9c.4 0 .8-.1 1-.5-1.7-2-2.2-4-1.5-6.5 3-.9 5.4-2.4 7.5-4.5-1.2-.8-2.6-1.3-4-1.5-2.4.9-2.4 2 0 3.5-3.4.2-4.4-1.3-3-4.5 1.6-2.2 2.7-2.2 3.5 0l8-7c.3.8.8 1.5 1.5 2 2.2-.6 4.4-1 6.5-1 .7.9 1.5 1.5 2.5 2a9 9 0 0 0 5 7Z" style="opacity:1"/><path fill="#878a91" d="M366.5 545.5a8.8 8.8 0 0 1-4.5 4l-1 9a4 4 0 0 0-2.5 4c-9.6.8-14.9-3.6-16-13a7 7 0 0 0 3.5 2c3.2-1.8 5.4-1 6.5 2.5-1 1.6-1 3 0 4.5 1.4-1.3 3-2.1 5-2.5-1.2-.7-1.2-1.2 0-1.5l2 1c.8-2.3 1.3-4.6 1.5-7a5.7 5.7 0 0 1 5.5-3Z" style="opacity:1"/><path fill="#444548" d="M537.5 544.5c1.2 1.2 1.2 2.4 0 3.5 2.4 2 4.1 1.3 5-2 .7-.7 1.3-.7 2 0-.8 1-1.2 2.2-1 3.5h3c-5.1 3.4-10.4 6.4-16 9 1.2-2.3.9-4.1-1-5.5 2.8-1.4 3.2-2.9 1-4.5-1.5 2-3.5 3-6 3 3.7-3.3 8-5.6 13-7Z" style="opacity:1"/><path fill="#262729" d="M49.5 554.5a29 29 0 0 1 8 3c-.3 1.5-1.3 2.2-3 2v3h-3c-1 .2-1.7-.2-2-1-1.6-1.3-3.2-2.7-5-4-.6.1-1 .5-1 1-1 .2-1.7-.2-2-1a44 44 0 0 0-1-2c1-.9 1.9-1.9 2.5-3 1.8 1.8 4 2.4 6.5 2Z" style="opacity:1"/><path fill="#414346" d="M57.5 557.5c2.2.6 4.2 1.6 6 3-3.6-2-6-1-7 3 1.1.8 1.8 1.8 2 3-2.8-.6-5.2-2-7-4h3v-3c1.7.2 2.7-.5 3-2Z" style="opacity:1"/><path fill="#828383" d="M43.5 558.5c0-.5.4-.9 1-1 1.8 1.3 3.4 2.7 5 4a9 9 0 0 1-6-3Z" style="opacity:1"/><path fill="#5c5d5e" d="m530.5 558.5-8 5c0-1-.2-1.8-1-2.5a6.9 6.9 0 0 0 5-3l-1-1c2-.6 3.7-.1 5 1.5Z" style="opacity:1"/><path fill="#8a8e95" d="M283.5 557.5c0 .7.3 1 1 1v8l-2-6a36.2 36.2 0 0 1-28 5.5 47.1 47.1 0 0 1-9-5.5c4.2 2.6 8.3 2.6 12.5 0-1.3 4.8 0 5.8 4 3a5 5 0 0 0 4.5 2c2.6-1.2 5.3-2.5 8-4 1.1-1.1.8-2-1-2.5 2-2 4.3-3.5 7-4.5a5.2 5.2 0 0 0 3 3Z" style="opacity:1"/><path fill="#212225" d="m63.5 560.5 5 2 7 6c-2.3.4-3 1.4-2 3-.4 2.4-1.4 3-3 2v-5a18 18 0 0 1-8-2c-.6.1-1 .5-1 1-1.1 0-2.1-.4-3-1a4.5 4.5 0 0 0-2-3c1-4 3.4-5 7-3Z" style="opacity:1"/><path fill="#3d4045" d="M291.5 552.5c.8 4 1.4 8.2 2 12.5a4 4 0 0 1-1 2c1.3.4 2 1.3 2 2.5a9.1 9.1 0 0 1-5-8 4.5 4.5 0 0 0 0 5.5l-1 .5c-1.9-4-2.9-3.6-3 1-.8-.3-1.2-1-1-2v-8c6 2.4 8.3.4 7-6Z" style="opacity:1"/><path fill="#202123" d="M530.5 558.5a4.3 4.3 0 0 0-5-1.5l1 1a6.9 6.9 0 0 1-5 3c.8.7 1 1.5 1 2.5-1 0-1.8-.2-2.5-1-1.1 3.5-3.3 4.6-6.5 3.5.5.4.8 1 1 1.5l-4 3c-4.6-1-5.6-3.3-3-7 5.3-4.5 11-8.5 17-12 2.5 0 4.5-1 6-3 2.2 1.6 1.8 3.1-1 4.5 1.9 1.4 2.2 3.2 1 5.5Z" style="opacity:1"/><path fill="#8b8e95" d="M100.5 511.5c-.3 2 .4 3.5 2 4.5a8.8 8.8 0 0 1-5 1.5 6.5 6.5 0 0 1-3 5 4.9 4.9 0 0 1-4 1c0 1.8-.5 3.5-1.5 5a3.3 3.3 0 0 0-3.5-2c.5 2 .7 4 .5 6a31 31 0 0 0-4 8c-1.4 0-2.5.4-3.5 1.5 1.4 1.6 1 3-1 4 1.5.4 2 1.3 1.5 2.5-1.2.6-2.4 1.2-3.5 2l6 2c-1 2.3-2.3 4.3-4 6-1.2-.7-2.6-1-4-1-.2 2 0 4 .5 6 4.3 4 9.2 4.8 14.5 2.5a4.2 4.2 0 0 0-4.5.5l-1.5-1.5c.8-1 1.2-2.2 1-3.5 2.3-1.2 4.6-2 7-2.5a6.5 6.5 0 0 0 3 3c-2 1.7-2.4 3.5-1 5.5-.6 1.1-1.5 2.1-2.5 3a14.4 14.4 0 0 0-10.5 0 7 7 0 0 1-4-1v-1l-7-6c1 0 2 .4 3 1 .8-8.8 2.3-17.5 4.5-26 2-2 3.5-4.3 4.5-7 3.7-4 8-7.4 13-10 2.8-2.8 5.1-5.8 7-9Z" style="opacity:1"/><path fill="#6b6b6c" d="M522.5 563.5a58 58 0 0 1-12 8v-1l4-3c-.2-.6-.5-1-1-1.5 3.2 1.1 5.4 0 6.5-3.5.7.8 1.5 1 2.5 1Z" style="opacity:1"/><path fill="#4d4e51" d="M70.5 573.5a67.6 67.6 0 0 1-9-6c0-.5.4-.9 1-1a18 18 0 0 0 8 2v5Z" style="opacity:1"/><path fill="#3e3f41" d="M507.5 563.5c-2.6 3.8-1.6 6 3 7v1c-.3 1.6-1.3 2.6-3 3-1.6 0-3-.6-4-2a4.9 4.9 0 0 0-1 4h-4v3a7 7 0 0 1-4 3c2.2-2.5 3.7-5.5 4.5-9l1-1 1 3c.4-1.9 1-3.7 1.5-5.5-.3-1-1-1.5-2-1.5l7-5Z" style="opacity:1"/><path fill="#9b9fa5" d="M353.5 576.5a4 4 0 0 0-3.5 2 8.9 8.9 0 0 0-7.5-2 8 8 0 0 1 4-4c2.8.6 5.2 2 7 4Z" style="opacity:1"/><path fill="#5b5c5d" d="M75.5 568.5v1c-1.3 1.6-1.3 3.3 0 5-.5.7-1.2 1.2-2 1.5 1.3.5 2.6.7 4 .5v4c-3-1.7-5.4-4-7-7 1.6 1 2.6.4 3-2-1-1.6-.3-2.6 2-3Z" style="opacity:1"/><path fill="#67686a" d="M507.5 574.5c-2.8 2-5.8 3.6-9 5v-3h4c-.3-1.5 0-2.8 1-4 1 1.4 2.4 2 4 2Z" style="opacity:1"/><path fill="#191a1c" d="M500.5 568.5c1 0 1.7.5 2 1.5-.6 1.8-1 3.6-1.5 5.5l-1-3-1 1c-.8 3.5-2.3 6.5-4.5 9-1.7-.2-2.7.5-3 2-.7 0-1 .3-1 1-1.8-.1-3.4.2-5 1a13 13 0 0 0-4-3c-2.9 3-4.2 2.3-4-2 7.4-4.7 15-9 23-13Z" style="opacity:1"/><path fill="#191a1d" d="M294.5 569.5c2 8 2.7 16 2 24-1.5 4-2.5 3.6-3-1h-4c.3-2.2 0-4.2-1-6-1.3-6-2.3-12-3-18 .1-4.6 1.1-5 3-1l1-.5a4.5 4.5 0 0 1 0-5.5 9.1 9.1 0 0 0 5 8Z" style="opacity:1"/><path fill="#63666c" d="m89.5 577.5 10 5c-4.5.4-7.8-1.3-10-5Z" style="opacity:1"/><path fill="#74777e" d="M342.5 576.5c2.9-.5 5.4.2 7.5 2a4 4 0 0 1 3.5-2c4.7 3.7 8.7 8 12 13-1.5 2.8-.9 5 2 6.5-1.1 1-.8 1.7 1 2a4 4 0 0 0-1 2l3 5.5c-3 3.3-2.3 5.5 2 6.5-1 .4-1.6 1-2 2 1.3 1.3 1.3 2.7 0 4l-3 3.5c-.8.9-1.8 1.6-3 2a26.3 26.3 0 0 0-8-3c-4.5-2-8.7-4.7-12.5-8-3.4-6.3-6-13-7.5-20 .2-6 2.2-11.4 6-16Z" style="opacity:1"/><path fill="#868a91" d="M204.5 574.5a37 37 0 0 0 0 8.5 11.6 11.6 0 0 1-6.5 5.5c-4.3-.8-8.5-2-12.5-3.5-1.7-1.2-3-2.7-4-4.5 5.9-.3 11.7 0 17.5 1 2.8-1.6 4.6-4 5.5-7Z" style="opacity:1"/><path fill="#878788" d="M494.5 582.5a7 7 0 0 1-3 2c.3-1.5 1.3-2.2 3-2Z" style="opacity:1"/><path fill="#515254" d="M77.5 580.5c2-.2 4 0 6 .5-1.2.7-1.2 1.2 0 1.5l5.5-2c2.5 1.1 3 2.8 1.5 5 .4 1 1.1 1 2 0 1 1.2 1.3 2.5 1 4l-16-9Z" style="opacity:1"/><path fill="#2b2c2e" d="M75.5 569.5a7 7 0 0 0 4 1c3 2.8 6.2 5.1 10 7 2.2 3.7 5.5 5.4 10 5 3 1.4 6 2.8 9 4-3.5.1-6.7-.9-9.5-3a4.3 4.3 0 0 1-4.5 2v3c1-.1 2 0 3 .5-1.2.7-1.2 1.2 0 1.5 1.6-.6 3-1.2 4.5-2 1 .5 2.2.6 3.5.5l2 5.5c.9 1 1.9 1 3 0l3 4c4-3.9 5-3.4 3 1.5 2 .9 3.6 2 5 3.5-9.7-4.2-19-8.8-28-14 .3-1.5 0-2.8-1-4-.9 1-1.6 1-2 0 1.5-2.2 1-3.9-1.5-5l-5.5 2c-1.2-.3-1.2-.8 0-1.5-2-.5-4-.7-6-.5v-4c-1.4.2-2.7 0-4-.5.8-.3 1.5-.8 2-1.5-1.3-1.7-1.3-3.4 0-5Z" style="opacity:1"/><path fill="#404144" d="M477.5 581.5c-.2 4.3 1.1 5 4 2a13 13 0 0 1 4 3 9.1 9.1 0 0 1 5-1 89 89 0 0 0-11 6c.3-1.5 0-2.8-1-4-1.2-1.6-2.5-3-4-4a7 7 0 0 1 3-2Z" style="opacity:1"/><path fill="#4b4d4f" d="M478.5 591.5a20 20 0 0 1-9 5c.6-1.3 1-2.6 1.5-4 .4.5 1 .8 1.5 1a7.1 7.1 0 0 1 6-2Z" style="opacity:1"/><path fill="#292b2e" d="M288.5 586.5c1 1.8 1.3 3.8 1 6h4c.5 4.6 1.5 5 3 1 .3 6.5 0 12.9-1 19v-9c-2.7 0-4.7.7-6 2-.7 2-.7 4 0 6-.5 1.4-1.5 2-3 2 1.5-9 2.2-18 2-27Z" style="opacity:1"/><path fill="#191a1c" d="m108.5 586.5 24 13c-.2 1.4 0 2.7.5 4a4 4 0 0 1 3.5-2l20 13c.3 1.8 1 3.5 2 5 2.4.6 4.2 2 5.5 4a6.5 6.5 0 0 1 4.5-1v3h-3v3c-2-3.2-5-4.5-9-4h-1c-.8-2.3-2.5-3.3-5-3-.5-1.4-1.5-2-3-2-1 .2-1.7-.2-2-1-.8-2.3-2.5-3.3-5-3-.3-1.5-1.3-2.2-3-2-.7 0-1-.3-1-1-2.2-2-4.5-3.8-7-5.5l2-2c-2-.5-4-.7-6-.5a3 3 0 0 0-1-3 4.5 4.5 0 0 1-3 2 17 17 0 0 0-5-3.5c2-4.9 1-5.4-3-1.5l-3-4c-1.1 1-2.1 1-3 0l-2-5.5c-1.3.1-2.5 0-3.5-.5-1.4.8-3 1.4-4.5 2-1.2-.3-1.2-.8 0-1.5a5 5 0 0 0-3-.5v-3c2 .3 3.5-.4 4.5-2 2.8 2.1 6 3.1 9.5 3Z" style="opacity:1"/><path fill="#60636a" d="M132.5 599.5c1.7.2 3 .8 4 2a4 4 0 0 0-3.5 2 8.4 8.4 0 0 1-.5-4Z" style="opacity:1"/><path fill="#585a5d" d="M461.5 601.5a18.6 18.6 0 0 1-5 3v-3h5Z" style="opacity:1"/><path fill="#3f4041" d="M136.5 612.5c-5.3-2.6-10.3-5.6-15-9 1.2-.2 2.2-.9 3-2a3 3 0 0 1 1 3c2-.2 4 0 6 .5l-2 2c2.5 1.7 4.8 3.5 7 5.5Z" style="opacity:1"/><path fill="#121315" d="M295.5 612.5a7 7 0 0 1-1 4l-4.5 8c-.4-.5-1-.8-1.5-1a346 346 0 0 0-2-8v-2c1.5 0 2.5-.6 3-2-.7-2-.7-4 0-6 1.3-1.3 3.3-2 6-2v9Z" style="opacity:1"/><path fill="#797a7b" d="M137.5 613.5c1.7-.2 2.7.5 3 2a7 7 0 0 1-3-2Z" style="opacity:1"/><path fill="#666768" d="M140.5 615.5c2.5-.3 4.2.7 5 3-2-.6-3.6-1.6-5-3Z" style="opacity:1"/><path fill="#8b8f96" d="M365.5 589.5c4.7 7 7.4 14.8 8 23.5.5 4.7-1.5 7.5-6 8.5l3-3.5c1.3-1.3 1.3-2.7 0-4 .4-1 1-1.6 2-2-4.3-1-5-3.2-2-6.5l-3-5.5a4 4 0 0 1 1-2c-1.8-.3-2.1-1-1-2-2.9-1.5-3.5-3.7-2-6.5Z" style="opacity:1"/><path fill="#6e7075" d="M434.5 617.5c-.5 1.4-1.5 2-3 2 .3-1.5 1.3-2.2 3-2Z" style="opacity:1"/><path fill="#838485" d="M147.5 619.5c1.5 0 2.5.6 3 2-1.5 0-2.5-.6-3-2Z" style="opacity:1"/><path fill="#5f6061" d="M150.5 621.5c2.5-.3 4.2.7 5 3a6.6 6.6 0 0 1-5-3Z" style="opacity:1"/><path fill="#2a2c30" d="M286.5 615.5a346 346 0 0 1 2 8c.6.2 1 .5 1.5 1l4.5-8a103 103 0 0 0-2 14h-1c-.8-4.4-2.8-5.4-6-3a31.8 31.8 0 0 0-2.5 9c-.4.6-.9.9-1.5 1 1-7.5 2.7-14.8 5-22Z" style="opacity:1"/><path fill="#25272a" d="M156.5 614.5a155 155 0 0 0 12 6.5c3.5 3 7.2 5.9 11 8.5v6c-3.6 0-6-1.7-7.5-5a4.3 4.3 0 0 1-4.5 2 7 7 0 0 1 3-5.5c-2-.6-3.7-.1-5 1.5v-3h3v-3c-1.6-.2-3.1.1-4.5 1a8.7 8.7 0 0 0-5.5-4c-1-1.5-1.7-3.2-2-5Z" style="opacity:1"/><path fill="#161719" d="M291.5 630.5c-.9 7.3-.5 14.7 1 22-.3 1.6-1 3-2 4v11c.2 4.2-.2 8.4-1 12.5.5 2.2 1.2 4.4 2 6.5l1 4h-15c1-3 2.3-5.6 4-8 .2-15 .2-30 0-45 .6-.1 1.1-.4 1.5-1 .4-3.1 1.2-6.1 2.5-9 3.2-2.4 5.2-1.4 6 3Z" style="opacity:1"/><path fill="#1c1d1f" d="M474.5 583.5c1.5 1 2.8 2.4 4 4 1 1.2 1.3 2.5 1 4h-1c-2.3-.3-4.3.4-6 2-.6-.2-1-.5-1.5-1-.4 1.4-1 2.7-1.5 4-2.3 2.2-5 3.8-8 5h-5v3c-7 3.2-13.2 7.3-19 12.5a5 5 0 0 1-3 .5c-1.7-.2-2.7.5-3 2-5.6 3.2-11 6.8-16 11-3 .4-6 1-9 2v4a7 7 0 0 1-3 2h-5v3l-4 2-8 1v3c-2.3 2.2-5 3.8-8 5-3.8-.3-6.8 1.4-9 5a7 7 0 0 1-4 2c-2.3-.3-4.3.4-6 2-2.4-1-3.4 0-3 3-1.3-.2-2.5.2-3.5 1-1.6-2.7-1.4-5.3.5-8l4-4 40-22.5a569 569 0 0 1 77-47.5Z" style="opacity:1"/><path fill="#5e5f61" d="M156.5 624.5c4-.5 7 .8 9 4 1.3-1.6 3-2.1 5-1.5a7 7 0 0 0-3 5.5l-11-8Z" style="opacity:1"/><path fill="#46474a" d="M415.5 630.5a62.7 62.7 0 0 1-9 6v-4c3-1 6-1.6 9-2Z" style="opacity:1"/><path fill="#4c4d4f" d="M179.5 629.5c1.9 1.5 3.9 2.9 6 4-3.3 1-5 3.3-5 7-4.6-2.4-8.9-5.1-13-8 2 .3 3.5-.4 4.5-2 1.4 3.3 4 5 7.5 5v-6Z" style="opacity:1"/><path fill="#898c91" d="M291.5 630.5h1c-.2 7.4.1 14.7 1 22 .4 2.5-.6 3.8-3 4 1-1 1.7-2.4 2-4a67.8 67.8 0 0 1-1-22Z" style="opacity:1"/><path fill="#68696b" d="M403.5 638.5a18.6 18.6 0 0 1-5 3v-3h5Z" style="opacity:1"/><path fill="#1f2123" d="M185.5 633.5c5 3 10 5.6 15 8v4c-2.3-.3-4.5 0-6.5 1 0-1.6-.3-3-.5-4l-4 2c-1.2-.7-2.6-1-4-1-2-.5-3.7-1.5-5-3 0-3.7 1.7-6 5-7Z" style="opacity:1"/><path fill="#545658" d="M394.5 643.5c-2.4 1.9-5 3.2-8 4v-3l8-1Z" style="opacity:1"/><path fill="#434447" d="M200.5 641.5c3 1 5.6 2.3 8 4h-3c.3 1.7.5 3.4.5 5-1-1.2-2.2-2.2-3.5-3 1-1 1-2 0-3-2.6 2-5.6 3-9 3-3.4 0-6-1.4-8-4 1.4 0 2.8.3 4 1l4-2 .5 4c2-1 4.2-1.3 6.5-1v-4Z" style="opacity:1"/><path fill="#1d1e20" d="M208.5 645.5c4.8 1.6 9.1 3.9 13 7a41.8 41.8 0 0 1-4 5 64.7 64.7 0 0 1-14-6 4.9 4.9 0 0 1-1-4c1.3.8 2.5 1.8 3.5 3 0-1.6-.2-3.3-.5-5h3Z" style="opacity:1"/><path fill="#616264" d="M202.5 647.5c-.3 1.5 0 2.8 1 4 4.4 2.6 9.1 4.6 14 6 .9 2.4 2.5 3.3 5 2.5a5 5 0 0 0-3-.5c-.1-1 0-2 .5-3 1 1.6 2.6 2.6 4.5 3v1c-.9.7-1.2 1.7-1 3a863.8 863.8 0 0 1-30-16c3.4 0 6.4-1 9-3 1 1 1 2 0 3Z" style="opacity:1"/><path fill="#606061" d="M378.5 652.5c-2.7 2-5.7 3.7-9 5 2.2-3.6 5.2-5.3 9-5Z" style="opacity:1"/><path fill="#76797f" d="m357.5 653.5-4 4h-1a5.3 5.3 0 0 1 5-4Z" style="opacity:1"/><path fill="#393b3f" d="M221.5 652.5c3 1.2 5.7 2.8 8 5-1.8.1-3.4-.2-5-1-.6.7-.6 1.7 0 3-2-.4-3.4-1.4-4.5-3a5 5 0 0 0-.5 3c1-.1 2 0 3 .5-2.5.8-4.1 0-5-2.5 1.4-1.5 2.8-3.2 4-5Z" style="opacity:1"/><path fill="#2d2e30" d="M352.5 657.5h1c-2 2.7-2 5.3-.5 8 1-.8 2.2-1.2 3.5-1-3.8 3.4-8.2 6-13 8-.2-4-2.2-6-6-6 4.7-3.4 9.7-6.4 15-9Z" style="opacity:1"/><path fill="#3d3f42" d="M234.5 668.5h-2a58.2 58.2 0 0 1-9-5c-.2-1.3.1-2.3 1-3 .8.8 1.7.5 2.5-1 1.1 1.8 1.6 3.8 1.5 6 2.8-.5 4.8.5 6 3Z" style="opacity:1"/><path fill="#545556" d="M365.5 659.5a57.8 57.8 0 0 1-9 5c-.4-3 .6-4 3-3a7.2 7.2 0 0 1 6-2Z" style="opacity:1"/><path fill="#27282b" d="M229.5 657.5c1-.1 2 0 3 .5 6 4.1 12 8 18 11.5 1.4 3.5 3.8 4.5 7 3 5.3 3 11 5 17 6.5 1.5 1 2.9 2.2 4 3.5-.9 2.8-2.9 4.1-6 4a71.5 71.5 0 0 0-14-4c-3.6-1.2-7-2.8-10-5-.5-2-1.9-3-4-3 .6-4-.7-5.3-4-4a7 7 0 0 1-4.5-3c-.4.6-.9.9-1.5 1-1.2-2.5-3.2-3.5-6-3 .1-2.2-.4-4.2-1.5-6-.8 1.5-1.7 1.8-2.5 1v-1c-.6-1.3-.6-2.3 0-3 1.6.8 3.2 1.1 5 1Z" style="opacity:1"/><path fill="#83868c" d="M290.5 667.5c.7 5.5 1.5 11.2 2.5 17 1-.8 2.2-1.2 3.5-1a37.8 37.8 0 0 0-3.5 4c-.4-.6-.9-.9-1.5-1-.8-2.1-1.5-4.3-2-6.5.8-4.1 1.2-8.3 1-12.5Z" style="opacity:1"/><path fill="#6d7076" d="M250.5 669.5c2.7.4 5 1.4 7 3-3.2 1.5-5.6.5-7-3Z" style="opacity:1"/><path fill="#616163" d="M248.5 677.5c-5.6-2.5-11-5.5-16-9h2c.6-.1 1.1-.4 1.5-1a7 7 0 0 0 4.5 3c3.3-1.3 4.6 0 4 4 2.1 0 3.5 1 4 3Z" style="opacity:1"/><path fill="#4b4d51" d="M333.5 669.5c-1 1.8-2 3.8-2.5 6a7.1 7.1 0 0 0-6.5-2c3-1 6-2.4 9-4Z" style="opacity:1"/><path fill="#404245" d="m324.5 673.5 1 2c-1.6.8-3.2 1.3-5 1.5 3.4 1.9 7 2.7 11 2.5-4.1 2.6-8.5 4-13 4 1.5-3 .5-4.6-3-5 2.3-2.7 5.3-4.4 9-5Z" style="opacity:1"/><path fill="#1b1c1d" d="M337.5 666.5c3.8 0 5.8 2 6 6a4 4 0 0 1-3.5-2c-.3 1.3-.8 2.4-1.5 3.5-4.3-.5-6.6 1.3-7 5.5-4 .2-7.6-.6-11-2.5 1.8-.2 3.4-.7 5-1.5l-1-2c2.6-.4 4.7.3 6.5 2 .6-2.2 1.4-4.2 2.5-6 1.4-.8 2.8-1.8 4-3Z" style="opacity:1"/><path fill="#4a4a4b" d="M343.5 672.5a33.5 33.5 0 0 1-12 7c.4-4.2 2.7-6 7-5.5.7-1 1.2-2.2 1.5-3.5a4 4 0 0 0 3.5 2Z" style="opacity:1"/><path fill="#2e3033" d="M315.5 678.5c3.5.4 4.5 2 3 5-3-.2-5.9.5-8.5 2-3.2-1.7-4-1-2.5 2a70.3 70.3 0 0 1-15 3l-1-4c.6.1 1.1.4 1.5 1 1.1-1.4 2.3-2.8 3.5-4 6.2-2.3 12.5-4 19-5Z" style="opacity:1"/><path fill="#5c5d5e" d="M318.5 683.5c-1 1.5-2.2 1.8-3.5 1a14.8 14.8 0 0 1-7.5 3c-1.5-3-.7-3.7 2.5-2 2.6-1.5 5.5-2.2 8.5-2Z" style="opacity:1"/><path fill="#4c4d50" d="M258.5 682.5c4.8.9 9.5 2.2 14 4 3.1.1 5.1-1.2 6-4h3a29 29 0 0 0-4 8h14l-8 2h-1c-.3-1.3-.7-1.3-1 0h-4c-6-4-12.3-7.4-19-10Z" style="opacity:1"/></svg>