<?xml version="1.0" encoding="UTF-8"?>
<!DOCTYPE svg PUBLIC "-//W3C//DTD SVG 1.1//EN" "http://www.w3.org/Graphics/SVG/1.1/DTD/svg11.dtd">
<svg xmlns="http://www.w3.org/2000/svg" version="1.1" width="82px" height="129px" style="shape-rendering:geometricPrecision; text-rendering:geometricPrecision; image-rendering:optimizeQuality; fill-rule:evenodd; clip-rule:evenodd" xmlns:xlink="http://www.w3.org/1999/xlink">
<g><path style="opacity:1" fill="#878585" d="M 46.5,-0.5 C 49.8333,-0.5 53.1667,-0.5 56.5,-0.5C 69.1694,2.35277 77.5027,10.0194 81.5,22.5C 81.5,25.5 81.5,28.5 81.5,31.5C 79.2143,36.73 76.381,41.73 73,46.5C 65.9459,53.5541 58.9459,60.5541 52,67.5C 51.5629,74.9053 51.8963,82.2386 53,89.5C 51.8649,92.8587 49.5316,94.192 46,93.5C 35.5503,91.5462 29.717,85.2129 28.5,74.5C 29.0251,68.4242 30.8585,62.7575 34,57.5C 43.5806,45.3485 51.914,32.3485 59,18.5C 59.9201,15.6917 59.0867,13.5251 56.5,12C 44.9685,10.1772 35.8018,14.0105 29,23.5C 29.7302,33.88 29.0635,44.2133 27,54.5C 21.7139,59.6531 16.2139,59.8198 10.5,55C 4.05507,49.9317 0.388403,43.4317 -0.5,35.5C -0.5,34.5 -0.5,33.5 -0.5,32.5C 1.47249,25.7472 5.13915,19.9138 10.5,15C 21.2828,6.8016 33.2828,1.63494 46.5,-0.5 Z"/></g>
<g><path style="opacity:1" fill="#d8d8d8" d="M 61.5,5.5 C 64.3831,4.73003 67.0497,5.56336 69.5,8C 66.8195,7.50895 64.1528,6.67562 61.5,5.5 Z"/></g>
<g><path style="opacity:1" fill="#f2f2f2" d="M 55.5,9.5 C 58.649,7.77147 60.9824,8.6048 62.5,12C 62.1667,12.5 61.8333,13 61.5,13.5C 59.4714,12.1565 57.4714,10.8231 55.5,9.5 Z"/></g>
<g><path style="opacity:1" fill="#f2f2f2" d="M 65.5,9.5 C 73.3163,11.4952 75.483,16.1619 72,23.5C 70.503,27.1649 68.503,30.4983 66,33.5C 66.5953,28.6858 67.4287,23.8524 68.5,19C 68.4778,15.4722 67.4778,12.3056 65.5,9.5 Z"/></g>
<g><path style="opacity:1" fill="#dddcdc" d="M 14.5,51.5 C 15.9778,51.238 17.3112,51.5713 18.5,52.5C 17.8333,52.8333 17.1667,53.1667 16.5,53.5C 15.2867,53.2528 14.62,52.5862 14.5,51.5 Z"/></g>
<g><path style="opacity:1" fill="#f6f6f6" d="M 45.5,74.5 C 47.2168,78.5748 47.7168,82.9082 47,87.5C 44.5027,89.4782 41.6693,89.9782 38.5,89C 36.7397,88.0347 36.4063,86.868 37.5,85.5C 39.713,88.0801 41.8797,88.0801 44,85.5C 44.9358,81.8865 45.4358,78.2198 45.5,74.5 Z"/></g>
<g><path style="opacity:1" fill="#878585" d="M 49.5,128.5 C 47.1667,128.5 44.8333,128.5 42.5,128.5C 34.3794,125.706 29.3794,120.039 27.5,111.5C 30.0055,101.573 36.3388,97.7397 46.5,100C 57.5392,105.118 60.7059,113.285 56,124.5C 53.9052,126.125 51.7385,127.458 49.5,128.5 Z"/></g>
<g><path style="opacity:1" fill="#d3d3d3" d="M 51.5,109.5 C 50.0783,109.291 48.745,108.791 47.5,108C 49.3524,107.227 50.6857,107.727 51.5,109.5 Z"/></g>
<g><path style="opacity:1" fill="#dbdada" d="M 51.5,109.5 C 52.7759,110.386 52.7759,111.386 51.5,112.5C 50.4376,111.575 50.4376,110.575 51.5,109.5 Z"/></g>
<g><path style="opacity:1" fill="#f2f2f2" d="M 37.5,117.5 C 40.1398,117.954 42.4732,119.121 44.5,121C 42.5,121.667 40.5,121.667 38.5,121C 37.6634,119.989 37.33,118.822 37.5,117.5 Z"/></g>
</svg>
